<svg id="_011---Investing" data-name="011---Investing" xmlns="http://www.w3.org/2000/svg" width="43" height="43" viewBox="0 0 43 43">
  <path id="Shape" d="M43.736,3.5C35.924,2.387,22.917,0,19.886,0c-1.01,0-2.257,1.154-3.426,2.766l-1.9.437a4.966,4.966,0,0,0-3.125,2.229l-2.3,3.684c-.559.889-.559,1.24-2.064,6.773a2.168,2.168,0,1,0,4.092,1.433l1.555-3.655v4a3.934,3.934,0,0,0-.659,2.867,4.3,4.3,0,1,0,7.539.9c2.437-1.785,4.336-4.235,7.453-4.235a23,23,0,0,0,6.909-1.161,9.854,9.854,0,0,1,4.149-.394c.717.086,3.583.487,5.224.717a1.433,1.433,0,0,0,1.634-1.433V4.895A1.433,1.433,0,0,0,43.736,3.5ZM12.16,12.1c-.631.43-.631.681-2.322,4.623a.767.767,0,0,1-1.268.15.717.717,0,0,1-.15-.609c1.612-5.92,1.526-5.8,1.9-6.393l2.329-3.684A3.583,3.583,0,0,1,14.869,4.6l.444-.108C14.245,6.3,12.7,9.51,12.7,11.6a2.945,2.945,0,0,1-.545.53Zm3.426,13.7a2.867,2.867,0,0,1-2.709-3.77,2.988,2.988,0,0,0,1.39.753,5.683,5.683,0,0,0,4.085-.573,2.867,2.867,0,0,1-2.766,3.59ZM38.268,14.219a11.237,11.237,0,0,0-4.744.459,21.751,21.751,0,0,1-6.471,1.089c-5.733,0-7.833,6.665-12.463,5.619a1.433,1.433,0,0,1-1.154-1.433,2.394,2.394,0,0,1,.509-1.5,9.231,9.231,0,0,1,3.3-1.971,36.758,36.758,0,0,0,6.45-3.77,2.215,2.215,0,0,0-1.491-4.006,17.2,17.2,0,0,0-3.11.609,1.677,1.677,0,0,1-.853-.494A.72.72,0,0,0,17.227,9.84a3.282,3.282,0,0,0,1.182.767,2.379,2.379,0,0,1-.838,1.577,1.72,1.72,0,0,1-.76-.473.72.72,0,0,0-1.018,1.018,3.282,3.282,0,0,0,1.182.767,7.21,7.21,0,0,1-.487,1.741,12.241,12.241,0,0,0-2.336,1.175V11.467c0-2.974,4.3-10.033,5.733-10.033,2.867,0,15.681,2.351,23.65,3.49V14.957c-1.634-.251-4.493-.624-5.267-.738Zm-19.816-.932a3.877,3.877,0,0,0,1.433-2.709,15.659,15.659,0,0,1,2.508-.487.717.717,0,0,1,.767.487v.1a.717.717,0,0,1-.265.788c-1.856,1.269-3.454,2.279-4.637,2.917A7.69,7.69,0,0,0,18.452,13.287Z" transform="translate(-1.969)" fill="#707070"/>
  <path id="Shape-2" data-name="Shape" d="M0,46a.717.717,0,0,0,.717.717c3.139,0,4.816-1.383,6.493-2.258a9.424,9.424,0,0,0-.76,3.691c0,3.583,2.68,5.733,7.167,5.733s7.167-2.15,7.167-5.733a9.424,9.424,0,0,0-.76-3.691c1.72.9,3.368,2.258,6.493,2.258a.717.717,0,0,0,0-1.433c-3.153,0-4.551-1.634-6.622-2.458.366-.28,1.347-.43,1.684-1.648A2.15,2.15,0,0,0,18.8,38.52a13.79,13.79,0,0,1-10.363,0,2.15,2.15,0,0,0-2.781,2.652,2.258,2.258,0,0,0,1.512,1.534.9.9,0,0,1,.172.115c-2.078.831-3.476,2.458-6.622,2.458A.717.717,0,0,0,0,46Zm7.03-5.21a.717.717,0,0,1,.953-.9,15.3,15.3,0,0,0,11.266,0,.74.74,0,0,1,.545,1.376,2.15,2.15,0,0,1-.258.115,2.15,2.15,0,0,0-1.125,3,7.991,7.991,0,0,1,.939,3.777c0,3.741-3.583,4.3-5.733,4.3s-5.733-.559-5.733-4.3a7.991,7.991,0,0,1,.939-3.777,2.15,2.15,0,0,0-1.125-3,.96.96,0,0,1-.666-.588Z" transform="translate(0 -10.878)" fill="#707070"/>
  <path id="Shape-3" data-name="Shape" d="M14.717,45.433H16.15a.717.717,0,0,0,0-1.433H14.717a.717.717,0,0,0,0,1.433Z" transform="translate(-3.967 -12.467)" fill="#707070"/>
  <path id="Shape-4" data-name="Shape" d="M20.717,45.433H22.15a.717.717,0,0,0,0-1.433H20.717a.717.717,0,0,0,0,1.433Z" transform="translate(-5.667 -12.467)" fill="#707070"/>
  <path id="Shape-5" data-name="Shape" d="M28.923,32.207l-.717.717a.72.72,0,0,0,1.018,1.018l.717-.717a.72.72,0,1,0-1.018-1.018Z" transform="translate(-7.932 -9.066)" fill="#707070"/>
  <path id="Shape-6" data-name="Shape" d="M31.717,37.433H33.15a.717.717,0,0,0,0-1.433H31.717a.717.717,0,0,0,0,1.433Z" transform="translate(-8.783 -10.2)" fill="#707070"/>
  <path id="Shape-7" data-name="Shape" d="M8.432,34.149a.717.717,0,0,0,.509-1.225l-.717-.717a.72.72,0,0,0-1.018,1.018C7.966,33.984,8.059,34.149,8.432,34.149Z" transform="translate(-1.982 -9.065)" fill="#707070"/>
  <path id="Shape-8" data-name="Shape" d="M5.15,37.433A.717.717,0,0,0,5.15,36H3.717a.717.717,0,0,0,0,1.433Z" transform="translate(-0.85 -10.2)" fill="#707070"/>
</svg>
