<svg xmlns="http://www.w3.org/2000/svg" width="85" height="85" viewBox="0 0 85 85">
  <g id="Group_10086" data-name="Group 10086" transform="translate(-569 -707)">
    <circle id="Ellipse_105" data-name="Ellipse 105" cx="42.5" cy="42.5" r="42.5" transform="translate(569 707)" fill="#964006"/>
    <path id="Subtraction_14" data-name="Subtraction 14" d="M85,43H0v-.033c0-.155,0-.31,0-.467A42.511,42.511,0,0,1,81.66,25.957,42.234,42.234,0,0,1,85,42.5c0,.167,0,.333,0,.5Z" transform="translate(569 707)" fill="#b25d2b"/>
    <circle id="Ellipse_107" data-name="Ellipse 107" cx="34" cy="34" r="34" transform="translate(578 716)" fill="#fff" opacity="0.152"/>
    <g id="airplane-around-earth" transform="translate(595.555 733.786)">
      <path id="Path_6119" data-name="Path 6119" d="M32.4,29.39A14.911,14.911,0,0,1,19.773,44.106a3.438,3.438,0,0,0,.037-1.019l-.1-.842a13.015,13.015,0,0,0,6.64-3.269,1.762,1.762,0,0,1-.324-.364c-.482-.7.148-1.4.148-2.016s-1.216-.554-1.261-.953c-.154-1.384.849-1.4,1.384-1.937s-.528-1.75-1.215-1.671-2.637-.319-2.459-1.808c.217-1.813-2.31-1.653-2.672-2.5a2.43,2.43,0,0,1,1.493-3.09c1.62-.487,3.216-1.808,3.091-3.279A5.508,5.508,0,0,0,22.4,17.3a12.949,12.949,0,0,0-4.144-.929c-1.3.051-2.445.341-2.393.936.128,1.46,4.28,1.839,3.583,3.2-.363.711-3.089,1.716-2.58,2.775.331.689,1.146.1.842,1.42-.14.608-.673,1.751-1.494,1.825-.839.078-1.537-2.144-3.82-2.217-1.079-.035-2.6,1.684-1.309,2.9.782.738,2.249-.887,2.682.383.305.895-.041,2.775,1.383,3.56.519.286,1.315.536,2.1.936a27.977,27.977,0,0,0-4.3,1.337l-1.428-.377c.6-.5,1.569-.848,1.325-1.936-.359-1.6-3.133-1-5.046-2.908a7.63,7.63,0,0,1-1.833-4.875,13.033,13.033,0,0,0-1.346,8.034c-.023,0-.045,0-.067,0a4.342,4.342,0,0,0-1.741.366A14.887,14.887,0,1,1,32.4,29.39ZM21.237,33.729,17.6,35.4l.056-.792,2.355-1.063c-.336-.024-.684-.033-1.032-.033a19.524,19.524,0,0,0-5.932,1.624l-7.8-2.057a2.723,2.723,0,0,0-2.143.327l-.384.241a.605.605,0,0,0-.007,1.02L7.4,37.708c-1.12.573-2.183,1.155-3.119,1.71L1.879,38.145a1.513,1.513,0,0,0-1.27-.067l-.228.091a.605.605,0,0,0-.3.859L1.4,41.382h0c-.5.43-.785.787-.785,1.034,0,.739.909.924,1.711.924,1.43,0,20.309-4.323,20.309-8.239C22.639,34.325,22.109,33.937,21.237,33.729Zm-7.96,7.646,4.155-1.464a.3.3,0,0,1,.4.25l.364,3.114a1.816,1.816,0,0,1-1.038,1.857l-.39.181a.605.605,0,0,1-.709-.149L13.15,41.861A.3.3,0,0,1,13.277,41.375Z" transform="translate(0 -14.502)" fill="#fff"/>
    </g>
  </g>
</svg>
