<svg xmlns="http://www.w3.org/2000/svg" width="85" height="85" viewBox="0 0 85 85">
  <g id="Group_10083" data-name="Group 10083" transform="translate(-318 -535)">
    <circle id="Ellipse_84" data-name="Ellipse 84" cx="42.5" cy="42.5" r="42.5" transform="translate(318 535)" fill="#065bfc"/>
    <path id="Subtraction_8" data-name="Subtraction 8" d="M85,43H0v-.033c0-.155,0-.31,0-.467A42.511,42.511,0,0,1,81.66,25.957,42.234,42.234,0,0,1,85,42.5c0,.167,0,.333,0,.5Z" transform="translate(318 535)" fill="#3f81ff"/>
    <circle id="Ellipse_90" data-name="Ellipse 90" cx="34" cy="34" r="34" transform="translate(327 544)" fill="#fff" opacity="0.152"/>
    <g id="portfolio" transform="translate(343 560)">
      <path id="Path_6108" data-name="Path 6108" d="M211,240h6.855v2.285H211Zm0,0" transform="translate(-196.928 -223.728)" fill="#fff"/>
      <path id="Path_6109" data-name="Path 6109" d="M28.4,90.263H22.627v1a1.013,1.013,0,0,1-1.025,1H13.4a1.013,1.013,0,0,1-1.025-1v-1H6.6A3.067,3.067,0,0,1,3.687,88.21L0,77.41V99.272a3.044,3.044,0,0,0,3.076,3H31.924a3.044,3.044,0,0,0,3.076-3V77.411l-3.687,10.8A3.067,3.067,0,0,1,28.4,90.263Zm0,0" transform="translate(0 -71.514)" fill="#fff"/>
      <path id="Path_6110" data-name="Path 6110" d="M45.392,0h-8.1a3.254,3.254,0,0,0-3.037,3.428V4.57H25.809L29.626,17.5a1.031,1.031,0,0,0,.961.781h5.694V17.139A1.083,1.083,0,0,1,37.294,16h8.1A1.083,1.083,0,0,1,46.4,17.139v1.143H52.1a1.031,1.031,0,0,0,.961-.781L56.877,4.57H48.428V3.428A3.254,3.254,0,0,0,45.392,0Zm-9.11,4.57V3.428a1.084,1.084,0,0,1,1.012-1.143h8.1A1.084,1.084,0,0,1,46.4,3.428V4.57Zm0,0" transform="translate(-23.843)" fill="#fff"/>
    </g>
  </g>
</svg>
