<svg xmlns="http://www.w3.org/2000/svg" width="85" height="85" viewBox="0 0 85 85">
  <g id="Group_10089" data-name="Group 10089" transform="translate(-67 -707)">
    <circle id="Ellipse_93" data-name="Ellipse 93" cx="42.5" cy="42.5" r="42.5" transform="translate(67 707)" fill="#fb2e32"/>
    <path id="Subtraction_10" data-name="Subtraction 10" d="M85,43H0v-.033c0-.155,0-.31,0-.467A42.511,42.511,0,0,1,81.66,25.957,42.234,42.234,0,0,1,85,42.5c0,.167,0,.333,0,.5Z" transform="translate(67 707)" fill="#fe4964"/>
    <circle id="Ellipse_95" data-name="Ellipse 95" cx="34" cy="34" r="34" transform="translate(76 716)" fill="#fff" opacity="0.152"/>
    <g id="travelling-vehicles-of-a-road" transform="translate(87.798 736.691)">
      <g id="Group_10063" data-name="Group 10063" transform="translate(0 0)">
        <path id="Path_6129" data-name="Path 6129" d="M164.934,107.35c1.34-.67,6.565-.722,8.135-.722,2.007,0,4,.072,5.763.208h.013a3.254,3.254,0,0,1,2.071.87l.041.044,2.022,2.283V94.391H154.694V97.9h-.3v14.334l6.5-1.665A28.882,28.882,0,0,1,164.934,107.35Z" transform="translate(-140.279 -94.391)" fill="#fff"/>
        <path id="Path_6130" data-name="Path 6130" d="M13.743,146.218V132.524h-8l-5,6.456v4.057L0,143.82v2.4l2.922,0H3.949a3.662,3.662,0,0,0-.073.393H.581l.037,1.431H3.969a3.676,3.676,0,0,0,7.1,0h1.775l.328-.918.543-.139v-.373H11.165a3.64,3.64,0,0,0-.073-.393h2.65ZM7.52,148.851a1.762,1.762,0,1,1,1.763-1.762A1.765,1.765,0,0,1,7.52,148.851ZM3.071,138.734l3.352-4.678h5.821v4.678Z" transform="translate(0 -129.038)" fill="#fff"/>
        <path id="Path_6131" data-name="Path 6131" d="M170.511,253.167l0-3.259-.743-2.33-3.476-3.924a1.961,1.961,0,0,0-1.2-.457c-5.542-.427-12.183-.124-13.179.374a35.519,35.519,0,0,0-3.985,3.238l-7.062,1.81-.659,1.843-.617.541.422,2.236h.5v.751h2.526a2.847,2.847,0,0,0,5.5-.75h14.5a2.847,2.847,0,0,0,5.5.75h1.525v-.75h.446c0-.02,0-.041,0-.061Zm-24.812.873a1.051,1.051,0,1,1,1.051-1.052A1.052,1.052,0,0,1,145.7,254.039Zm12.248-7.065h-7l1.985-2.481s3.224-.271,5.011-.3v2.779Zm1.8,0V244.2a36.119,36.119,0,0,1,4.9.208l2.1,2.571h-7Zm6.126,7.065a1.051,1.051,0,1,1,1.051-1.052A1.052,1.052,0,0,1,165.872,254.039Z" transform="translate(-126.823 -229.408)" fill="#fff"/>
      </g>
    </g>
  </g>
</svg>
