<svg xmlns="http://www.w3.org/2000/svg" width="85" height="85" viewBox="0 0 85 85">
  <g id="Group_10090" data-name="Group 10090" transform="translate(-193 -707)">
    <circle id="Ellipse_96" data-name="Ellipse 96" cx="42.5" cy="42.5" r="42.5" transform="translate(193 707)" fill="#2434cd"/>
    <path id="Subtraction_11" data-name="Subtraction 11" d="M85,43H0v-.033c0-.155,0-.31,0-.467A42.511,42.511,0,0,1,81.66,25.957,42.234,42.234,0,0,1,85,42.5c0,.167,0,.333,0,.5Z" transform="translate(193 707)" fill="#5e6ced"/>
    <circle id="Ellipse_98" data-name="Ellipse 98" cx="34" cy="34" r="34" transform="translate(202 716)" fill="#fff" opacity="0.152"/>
    <g id="presentation" transform="translate(220.96 735.628)">
      <path id="Path_6123" data-name="Path 6123" d="M208.745,0H195.563A2.762,2.762,0,0,0,192.8,2.762V9.255l2.152,1.07,1.075-2.151a2.637,2.637,0,1,1,4.717,2.359l-1.917,3.834a4,4,0,0,1-.137,1.514h1.265l-3.338,9.178a.879.879,0,1,0,1.652.6l3.556-9.778h.616l3.592,9.781a.879.879,0,0,0,1.65-.606l-3.37-9.175h4.428a2.762,2.762,0,0,0,2.762-2.762V2.762A2.762,2.762,0,0,0,208.745,0Zm-1.883,12.115h-3.944a.879.879,0,0,1,0-1.758h3.944a.879.879,0,0,1,0,1.758Zm0-3.3h-3.944a.879.879,0,0,1,0-1.758h3.944a.879.879,0,0,1,0,1.758Zm0-3.3h-9.415a.879.879,0,0,1,0-1.758h9.415a.879.879,0,0,1,0,1.758Zm0,0" transform="translate(-181.502)" fill="#fff"/>
      <path id="Path_6124" data-name="Path 6124" d="M15.466,43.746a2.273,2.273,0,0,0,.024-1.4l2.182-4.363A.879.879,0,0,0,16.1,37.2l-1.861,3.721-4.163-2.071a7.539,7.539,0,0,0-3.712-1.194H5.587a3.829,3.829,0,1,0-2.788-1.2,3.819,3.819,0,0,0,2.788,1.2,5.615,5.615,0,0,0-3.949,1.635A5.542,5.542,0,0,0,0,43.244v2.825a2.767,2.767,0,0,0,1.883,2.619V53.6a.879.879,0,0,0,.879.879H8.411A.879.879,0,0,0,9.29,53.6V43.725L12.1,45.132a2.408,2.408,0,0,0,3.358-1.375Zm0,0" transform="translate(0 -28.242)" fill="#fff"/>
    </g>
  </g>
</svg>
