<svg xmlns="http://www.w3.org/2000/svg" width="85" height="85" viewBox="0 0 85 85">
  <g id="Group_10088" data-name="Group 10088" transform="translate(-318 -707)">
    <circle id="Ellipse_99" data-name="Ellipse 99" cx="42.5" cy="42.5" r="42.5" transform="translate(318 707)" fill="#f9b800"/>
    <path id="Subtraction_12" data-name="Subtraction 12" d="M85,43H0v-.033c0-.155,0-.31,0-.467A42.511,42.511,0,0,1,81.66,25.957,42.234,42.234,0,0,1,85,42.5c0,.167,0,.333,0,.5Z" transform="translate(318 707)" fill="#ffc400"/>
    <circle id="Ellipse_101" data-name="Ellipse 101" cx="34" cy="34" r="34" transform="translate(327 716)" fill="#fff" opacity="0.152"/>
    <g id="restaurant-cutlery-circular-symbol-of-a-spoon-and-a-fork-in-a-circle" transform="translate(342 731.5)">
      <g id="Group_10064" data-name="Group 10064">
        <path id="Path_6132" data-name="Path 6132" d="M45.072,29.813A15.236,15.236,0,0,0,38.51,58.8l.477-9.221s-.9-.295-1.094-.39c-1.9-.839-3.287-3.308-3.287-6.513,0-3.5,2.712-6.509,5.334-6.534h.01c2.623.025,5.335,3.037,5.335,6.534,0,3.2-1.385,5.673-3.285,6.513-.015.007-1.1.4-1.1.4l.533,10.252a14.945,14.945,0,0,0,8.491-.343l.472-9.137a4.9,4.9,0,0,1-2.971-2.06c-.824-1.235.634-12.162.634-12.162h.949V46.4h.942V36.146h1.031V46.4h.938V36.146h1.069V46.4h.941V36.146h.728s1.459,10.927.633,12.162a4.912,4.912,0,0,1-2.939,2.054l-.042.015.41,7.859a15.237,15.237,0,0,0-7.645-28.424Z" transform="translate(-26.994 -26.982)" fill="#fff"/>
        <path id="Path_6133" data-name="Path 6133" d="M92,142.466a4.383,4.383,0,0,1,.131-.437.2.2,0,0,0-.111-.222.182.182,0,0,0-.239.052s-.1.166-.255.412a4.417,4.417,0,0,0-.429.969,8.015,8.015,0,0,0-.294,1.407,6.711,6.711,0,0,0-.022.815,3.86,3.86,0,0,0,.156.864,5.6,5.6,0,0,0,1.363,2.489,4.691,4.691,0,0,0,.729.59l.069.049c.042.028.082.053.122.076a1.4,1.4,0,0,0,.294.121.176.176,0,0,0,.2-.084.179.179,0,0,0-.059-.212,1.907,1.907,0,0,1-.217-.237,4.307,4.307,0,0,1-.279-.383c-.074-.108-.162-.231-.244-.35a12.338,12.338,0,0,1-.963-2.368,3.15,3.15,0,0,1-.135-.652,6.655,6.655,0,0,1-.038-.7,9.208,9.208,0,0,1,.057-1.294A5.049,5.049,0,0,1,92,142.466Z" transform="translate(-82.161 -128.319)" fill="#fff"/>
        <path id="Path_6134" data-name="Path 6134" d="M18.078,0A18.077,18.077,0,1,0,36.155,18.077,18.1,18.1,0,0,0,18.078,0Zm0,34.806a16.73,16.73,0,1,1,16.73-16.729A16.749,16.749,0,0,1,18.078,34.806Z" fill="#fff"/>
      </g>
    </g>
  </g>
</svg>
