<svg xmlns="http://www.w3.org/2000/svg" width="85" height="85" viewBox="0 0 85 85">
  <g id="Group_10087" data-name="Group 10087" transform="translate(-444 -707)">
    <circle id="Ellipse_102" data-name="Ellipse 102" cx="42.5" cy="42.5" r="42.5" transform="translate(444 707)" fill="#ff8b23"/>
    <path id="Subtraction_13" data-name="Subtraction 13" d="M85,43H0v-.033c0-.155,0-.31,0-.467A42.511,42.511,0,0,1,81.66,25.957,42.234,42.234,0,0,1,85,42.5c0,.167,0,.333,0,.5Z" transform="translate(444 707)" fill="#ff9c27"/>
    <circle id="Ellipse_104" data-name="Ellipse 104" cx="34" cy="34" r="34" transform="translate(453 716)" fill="#fff" opacity="0.152"/>
    <g id="history" transform="translate(470.573 730.627)">
      <path id="Path_6120" data-name="Path 6120" d="M33.293,365.4l-3.521-4.581a.652.652,0,0,0-.453-.252,15.292,15.292,0,0,1-4.69-1.152,7.865,7.865,0,0,0-3.054-.733,5.539,5.539,0,0,0-4.207,2.1v-.024c.532-1.227,1.951-3.164,4.155-3.164a6.557,6.557,0,0,1,2.542.634,16.327,16.327,0,0,0,2.9.91.653.653,0,1,0,.269-1.278,14.989,14.989,0,0,1-2.688-.846,7.786,7.786,0,0,0-3.024-.726,5.846,5.846,0,0,0-4.808,2.938,5.846,5.846,0,0,0-4.808-2.938,7.784,7.784,0,0,0-3.025.727,15.121,15.121,0,0,1-4.636,1.139.653.653,0,1,0,.129,1.3,16.484,16.484,0,0,0,4.99-1.225,6.554,6.554,0,0,1,2.542-.634c2.2,0,3.623,1.937,4.155,3.164v.024a5.54,5.54,0,0,0-4.207-2.1,7.866,7.866,0,0,0-3.055.734,15.29,15.29,0,0,1-4.689,1.152.653.653,0,0,0-.453.252L.136,365.4a.653.653,0,0,0,.517,1.051H32.775a.653.653,0,0,0,.517-1.051Zm-11.718-5.413a6.631,6.631,0,0,1,2.572.641,16.508,16.508,0,0,0,4.76,1.208l2.536,3.3a19.842,19.842,0,0,1-7.832-1.474,5.287,5.287,0,0,0-2.036-.536,2.7,2.7,0,0,0-2.376,1.683l-.009.019-.149.316H17.368v-1.954C17.906,361.95,19.342,359.988,21.575,359.988ZM4.522,361.837a16.516,16.516,0,0,0,4.761-1.208,6.63,6.63,0,0,1,2.571-.641c2.233,0,3.669,1.962,4.207,3.2v1.954H14.389l-.148-.316-.009-.019a2.7,2.7,0,0,0-2.376-1.683,5.287,5.287,0,0,0-2.036.536,19.843,19.843,0,0,1-7.832,1.474Zm5.779,3.039a4.315,4.315,0,0,1,1.553-.443,1.325,1.325,0,0,1,1.08.713H9.61C9.858,365.052,10.087,364.961,10.3,364.876Zm10.194.27a1.324,1.324,0,0,1,1.08-.713,4.312,4.312,0,0,1,1.554.444c.214.085.442.176.691.269Zm0,0" transform="translate(-0.001 -333.024)" fill="#fff"/>
      <path id="Path_6121" data-name="Path 6121" d="M436.227,386.073l.024,0c.022,0,.043,0,.065,0a.653.653,0,0,0,.063-1.3l-.023,0a.653.653,0,0,0-.128,1.3Zm0,0" transform="translate(-407.196 -359.65)" fill="#fff"/>
      <path id="Path_6122" data-name="Path 6122" d="M212.907,16.065a.653.653,0,0,0-.59.75,3.861,3.861,0,0,0,2.578,3.38q-.047.37-.086.742l-.348,3.315a.653.653,0,0,0,.581.717.628.628,0,0,0,.069,0,.653.653,0,0,0,.649-.585l.348-3.315q.038-.362.084-.72c3.037-.037,4.891-1.974,5.819-6.068.1-.455.229-.986.373-1.577a.652.652,0,0,0-.258-.688l.257-.147a.651.651,0,0,0,.309-.408C223.832,6.924,225.5.889,225.518.829A.653.653,0,0,0,224.852,0c-.221.012-5.466.391-9.777,7.406-.054.087-.106.173-.157.26a.654.654,0,0,0-.085.44l.327,2.013h-1.109a.653.653,0,0,0-.6.4,14.225,14.225,0,0,0-1.194,4.571.653.653,0,0,0,.185.5Zm8.585-5.189-1.744,1a.653.653,0,0,0,.28,1.218l.9.061c-.072.3-.137.585-.2.843-.942,4.158-2.683,4.979-4.354,5.048a33.339,33.339,0,0,1,7.091-15.686C222.9,5.458,222.126,8.366,221.492,10.875Zm-7.005.551h1.44a.653.653,0,0,0,.644-.758l-.411-2.534.027-.043a15.521,15.521,0,0,1,5.869-5.824,10.484,10.484,0,0,1,1.02-.468,34.891,34.891,0,0,0-7.988,17.077,2.374,2.374,0,0,1-1.3-1.51h.668a.653.653,0,0,0,.466-1.11l-1.341-1.37A12.87,12.87,0,0,1,214.487,11.427Zm0,0" transform="translate(-198.397 -0.001)" fill="#fff"/>
    </g>
  </g>
</svg>
