<svg xmlns="http://www.w3.org/2000/svg" width="41" height="41" viewBox="0 0 41 41">
  <g id="Group_10055" data-name="Group 10055" transform="translate(-153 -1361)">
    <path id="Icon_feather-message-circle" data-name="Icon feather-message-circle" d="M42.5,22.444a17.691,17.691,0,0,1-1.9,8.022,17.944,17.944,0,0,1-16.044,9.922,17.691,17.691,0,0,1-8.022-1.9L4.5,42.5,8.511,30.467a17.691,17.691,0,0,1-1.9-8.022A17.944,17.944,0,0,1,16.533,6.4a17.691,17.691,0,0,1,8.022-1.9h1.056A17.9,17.9,0,0,1,42.5,21.389Z" transform="translate(150 1358)" fill="none" stroke="#707070" stroke-linecap="round" stroke-linejoin="round" stroke-width="3"/>
    <g id="Group_10054" data-name="Group 10054" transform="translate(1 1)">
      <circle id="Ellipse_108" data-name="Ellipse 108" cx="2.5" cy="2.5" r="2.5" transform="translate(162 1378)" fill="#707070"/>
      <circle id="Ellipse_110" data-name="Ellipse 110" cx="2.5" cy="2.5" r="2.5" transform="translate(180 1378)" fill="#707070"/>
      <circle id="Ellipse_109" data-name="Ellipse 109" cx="2.5" cy="2.5" r="2.5" transform="translate(171 1378)" fill="#707070"/>
    </g>
  </g>
</svg>
