<svg xmlns="http://www.w3.org/2000/svg" width="44" height="44" viewBox="0 0 44 44">
  <g id="Group_10057" data-name="Group 10057" transform="translate(-7773 -1580)">
    <g id="user_1_" data-name="user(1)" transform="translate(7781.943 1590.596)">
      <path id="Path_6115" data-name="Path 6115" d="M94.6,15.127a7.319,7.319,0,0,0,5.348-2.216,7.319,7.319,0,0,0,2.216-5.348,7.32,7.32,0,0,0-2.216-5.348,7.562,7.562,0,0,0-10.7,0,7.319,7.319,0,0,0-2.216,5.348,7.319,7.319,0,0,0,2.216,5.348A7.321,7.321,0,0,0,94.6,15.127ZM90.549,3.517a5.722,5.722,0,0,1,8.093,0,5.468,5.468,0,0,1,1.677,4.046,5.468,5.468,0,0,1-1.677,4.047,5.721,5.721,0,0,1-8.093,0,5.467,5.467,0,0,1-1.677-4.047A5.468,5.468,0,0,1,90.549,3.517Zm0,0" transform="translate(-81.693)" fill="#707070"/>
      <path id="Path_6116" data-name="Path 6116" d="M26.137,256.3a18.683,18.683,0,0,0-.254-1.984,15.634,15.634,0,0,0-.488-2,9.855,9.855,0,0,0-.82-1.861,7.014,7.014,0,0,0-1.237-1.612,5.453,5.453,0,0,0-1.777-1.116,6.14,6.14,0,0,0-2.268-.41,2.3,2.3,0,0,0-1.229.521c-.368.24-.8.518-1.281.826a7.338,7.338,0,0,1-1.657.73,6.435,6.435,0,0,1-4.053,0,7.316,7.316,0,0,1-1.656-.73c-.477-.3-.908-.582-1.282-.826a2.3,2.3,0,0,0-1.229-.521,6.132,6.132,0,0,0-2.268.411,5.448,5.448,0,0,0-1.777,1.116,7.016,7.016,0,0,0-1.236,1.611,9.874,9.874,0,0,0-.82,1.861,15.672,15.672,0,0,0-.488,1.995A18.554,18.554,0,0,0,.063,256.3C.021,256.9,0,257.52,0,258.15A5.215,5.215,0,0,0,1.549,262.1a5.575,5.575,0,0,0,3.991,1.456H20.661a5.575,5.575,0,0,0,3.991-1.456A5.213,5.213,0,0,0,26.2,258.15C26.2,257.517,26.179,256.893,26.137,256.3Zm-2.754,4.467a3.753,3.753,0,0,1-2.722.949H5.54a3.754,3.754,0,0,1-2.722-.948,3.405,3.405,0,0,1-.977-2.612c0-.588.019-1.169.058-1.727a16.737,16.737,0,0,1,.23-1.787,13.822,13.822,0,0,1,.429-1.759,8.038,8.038,0,0,1,.668-1.513,5.2,5.2,0,0,1,.909-1.191,3.617,3.617,0,0,1,1.182-.735,4.235,4.235,0,0,1,1.449-.28c.064.034.179.1.365.221.378.247.814.528,1.3.836a9.118,9.118,0,0,0,2.08.929,8.273,8.273,0,0,0,5.185,0,9.129,9.129,0,0,0,2.081-.93c.493-.315.917-.588,1.3-.835.186-.121.3-.187.365-.221a4.238,4.238,0,0,1,1.45.28,3.622,3.622,0,0,1,1.182.735,5.185,5.185,0,0,1,.909,1.191,8.011,8.011,0,0,1,.668,1.513,13.79,13.79,0,0,1,.429,1.759,16.877,16.877,0,0,1,.23,1.788h0c.039.556.059,1.136.059,1.727A3.4,3.4,0,0,1,23.383,260.762Zm0,0" transform="translate(0 -232.147)" fill="#707070"/>
    </g>
    <g id="Ellipse_111" data-name="Ellipse 111" transform="translate(7773 1580)" fill="none" stroke="#707070" stroke-width="3">
      <circle cx="22" cy="22" r="22" stroke="none"/>
      <circle cx="22" cy="22" r="20.5" fill="none"/>
    </g>
  </g>
</svg>
