<svg xmlns="http://www.w3.org/2000/svg" width="459.587" height="405.855" viewBox="0 0 459.587 405.855">
  <g id="Group_10080" data-name="Group 10080" transform="translate(-130.663 -455.255)">
    <g id="Group_9953" data-name="Group 9953" transform="translate(0 60)">
      <path id="Path_1" data-name="Path 1" d="M444.2,396.219a203.763,203.763,0,0,0,14.443-75.593c0-112.839-91.473-204.312-204.312-204.312S50.022,207.787,50.022,320.626a203.763,203.763,0,0,0,14.444,75.593Z" transform="translate(108 353)" fill="#ecf4ea"/>
      <ellipse id="Ellipse_1" data-name="Ellipse 1" cx="228.195" cy="13.583" rx="228.195" ry="13.583" transform="translate(133.859 773.943)" fill="#ecf4ea"/>
      <g id="Group_2" data-name="Group 2" transform="translate(108 353)">
        <g id="Group_1" data-name="Group 1">
          <path id="Path_2" data-name="Path 2" d="M320.557,74.7s2.919-18.747,11.139-18.017c2.275.2,3.823,2.508,4.836,4.984a1.726,1.726,0,0,0,3.262-.167c2.174-7.618,6.623-19.245,13.516-19.245,7.13,0,7.365,13.3,6.848,21.4a1.2,1.2,0,0,0,2.191.75c1.881-2.767,4.625-5.424,7.963-4.654,6.5,1.5,4.75,14.944,4.75,14.944Z" fill="#52bd94"/>
          <path id="Path_3" data-name="Path 3" d="M22.663,192.73s2.919-18.747,11.139-18.017c2.275.2,3.822,2.509,4.836,4.984a1.725,1.725,0,0,0,3.261-.167c2.175-7.618,6.624-19.245,13.517-19.245,7.129,0,7.365,13.3,6.848,21.4a1.2,1.2,0,0,0,2.191.751c1.88-2.768,4.625-5.425,7.962-4.655,6.5,1.5,4.751,14.944,4.751,14.944Z" fill="#52bd94"/>
          <path id="Path_4" data-name="Path 4" d="M416.734,190.563s2.919-18.747,11.139-18.017c2.275.2,3.822,2.508,4.836,4.984a1.725,1.725,0,0,0,3.261-.167c2.175-7.618,6.624-19.246,13.517-19.246,7.129,0,7.365,13.3,6.848,21.406a1.2,1.2,0,0,0,2.191.751c1.88-2.768,4.625-5.425,7.962-4.655,6.5,1.5,4.751,14.944,4.751,14.944Z" fill="#52bd94"/>
          <path id="Path_5" data-name="Path 5" d="M107.36,93.59s2.919-18.748,11.139-18.017c2.275.2,3.822,2.508,4.836,4.983a1.725,1.725,0,0,0,3.261-.166c2.175-7.619,6.624-19.246,13.517-19.246,7.129,0,7.365,13.3,6.848,21.406a1.2,1.2,0,0,0,2.191.75c1.881-2.768,4.625-5.424,7.962-4.654,6.5,1.5,4.751,14.944,4.751,14.944Z" fill="#52bd94"/>
        </g>
      </g>
      <g id="Group_7" data-name="Group 7" transform="translate(108 353)">
        <path id="Path_6" data-name="Path 6" d="M216.732,157.049s78.277-6.873,144.214.869c0,0-27.958,13.892-68.473,13.892C233.1,171.81,216.732,157.049,216.732,157.049Z" fill="#9b948d"/>
        <path id="Path_7" data-name="Path 7" d="M385.928,337.866c0,31.031-10.7,51.778-24.983,65.585l-.022.022c-24.585,23.756-59.753,26.965-69.158,26.687-1.549-.045-3.1-.072-4.648-.067-13.907.038-87.454-3.5-94.8-82.233-8.258-88.523,76.5-141.087,76.5-141.087h41.112S385.928,248.851,385.928,337.866Z" fill="#e9e1d5"/>
        <path id="Path_8" data-name="Path 8" d="M360.923,403.473c-24.585,23.756-59.753,26.965-69.158,26.687-1.549-.045-3.1-.072-4.648-.067-13.907.038-87.454-3.5-94.8-82.233-8.258-88.523,76.5-141.087,76.5-141.087h19.75S222.994,265.5,233.427,334.537C243.854,403.548,334.359,429,360.923,403.473Z" fill="#cfc5b8"/>
        <path id="Path_9" data-name="Path 9" d="M360.946,157.917l-29.275,29.275-.012.015-3.113,3.11-10.723,10.724h-57.1l-43.993-43.993c12.739,2.154,25.45,3.967,38.127,5.274q4.248.439,8.492.8C296.139,165.922,328.694,165.108,360.946,157.917Z" fill="#e9e1d5"/>
        <path id="Path_10" data-name="Path 10" d="M285.111,201.041H260.725l-43.993-43.993c12.739,2.154,25.45,3.967,38.127,5.274q4.248.439,8.492.8v0s-4.2,7.893,9.587,18.949A33.421,33.421,0,0,1,285.111,201.041Z" fill="#cfc5b8"/>
        <g id="Group_3" data-name="Group 3">
          <path id="Path_11" data-name="Path 11" d="M301.834,356.106l.012,13.134-16.684.015-.011-12.542c-11.834-.7-23.314-3.884-30.417-8.256l8.974-20.36a56.814,56.814,0,0,0,27.34,7.548c7.928-.007,10.766-1.666,10.763-4.506-.009-10.412-45.793-1.97-45.821-32.853-.012-13.371,9.681-24.62,29.084-27.359l-.012-12.9,16.684-.015.011,12.661c8.757.821,17.279,3.061,24.026,6.841L317.4,297.758c-8.168-4.135-15.861-6.139-23.079-6.132-8.164.007-10.765,2.376-10.762,5.215.008,9.94,45.793,1.616,45.821,32.144C329.391,341.764,320.172,352.895,301.834,356.106Z" fill="#9b948d"/>
        </g>
        <g id="Group_6" data-name="Group 6">
          <g id="Group_4" data-name="Group 4">
            <path id="Path_12" data-name="Path 12" d="M265.379,206.774l-.02.077-.427,1.67-1.058,4.128-1.149,4.481-5.356,20.914a3.228,3.228,0,1,1-6.249-1.618l5.053-19.3,2.256-8.609.458-1.747Z" fill="#133248"/>
            <path id="Path_13" data-name="Path 13" d="M272.937,237.764a3.226,3.226,0,0,1-6.436.331l-2.164-20.965-.463-4.481-.425-4.128-.1-.917,2.006-.753,4.072-1.529.347,3.2.938,8.609,2.2,20.284A3.154,3.154,0,0,1,272.937,237.764Z" fill="#133248"/>
            <path id="Path_14" data-name="Path 14" d="M270.716,217.13h-6.378l-.463-4.482-1.149,4.482h-6.552l2.255-8.609h11.35Z" fill="#133248" opacity="0.5" style="mix-blend-mode: multiply;isolation: isolate"/>
          </g>
          <g id="Group_5" data-name="Group 5">
            <path id="Path_15" data-name="Path 15" d="M322.268,205.422a4.382,4.382,0,0,1-4.382,4.382H259.257a4.379,4.379,0,0,1-4.381-4.382c0-.033,0-.067,0-.1a4.38,4.38,0,0,1,4.379-4.281h58.629a4.375,4.375,0,0,1,4.379,4.281C322.268,205.355,322.268,205.389,322.268,205.422Z" fill="#133248"/>
            <path id="Path_16" data-name="Path 16" d="M322.268,205.422a4.382,4.382,0,0,1-4.382,4.382H259.257a4.379,4.379,0,0,1-4.381-4.382c0-.033,0-.067,0-.1h67.387C322.268,205.355,322.268,205.389,322.268,205.422Z" fill="#133248" opacity="0.5" style="mix-blend-mode: multiply;isolation: isolate"/>
            <path id="Path_17" data-name="Path 17" d="M325.011,198.115a2.928,2.928,0,0,1-2.926,2.926H256.027a2.925,2.925,0,1,1,0-5.851h66.058A2.926,2.926,0,0,1,325.011,198.115Z" fill="#133248"/>
            <path id="Path_18" data-name="Path 18" d="M325.011,198.115a2.928,2.928,0,0,1-2.926,2.926H256.027a2.925,2.925,0,0,1-2.926-2.926Z" fill="#133248" opacity="0.5" style="mix-blend-mode: multiply;isolation: isolate"/>
          </g>
        </g>
      </g>
      <g id="Group_83" data-name="Group 83" transform="translate(108 353)">
        <g id="Group_17" data-name="Group 17">
          <g id="Group_10" data-name="Group 10">
            <path id="Path_19" data-name="Path 19" d="M239.04,420.346c0,.058,0,.114,0,.171,0,2.1-1.118,4.114-3.181,5.995a18.429,18.429,0,0,1-1.677,1.354,34.065,34.065,0,0,1-6.352,3.491q-.813.353-1.677.691c-1.939.764-4.063,1.478-6.353,2.138-.549.158-1.107.315-1.677.466q-3.009.807-6.354,1.486-.829.17-1.677.329-3.06.579-6.353,1.046c-.554.08-1.112.155-1.677.23q-3.093.4-6.352.7-.836.076-1.677.145-3.114.255-6.353.407-.834.039-1.676.071-3.13.117-6.353.138c-.372,0-.748,0-1.122,0-.185,0-.371,0-.555,0q-3.221-.008-6.354-.118c-.563-.019-1.121-.042-1.677-.066q-2.384-.105-4.706-.266-.829-.059-1.647-.122-.843-.066-1.677-.141-3.253-.285-6.352-.679c-.564-.071-1.123-.144-1.677-.223q-1.971-.271-3.866-.584-1.26-.21-2.487-.435-.846-.157-1.677-.322-3.333-.662-6.354-1.45c-.4-.1-.79-.209-1.179-.315-.167-.045-.333-.092-.5-.139-.908-.254-1.794-.519-2.649-.79q-1.945-.619-3.7-1.288-.862-.332-1.677-.67a38.454,38.454,0,0,1-5.634-2.868c-.246-.155-.487-.312-.718-.47q-.438-.3-.839-.6c-.293-.218-.571-.439-.838-.662-2.423-2.019-3.747-4.206-3.747-6.486,0-.16.008-.32.023-.48l0-12.917,3.719-.005,1.677,0,6.352-.008,1.677,0,4.958-.007,1.4,0,1.677,0,6.354-.009,1.677,0,6.353-.01,1.677,0,6.352-.01,1.677,0,6.353-.009,1.677,0,6.354-.009,1.677,0,6.353-.009,1.676,0,6.353-.01,1.677,0,6.352-.01,1.677,0,6.353-.009,1.677,0,6.354-.009,1.677,0h.414l5.939-.009,1.677,0,6.352-.01,1.677,0,3.159-.005.022,13.4Z" fill="#f7a219"/>
            <g id="Group_9" data-name="Group 9">
              <g id="Group_8" data-name="Group 8">
                <path id="Path_20" data-name="Path 20" d="M123.443,407.111V428.26q-.438-.3-.839-.6c-.293-.218-.571-.439-.838-.662V407.115Z" fill="#f37e00"/>
                <path id="Path_21" data-name="Path 21" d="M131.472,407.1v25.169q-.862-.332-1.677-.67V407.1Z" fill="#f37e00"/>
                <path id="Path_22" data-name="Path 22" d="M139.5,407.087V434.8c-.4-.1-.79-.209-1.179-.315-.167-.045-.333-.092-.5-.139V407.09Z" fill="#f37e00"/>
                <path id="Path_23" data-name="Path 23" d="M147.533,407.076v29.5q-.846-.157-1.677-.322V407.078Z" fill="#f37e00"/>
                <path id="Path_24" data-name="Path 24" d="M155.563,407.064v30.75c-.564-.071-1.123-.144-1.677-.223V407.066Z" fill="#f37e00"/>
                <path id="Path_25" data-name="Path 25" d="M163.592,407.052v31.582q-.843-.066-1.677-.141V407.054Z" fill="#f37e00"/>
                <path id="Path_26" data-name="Path 26" d="M171.622,407.04v32.048c-.563-.019-1.121-.042-1.677-.066V407.043Z" fill="#f37e00"/>
                <path id="Path_27" data-name="Path 27" d="M179.653,407.028V439.2c-.372,0-.748,0-1.122,0-.185,0-.371,0-.555,0V407.031Z" fill="#f37e00"/>
                <path id="Path_28" data-name="Path 28" d="M187.682,407.017V439q-.834.039-1.676.071V407.019Z" fill="#f37e00"/>
                <path id="Path_29" data-name="Path 29" d="M195.712,407.005v31.439q-.836.076-1.677.145V407.007Z" fill="#f37e00"/>
                <path id="Path_30" data-name="Path 30" d="M203.741,406.993v30.52c-.554.08-1.112.155-1.677.23V406.995Z" fill="#f37e00"/>
                <path id="Path_31" data-name="Path 31" d="M211.771,406.981v29.157q-.829.17-1.677.329V406.984Z" fill="#f37e00"/>
                <path id="Path_32" data-name="Path 32" d="M219.8,406.969v27.217c-.549.158-1.107.315-1.677.466v-27.68Z" fill="#f37e00"/>
                <path id="Path_33" data-name="Path 33" d="M227.832,406.958v24.4q-.813.353-1.677.691V406.96Z" fill="#f37e00"/>
                <path id="Path_34" data-name="Path 34" d="M235.861,406.946v19.566a18.429,18.429,0,0,1-1.677,1.354V406.948Z" fill="#f37e00"/>
              </g>
            </g>
          </g>
          <g id="Group_16" data-name="Group 16">
            <g id="Group_15" data-name="Group 15">
              <path id="Path_35" data-name="Path 35" d="M239.028,407.1c0,9.488-27.079,17.18-60.494,17.18-4.565,0-9.012-.143-13.287-.416-5.378-.342-10.484-.888-15.215-1.606-4.223-.642-8.145-1.422-11.693-2.319q-1.628-.411-3.147-.855a50.594,50.594,0,0,1-11.011-4.435q-.833-.482-1.557-.979c-2.954-2.024-4.584-4.243-4.584-6.57a4.02,4.02,0,0,1,.049-.637c1.173-9.193,27.788-16.543,60.445-16.543a199.933,199.933,0,0,1,22.721,1.253q2.032.234,3.99.509a122.527,122.527,0,0,1,15.4,3.084q1.492.411,2.882.849A50.24,50.24,0,0,1,232,399.061a18,18,0,0,1,5.439,4.119,6.5,6.5,0,0,1,1.541,3.287A4.017,4.017,0,0,1,239.028,407.1Z" fill="#fdd462"/>
              <path id="Path_36" data-name="Path 36" d="M237.44,403.18l-72.193,20.688c-5.378-.342-10.484-.888-15.215-1.606L232,399.061A18,18,0,0,1,237.44,403.18Z" fill="#fff" opacity="0.3"/>
              <path id="Path_37" data-name="Path 37" d="M205.245,391.686l-81.064,22.967q-.833-.482-1.557-.979l78.631-22.5Q203.287,391.411,205.245,391.686Z" fill="#fff" opacity="0.3"/>
              <path id="Path_38" data-name="Path 38" d="M223.525,395.619l-85.186,24.324q-1.628-.411-3.147-.855l85.451-24.318Q222.135,395.181,223.525,395.619Z" fill="#fff" opacity="0.3"/>
              <path id="Path_39" data-name="Path 39" d="M226.886,407.105a4.92,4.92,0,0,1-.047.63c-1.167,7.281-22.384,13.1-48.3,13.1s-47.136-5.82-48.3-13.1a4.92,4.92,0,0,1-.047-.63c0-7.572,21.689-13.732,48.35-13.732S226.886,399.533,226.886,407.105Z" fill="#f37e00"/>
              <path id="Path_40" data-name="Path 40" d="M226.839,407.735c-1.167,7.281-22.384,13.1-48.3,13.1-.58,0-1.153,0-1.727-.009a157.919,157.919,0,0,1-16.407-.993,108.581,108.581,0,0,1-13.83-2.435q-1.548-.388-2.982-.812a34.219,34.219,0,0,1-10.112-4.505,11.811,11.811,0,0,1-1.471-1.241,5.782,5.782,0,0,1-1.774-3.106c1.167-7.28,22.384-13.1,48.3-13.1,3.279,0,6.483.094,9.587.272,1.578.09,3.137.2,4.661.337a117.8,117.8,0,0,1,16.8,2.6c1.052.251,2.071.516,3.049.793a41.549,41.549,0,0,1,9.357,3.706c2.321,1.347,3.886,2.814,4.547,4.36A4.227,4.227,0,0,1,226.839,407.735Z" fill="#f7a219"/>
              <path id="Path_41" data-name="Path 41" d="M226.535,406.7l-49.727,14.123a157.919,157.919,0,0,1-16.407-.993l61.587-17.49C224.309,403.691,225.874,405.158,226.535,406.7Z" fill="#fbe6a1" opacity="0.2"/>
              <path id="Path_42" data-name="Path 42" d="M192.783,395.241l-59.306,16.841a11.811,11.811,0,0,1-1.471-1.241L188.122,394.9C189.7,394.994,191.259,395.107,192.783,395.241Z" fill="#fbe6a1" opacity="0.2"/>
              <path id="Path_43" data-name="Path 43" d="M212.631,398.638,146.571,417.4q-1.548-.388-2.982-.812l65.993-18.742C210.634,398.1,211.653,398.361,212.631,398.638Z" fill="#fbe6a1" opacity="0.2"/>
              <g id="Group_14" data-name="Group 14">
                <g id="Group_12" data-name="Group 12">
                  <g id="Group_11" data-name="Group 11">
                    <path id="Path_44" data-name="Path 44" d="M185.259,414.895v2.281h-10.2V415a133.393,133.393,0,0,1-18.6-1.439l5.5-3.535a108.8,108.8,0,0,0,16.718,1.316c4.849,0,6.586-.288,6.586-.782,0-1.808-28.008-.349-28.008-5.713,0-2.323,5.935-4.275,17.8-4.748v-2.24h10.2v2.2a118.057,118.057,0,0,1,14.691,1.192l-5.138,3.515a99.054,99.054,0,0,0-14.113-1.069c-4.993,0-6.585.411-6.585.9,0,1.727,28.007.288,28.007,5.591C202.121,412.408,196.476,414.34,185.259,414.895Z" fill="#f37e00"/>
                  </g>
                </g>
                <g id="Group_13" data-name="Group 13">
                  <path id="Path_45" data-name="Path 45" d="M184.962,414.136v2.281h-10.2v-2.178a133.411,133.411,0,0,1-18.6-1.439l5.5-3.535a108.786,108.786,0,0,0,16.717,1.316c4.849,0,6.586-.288,6.586-.781,0-1.809-28.008-.35-28.008-5.714,0-2.323,5.935-4.275,17.8-4.748V397.1h10.2v2.2a118.051,118.051,0,0,1,14.691,1.192L194.515,404a99.054,99.054,0,0,0-14.113-1.069c-4.993,0-6.585.411-6.585.9,0,1.727,28.007.288,28.007,5.591C201.824,411.649,196.179,413.581,184.962,414.136Z" fill="#fdd462"/>
                </g>
              </g>
            </g>
          </g>
        </g>
        <g id="Group_27" data-name="Group 27">
          <g id="Group_20" data-name="Group 20">
            <path id="Path_46" data-name="Path 46" d="M242.842,399.154c0,.057,0,.113,0,.17,0,2.1-1.119,4.114-3.181,6a18.782,18.782,0,0,1-1.677,1.354,34.068,34.068,0,0,1-6.352,3.491q-.813.352-1.677.69c-1.939.765-4.063,1.478-6.353,2.138-.549.158-1.107.315-1.677.466q-3.009.807-6.354,1.486-.829.17-1.677.329-3.06.581-6.353,1.046c-.554.08-1.113.155-1.677.23q-3.093.4-6.352.7-.836.076-1.677.145-3.114.255-6.353.407-.834.039-1.677.071-3.129.119-6.352.138c-.372,0-.748,0-1.123,0h-.554q-3.221-.009-6.355-.119c-.562-.019-1.12-.042-1.677-.066q-2.382-.105-4.705-.266-.829-.059-1.647-.122c-.562-.044-1.12-.09-1.677-.141q-3.253-.285-6.352-.679c-.564-.071-1.123-.144-1.677-.223q-1.973-.27-3.866-.584-1.26-.209-2.487-.435-.846-.158-1.677-.322c-2.222-.441-4.345-.926-6.354-1.45-.4-.1-.79-.209-1.179-.315-.167-.045-.333-.092-.5-.139-.908-.254-1.794-.519-2.649-.79q-1.945-.619-3.7-1.288-.862-.332-1.677-.67a38.454,38.454,0,0,1-5.634-2.868c-.246-.155-.487-.312-.718-.47q-.438-.3-.839-.6c-.293-.218-.571-.439-.838-.662-2.424-2.018-3.747-4.206-3.747-6.486,0-.16.007-.32.022-.48l.006-12.917,3.719-.005,1.677,0,6.352-.008,1.677,0,4.958-.007h1.4l1.677,0,6.354-.009h1.677l6.353-.011,1.677,0,6.352-.01,1.677,0,6.352-.008,1.677,0,6.355-.009,1.677,0,6.352-.009h1.677l6.353-.011,1.677,0,6.352-.01,1.677,0,6.353-.009,1.677,0,6.354-.009,1.677,0h.414l5.939-.009,1.677,0,6.352-.01,1.677,0,3.158-.005.023,13.406Z" fill="#f7a219"/>
            <g id="Group_19" data-name="Group 19">
              <g id="Group_18" data-name="Group 18">
                <path id="Path_47" data-name="Path 47" d="M127.245,385.918v21.149q-.438-.3-.839-.6c-.293-.218-.571-.439-.838-.662V385.922Z" fill="#f37e00"/>
                <path id="Path_48" data-name="Path 48" d="M135.274,385.906v25.169q-.862-.332-1.677-.67V385.91Z" fill="#f37e00"/>
                <path id="Path_49" data-name="Path 49" d="M143.3,385.894v27.713c-.4-.1-.79-.209-1.179-.315-.167-.045-.333-.092-.5-.139V385.9Z" fill="#f37e00"/>
                <path id="Path_50" data-name="Path 50" d="M151.335,385.884v29.495q-.846-.158-1.677-.322V385.885Z" fill="#f37e00"/>
                <path id="Path_51" data-name="Path 51" d="M159.365,385.871v30.75c-.564-.071-1.123-.144-1.677-.223V385.873Z" fill="#f37e00"/>
                <path id="Path_52" data-name="Path 52" d="M167.394,385.859v31.582c-.562-.044-1.12-.09-1.677-.141V385.861Z" fill="#f37e00"/>
                <path id="Path_53" data-name="Path 53" d="M175.423,385.847v32.048c-.562-.019-1.12-.042-1.677-.066V385.851Z" fill="#f37e00"/>
                <path id="Path_54" data-name="Path 54" d="M183.455,385.835v32.177c-.372,0-.748,0-1.123,0h-.554V385.838Z" fill="#f37e00"/>
                <path id="Path_55" data-name="Path 55" d="M191.484,385.825V417.8q-.834.039-1.677.071V385.826Z" fill="#f37e00"/>
                <path id="Path_56" data-name="Path 56" d="M199.514,385.812v31.439q-.836.076-1.677.145V385.814Z" fill="#f37e00"/>
                <path id="Path_57" data-name="Path 57" d="M207.543,385.8v30.52c-.554.08-1.113.155-1.677.23V385.8Z" fill="#f37e00"/>
                <path id="Path_58" data-name="Path 58" d="M215.573,385.788v29.157q-.829.17-1.677.329V385.791Z" fill="#f37e00"/>
                <path id="Path_59" data-name="Path 59" d="M223.6,385.776v27.217c-.549.158-1.107.315-1.677.466v-27.68Z" fill="#f37e00"/>
                <path id="Path_60" data-name="Path 60" d="M231.634,385.765v24.4q-.813.352-1.677.69V385.767Z" fill="#f37e00"/>
                <path id="Path_61" data-name="Path 61" d="M239.663,385.753V405.32a18.782,18.782,0,0,1-1.677,1.354V385.755Z" fill="#f37e00"/>
              </g>
            </g>
          </g>
          <g id="Group_26" data-name="Group 26">
            <g id="Group_25" data-name="Group 25">
              <path id="Path_62" data-name="Path 62" d="M242.83,385.912c0,9.487-27.079,17.18-60.494,17.18-4.565,0-9.012-.144-13.288-.417-5.377-.341-10.483-.887-15.214-1.606-4.223-.642-8.145-1.422-11.694-2.319-1.084-.274-2.135-.559-3.146-.855a50.622,50.622,0,0,1-11.012-4.435c-.554-.321-1.075-.647-1.556-.979-2.954-2.023-4.584-4.243-4.584-6.569a4.024,4.024,0,0,1,.049-.638c1.173-9.193,27.788-16.543,60.445-16.543a199.933,199.933,0,0,1,22.721,1.253q2.032.234,3.99.509a122.558,122.558,0,0,1,15.4,3.084q1.492.411,2.881.85a50.138,50.138,0,0,1,8.477,3.441,18.016,18.016,0,0,1,5.439,4.119,6.5,6.5,0,0,1,1.541,3.287A4.021,4.021,0,0,1,242.83,385.912Z" fill="#fdd462"/>
              <path id="Path_63" data-name="Path 63" d="M241.242,381.987l-72.194,20.688c-5.377-.341-10.483-.887-15.214-1.606l81.969-23.2A18.016,18.016,0,0,1,241.242,381.987Z" fill="#fff" opacity="0.3"/>
              <path id="Path_64" data-name="Path 64" d="M209.047,370.493,127.982,393.46c-.554-.321-1.075-.647-1.556-.979l78.631-22.5Q207.09,370.218,209.047,370.493Z" fill="#fff" opacity="0.3"/>
              <path id="Path_65" data-name="Path 65" d="M227.326,374.427,142.14,398.75c-1.084-.274-2.135-.559-3.146-.855l85.451-24.318Q225.937,373.988,227.326,374.427Z" fill="#fff" opacity="0.3"/>
              <path id="Path_66" data-name="Path 66" d="M230.688,385.912a4.9,4.9,0,0,1-.048.63c-1.167,7.281-22.384,13.1-48.3,13.1s-47.136-5.82-48.3-13.1a4.907,4.907,0,0,1-.047-.63c0-7.572,21.689-13.731,48.35-13.731S230.688,378.34,230.688,385.912Z" fill="#f37e00"/>
              <path id="Path_67" data-name="Path 67" d="M230.64,386.542c-1.167,7.281-22.384,13.1-48.3,13.1-.58,0-1.153,0-1.727-.009a157.9,157.9,0,0,1-16.407-.993,108.545,108.545,0,0,1-13.83-2.435q-1.548-.387-2.982-.812a34.219,34.219,0,0,1-10.112-4.505,11.813,11.813,0,0,1-1.471-1.241,5.779,5.779,0,0,1-1.774-3.106c1.167-7.28,22.384-13.1,48.3-13.1,3.279,0,6.483.094,9.587.272,1.578.09,3.137.2,4.661.338a117.627,117.627,0,0,1,16.8,2.6c1.053.251,2.072.516,3.05.793a41.614,41.614,0,0,1,9.357,3.706c2.321,1.347,3.886,2.814,4.547,4.361A4.174,4.174,0,0,1,230.64,386.542Z" fill="#f7a219"/>
              <path id="Path_68" data-name="Path 68" d="M230.337,385.512,180.61,399.634a157.9,157.9,0,0,1-16.407-.993l61.587-17.49C228.111,382.5,229.676,383.965,230.337,385.512Z" fill="#fbe6a1" opacity="0.2"/>
              <path id="Path_69" data-name="Path 69" d="M196.585,374.049l-59.306,16.84a11.813,11.813,0,0,1-1.471-1.241l56.116-15.937C193.5,373.8,195.061,373.914,196.585,374.049Z" fill="#fbe6a1" opacity="0.2"/>
              <path id="Path_70" data-name="Path 70" d="M216.433,377.445l-66.06,18.761q-1.548-.387-2.982-.812l65.992-18.742C214.436,376.9,215.455,377.168,216.433,377.445Z" fill="#fbe6a1" opacity="0.2"/>
              <g id="Group_24" data-name="Group 24">
                <g id="Group_22" data-name="Group 22">
                  <g id="Group_21" data-name="Group 21">
                    <path id="Path_71" data-name="Path 71" d="M189.061,393.7v2.282H178.856V393.8a133.555,133.555,0,0,1-18.6-1.438l5.5-3.536a108.8,108.8,0,0,0,16.718,1.316c4.849,0,6.586-.288,6.586-.781,0-1.809-28.008-.35-28.008-5.714,0-2.323,5.935-4.275,17.8-4.748v-2.24h10.205v2.2a118.051,118.051,0,0,1,14.691,1.192l-5.138,3.515A99.054,99.054,0,0,0,184.5,382.5c-4.993,0-6.585.411-6.585.9,0,1.727,28.007.288,28.007,5.591C205.923,391.215,200.278,393.147,189.061,393.7Z" fill="#f37e00"/>
                  </g>
                </g>
                <g id="Group_23" data-name="Group 23">
                  <path id="Path_72" data-name="Path 72" d="M188.764,392.943v2.282h-10.2v-2.179a133.558,133.558,0,0,1-18.6-1.438l5.5-3.536a108.8,108.8,0,0,0,16.718,1.316c4.849,0,6.586-.288,6.586-.781,0-1.809-28.008-.35-28.008-5.714,0-2.323,5.935-4.275,17.8-4.748V375.9h10.2v2.2a118.245,118.245,0,0,1,14.691,1.192l-5.138,3.515a99.054,99.054,0,0,0-14.113-1.069c-4.993,0-6.585.411-6.585.9,0,1.727,28.007.288,28.007,5.591C205.626,390.456,199.981,392.388,188.764,392.943Z" fill="#fdd462"/>
                </g>
              </g>
            </g>
          </g>
        </g>
        <g id="Group_37" data-name="Group 37">
          <g id="Group_30" data-name="Group 30">
            <path id="Path_73" data-name="Path 73" d="M242.288,377.961c0,.057,0,.113,0,.17,0,2.1-1.119,4.115-3.181,6a18.742,18.742,0,0,1-1.677,1.354,34.108,34.108,0,0,1-6.353,3.491c-.541.235-1.1.464-1.677.691-1.938.764-4.063,1.477-6.352,2.137-.549.158-1.108.315-1.677.466-2.006.538-4.129,1.034-6.355,1.487q-.83.17-1.677.328-3.06.58-6.352,1.046c-.555.08-1.113.155-1.677.23q-3.095.4-6.353.7-.834.076-1.677.145-3.112.255-6.352.407c-.557.026-1.115.05-1.677.072q-3.131.117-6.353.137c-.372,0-.748,0-1.122,0h-.555q-3.221-.009-6.354-.119c-.562-.019-1.121-.042-1.677-.066q-2.384-.1-4.706-.266-.828-.057-1.647-.122-.843-.064-1.677-.141-3.254-.285-6.352-.678c-.564-.072-1.122-.145-1.677-.223q-1.971-.271-3.865-.585-1.262-.209-2.487-.435-.848-.158-1.677-.322-3.335-.66-6.355-1.45c-.4-.1-.789-.209-1.179-.315-.167-.045-.332-.092-.5-.139-.908-.254-1.793-.519-2.649-.79q-1.945-.62-3.7-1.288-.864-.331-1.677-.67a38.417,38.417,0,0,1-5.635-2.868c-.246-.155-.487-.312-.718-.47q-.437-.3-.838-.6c-.294-.218-.572-.439-.839-.661-2.423-2.019-3.747-4.207-3.747-6.487,0-.16.008-.32.023-.48l.006-12.917,3.718-.005,1.677,0,6.353-.009,1.677,0,4.957-.006,1.4,0,1.677,0,6.355-.008,1.677,0,6.352-.011h1.677l6.352-.011,1.677,0,6.353-.008,1.677,0,6.354-.008,1.677,0,6.353-.009h1.677l6.352-.011h1.677l6.353-.011,1.677,0,6.352-.008,1.677,0,6.355-.009,1.677,0h.413l5.939-.009h1.677l6.353-.011,1.677,0,3.158-.005.023,13.406Z" fill="#f7a219"/>
            <g id="Group_29" data-name="Group 29">
              <g id="Group_28" data-name="Group 28">
                <path id="Path_74" data-name="Path 74" d="M126.69,364.726v21.148q-.437-.3-.838-.6c-.294-.218-.572-.439-.839-.661V364.729Z" fill="#f37e00"/>
                <path id="Path_75" data-name="Path 75" d="M134.72,364.713v25.169q-.864-.331-1.677-.67V364.717Z" fill="#f37e00"/>
                <path id="Path_76" data-name="Path 76" d="M142.749,364.7v27.713c-.4-.1-.789-.209-1.179-.315-.167-.045-.332-.092-.5-.139V364.7Z" fill="#f37e00"/>
                <path id="Path_77" data-name="Path 77" d="M150.781,364.691v29.495q-.848-.158-1.677-.322V364.693Z" fill="#f37e00"/>
                <path id="Path_78" data-name="Path 78" d="M158.81,364.679v30.75c-.564-.072-1.122-.145-1.677-.223V364.68Z" fill="#f37e00"/>
                <path id="Path_79" data-name="Path 79" d="M166.839,364.666v31.582q-.843-.064-1.677-.141V364.668Z" fill="#f37e00"/>
                <path id="Path_80" data-name="Path 80" d="M174.869,364.654V396.7c-.562-.019-1.121-.042-1.677-.066V364.658Z" fill="#f37e00"/>
                <path id="Path_81" data-name="Path 81" d="M182.9,364.642v32.177c-.372,0-.748,0-1.122,0h-.555V364.646Z" fill="#f37e00"/>
                <path id="Path_82" data-name="Path 82" d="M190.93,364.632V396.61c-.557.026-1.115.05-1.677.072V364.633Z" fill="#f37e00"/>
                <path id="Path_83" data-name="Path 83" d="M198.959,364.62v31.438q-.834.076-1.677.145V364.621Z" fill="#f37e00"/>
                <path id="Path_84" data-name="Path 84" d="M206.989,364.607v30.52c-.555.08-1.113.155-1.677.23V364.609Z" fill="#f37e00"/>
                <path id="Path_85" data-name="Path 85" d="M215.018,364.6v29.158q-.83.17-1.677.328V364.6Z" fill="#f37e00"/>
                <path id="Path_86" data-name="Path 86" d="M223.05,364.583V391.8c-.549.158-1.108.315-1.677.466v-27.68Z" fill="#f37e00"/>
                <path id="Path_87" data-name="Path 87" d="M231.079,364.573v24.4c-.541.235-1.1.464-1.677.691V364.574Z" fill="#f37e00"/>
                <path id="Path_88" data-name="Path 88" d="M239.109,364.56v19.567a18.742,18.742,0,0,1-1.677,1.354V364.562Z" fill="#f37e00"/>
              </g>
            </g>
          </g>
          <g id="Group_36" data-name="Group 36">
            <g id="Group_35" data-name="Group 35">
              <path id="Path_89" data-name="Path 89" d="M242.275,364.719c0,9.487-27.079,17.18-60.493,17.18-4.566,0-9.012-.144-13.288-.417-5.377-.341-10.484-.887-15.214-1.606-4.223-.642-8.146-1.422-11.694-2.319q-1.627-.411-3.146-.854a50.577,50.577,0,0,1-11.012-4.436q-.833-.481-1.556-.978c-2.955-2.024-4.584-4.244-4.584-6.57a4.024,4.024,0,0,1,.049-.638c1.172-9.193,27.787-16.542,60.445-16.542a200.177,200.177,0,0,1,22.72,1.252q2.032.236,3.99.509a122.386,122.386,0,0,1,15.4,3.085q1.491.409,2.881.849a50.172,50.172,0,0,1,8.476,3.441,18.033,18.033,0,0,1,5.439,4.119,6.5,6.5,0,0,1,1.542,3.287A4.142,4.142,0,0,1,242.275,364.719Z" fill="#fdd462"/>
              <path id="Path_90" data-name="Path 90" d="M240.687,360.794l-72.193,20.688c-5.377-.341-10.484-.887-15.214-1.606l81.968-23.2A18.033,18.033,0,0,1,240.687,360.794Z" fill="#fff" opacity="0.3"/>
              <path id="Path_91" data-name="Path 91" d="M208.492,349.3l-81.064,22.967q-.833-.481-1.556-.978l78.63-22.5Q206.534,349.027,208.492,349.3Z" fill="#fff" opacity="0.3"/>
              <path id="Path_92" data-name="Path 92" d="M226.772,353.234l-85.186,24.323q-1.627-.411-3.146-.854l85.451-24.318Q225.382,352.794,226.772,353.234Z" fill="#fff" opacity="0.3"/>
              <path id="Path_93" data-name="Path 93" d="M230.133,364.719a4.9,4.9,0,0,1-.047.63c-1.167,7.281-22.384,13.1-48.3,13.1s-47.137-5.821-48.3-13.1a4.9,4.9,0,0,1-.047-.63c0-7.572,21.689-13.731,48.351-13.731S230.133,357.147,230.133,364.719Z" fill="#f37e00"/>
              <path id="Path_94" data-name="Path 94" d="M230.086,365.349c-1.167,7.281-22.384,13.1-48.3,13.1-.581,0-1.154,0-1.728-.01a157.917,157.917,0,0,1-16.406-.992,108.515,108.515,0,0,1-13.83-2.436c-1.033-.258-2.024-.528-2.982-.812a34.2,34.2,0,0,1-10.113-4.5,11.885,11.885,0,0,1-1.471-1.242,5.785,5.785,0,0,1-1.774-3.106c1.167-7.28,22.384-13.1,48.3-13.1,3.278,0,6.483.094,9.586.273,1.579.09,3.137.2,4.662.337a117.935,117.935,0,0,1,16.8,2.6c1.052.251,2.071.516,3.049.794a41.6,41.6,0,0,1,9.357,3.705c2.321,1.347,3.886,2.814,4.547,4.361A4.146,4.146,0,0,1,230.086,365.349Z" fill="#f7a219"/>
              <path id="Path_95" data-name="Path 95" d="M229.782,364.319l-49.727,14.122a157.917,157.917,0,0,1-16.406-.992l61.586-17.491C227.556,361.3,229.121,362.772,229.782,364.319Z" fill="#fbe6a1" opacity="0.2"/>
              <path id="Path_96" data-name="Path 96" d="M196.031,352.856,136.724,369.7a11.885,11.885,0,0,1-1.471-1.242l56.116-15.936C192.948,352.609,194.506,352.722,196.031,352.856Z" fill="#fbe6a1" opacity="0.2"/>
              <path id="Path_97" data-name="Path 97" d="M215.878,356.253l-66.059,18.76c-1.033-.258-2.024-.528-2.982-.812l65.992-18.742C213.881,355.71,214.9,355.975,215.878,356.253Z" fill="#fbe6a1" opacity="0.2"/>
              <g id="Group_34" data-name="Group 34">
                <g id="Group_32" data-name="Group 32">
                  <g id="Group_31" data-name="Group 31">
                    <path id="Path_98" data-name="Path 98" d="M188.506,372.51v2.281H178.3v-2.179a133.56,133.56,0,0,1-18.6-1.438l5.5-3.535a108.913,108.913,0,0,0,16.717,1.315c4.849,0,6.586-.288,6.586-.781,0-1.809-28.007-.35-28.007-5.714,0-2.322,5.934-4.275,17.8-4.748v-2.24h10.2v2.2a118.222,118.222,0,0,1,14.691,1.192l-5.138,3.515a99.052,99.052,0,0,0-14.112-1.069c-4.994,0-6.586.411-6.586.9,0,1.727,28.007.288,28.007,5.591C205.368,370.023,199.724,371.955,188.506,372.51Z" fill="#f37e00"/>
                  </g>
                </g>
                <g id="Group_33" data-name="Group 33">
                  <path id="Path_99" data-name="Path 99" d="M188.209,371.751v2.281h-10.2v-2.179a133.56,133.56,0,0,1-18.6-1.438l5.5-3.536a108.781,108.781,0,0,0,16.717,1.316c4.849,0,6.586-.288,6.586-.781,0-1.809-28.007-.349-28.007-5.714,0-2.322,5.934-4.275,17.8-4.748v-2.24h10.2v2.2A118.228,118.228,0,0,1,202.9,358.1l-5.138,3.515a99.052,99.052,0,0,0-14.112-1.069c-4.994,0-6.586.411-6.586.9,0,1.727,28.008.288,28.008,5.591C205.072,369.264,199.427,371.2,188.209,371.751Z" fill="#fdd462"/>
                </g>
              </g>
            </g>
          </g>
        </g>
        <g id="Group_47" data-name="Group 47">
          <g id="Group_40" data-name="Group 40">
            <path id="Path_100" data-name="Path 100" d="M246.788,359.006c0,.058,0,.113,0,.171,0,2.1-1.119,4.114-3.181,5.995a18.6,18.6,0,0,1-1.677,1.354,34.076,34.076,0,0,1-6.353,3.491q-.812.353-1.677.691c-1.938.764-4.062,1.478-6.352,2.137q-.823.238-1.677.466c-2.006.538-4.129,1.034-6.355,1.487q-.828.17-1.677.329-3.059.579-6.352,1.046c-.555.08-1.113.155-1.677.229q-3.093.4-6.353.7c-.556.05-1.114.1-1.676.144q-3.114.257-6.353.407c-.557.027-1.115.051-1.677.072q-3.131.117-6.353.137c-.372,0-.748,0-1.122,0-.184,0-.37,0-.554,0q-3.221-.008-6.355-.118c-.562-.02-1.12-.042-1.677-.066q-2.382-.105-4.706-.267-.828-.057-1.646-.122-.845-.064-1.677-.141-3.255-.283-6.353-.678c-.564-.072-1.122-.145-1.677-.223q-1.971-.271-3.865-.585-1.26-.208-2.487-.435c-.564-.1-1.125-.212-1.677-.322-2.222-.44-4.345-.926-6.355-1.45-.4-.1-.789-.208-1.178-.314-.168-.046-.333-.093-.5-.14-.908-.254-1.793-.518-2.649-.79q-1.945-.618-3.7-1.288c-.575-.221-1.134-.443-1.677-.67a38.467,38.467,0,0,1-5.635-2.868c-.246-.155-.486-.311-.718-.47q-.437-.294-.838-.6-.439-.326-.839-.661c-2.423-2.019-3.746-4.206-3.746-6.486,0-.161.007-.321.022-.481l.006-12.916,3.718-.006,1.677,0,6.353-.009,1.677,0,4.957-.007,1.4,0,1.677,0,6.355-.009,1.677,0,6.352-.01,1.677,0,6.353-.011h1.677l6.352-.009,1.677,0,6.355-.009,1.676,0,6.353-.008,1.677,0,6.353-.011h1.676l6.353-.011h1.677l6.352-.009,1.677,0,6.355-.008,1.677,0h.413l5.939-.008,1.677,0,6.353-.011h1.677l3.158-.006.023,13.406Z" fill="#f7a219"/>
            <g id="Group_39" data-name="Group 39">
              <g id="Group_38" data-name="Group 38">
                <path id="Path_101" data-name="Path 101" d="M131.19,345.771v21.148q-.437-.294-.838-.6-.439-.326-.839-.661V345.774Z" fill="#f37e00"/>
                <path id="Path_102" data-name="Path 102" d="M139.22,345.759v25.168c-.575-.221-1.134-.443-1.677-.67V345.762Z" fill="#f37e00"/>
                <path id="Path_103" data-name="Path 103" d="M147.249,345.747v27.712c-.4-.1-.789-.208-1.178-.314-.168-.046-.333-.093-.5-.14V345.75Z" fill="#f37e00"/>
                <path id="Path_104" data-name="Path 104" d="M155.281,345.736v29.495c-.564-.1-1.125-.212-1.677-.322V345.738Z" fill="#f37e00"/>
                <path id="Path_105" data-name="Path 105" d="M163.31,345.724v30.75c-.564-.072-1.122-.145-1.677-.223V345.726Z" fill="#f37e00"/>
                <path id="Path_106" data-name="Path 106" d="M171.34,345.712v31.581q-.845-.064-1.677-.141V345.713Z" fill="#f37e00"/>
                <path id="Path_107" data-name="Path 107" d="M179.369,345.7v32.048c-.562-.02-1.12-.042-1.677-.066V345.7Z" fill="#f37e00"/>
                <path id="Path_108" data-name="Path 108" d="M187.4,345.687v32.177c-.372,0-.748,0-1.122,0-.184,0-.37,0-.554,0V345.691Z" fill="#f37e00"/>
                <path id="Path_109" data-name="Path 109" d="M195.43,345.677v31.978c-.557.027-1.115.051-1.677.072V345.679Z" fill="#f37e00"/>
                <path id="Path_110" data-name="Path 110" d="M203.459,345.665V377.1c-.556.05-1.114.1-1.676.144V345.666Z" fill="#f37e00"/>
                <path id="Path_111" data-name="Path 111" d="M211.489,345.653v30.52c-.555.08-1.113.155-1.677.229V345.654Z" fill="#f37e00"/>
                <path id="Path_112" data-name="Path 112" d="M219.518,345.64V374.8q-.828.17-1.677.329V345.644Z" fill="#f37e00"/>
                <path id="Path_113" data-name="Path 113" d="M227.55,345.628v27.217q-.823.238-1.677.466V345.632Z" fill="#f37e00"/>
                <path id="Path_114" data-name="Path 114" d="M235.579,345.618v24.4q-.812.353-1.677.691V345.62Z" fill="#f37e00"/>
                <path id="Path_115" data-name="Path 115" d="M243.609,345.606v19.566a18.6,18.6,0,0,1-1.677,1.354V345.607Z" fill="#f37e00"/>
              </g>
            </g>
          </g>
          <g id="Group_46" data-name="Group 46">
            <g id="Group_45" data-name="Group 45">
              <path id="Path_116" data-name="Path 116" d="M246.776,345.764c0,9.488-27.079,17.18-60.494,17.18-4.565,0-9.012-.144-13.288-.416-5.377-.342-10.483-.888-15.214-1.607-4.223-.641-8.146-1.422-11.694-2.318-1.084-.274-2.135-.559-3.146-.855a50.579,50.579,0,0,1-11.012-4.436c-.554-.32-1.075-.647-1.556-.978-2.955-2.024-4.584-4.243-4.584-6.57a4.024,4.024,0,0,1,.049-.638c1.173-9.192,27.788-16.542,60.445-16.542A199.928,199.928,0,0,1,209,329.837q2.034.234,3.991.508a122.59,122.59,0,0,1,15.4,3.085q1.491.411,2.881.849a50.174,50.174,0,0,1,8.476,3.441,18.023,18.023,0,0,1,5.44,4.12,6.494,6.494,0,0,1,1.541,3.286A4.143,4.143,0,0,1,246.776,345.764Z" fill="#fdd462"/>
              <path id="Path_117" data-name="Path 117" d="M245.188,341.84l-72.194,20.688c-5.377-.342-10.483-.888-15.214-1.607l81.968-23.2A18.023,18.023,0,0,1,245.188,341.84Z" fill="#fff" opacity="0.3"/>
              <path id="Path_118" data-name="Path 118" d="M212.993,330.345l-81.065,22.967c-.554-.32-1.075-.647-1.556-.978l78.63-22.5Q211.036,330.071,212.993,330.345Z" fill="#fff" opacity="0.3"/>
              <path id="Path_119" data-name="Path 119" d="M231.272,334.279,146.086,358.6c-1.084-.274-2.135-.559-3.146-.855l85.451-24.318Q229.882,333.841,231.272,334.279Z" fill="#fff" opacity="0.3"/>
              <path id="Path_120" data-name="Path 120" d="M234.633,345.764a4.932,4.932,0,0,1-.047.631c-1.167,7.28-22.384,13.1-48.3,13.1s-47.137-5.821-48.3-13.1a4.932,4.932,0,0,1-.047-.631c0-7.571,21.689-13.731,48.351-13.731S234.633,338.193,234.633,345.764Z" fill="#f37e00"/>
              <path id="Path_121" data-name="Path 121" d="M234.586,346.395c-1.167,7.28-22.384,13.1-48.3,13.1-.58,0-1.154,0-1.727-.01a157.634,157.634,0,0,1-16.407-.992,108.513,108.513,0,0,1-13.83-2.435q-1.548-.389-2.982-.813a34.2,34.2,0,0,1-10.113-4.5,11.716,11.716,0,0,1-1.47-1.242,5.778,5.778,0,0,1-1.775-3.105c1.167-7.281,22.385-13.1,48.3-13.1,3.278,0,6.483.094,9.586.272,1.579.09,3.137.2,4.662.337a117.784,117.784,0,0,1,16.8,2.6q1.58.377,3.049.793a41.608,41.608,0,0,1,9.358,3.7c2.32,1.347,3.885,2.815,4.547,4.361A4.181,4.181,0,0,1,234.586,346.395Z" fill="#f7a219"/>
              <path id="Path_122" data-name="Path 122" d="M234.283,345.364l-49.727,14.122a157.634,157.634,0,0,1-16.407-.992L229.736,341C232.056,342.35,233.621,343.818,234.283,345.364Z" fill="#fbe6a1" opacity="0.2"/>
              <path id="Path_123" data-name="Path 123" d="M200.531,333.9l-59.307,16.841a11.716,11.716,0,0,1-1.47-1.242l56.115-15.936C197.448,333.654,199.006,333.767,200.531,333.9Z" fill="#fbe6a1" opacity="0.2"/>
              <path id="Path_124" data-name="Path 124" d="M220.378,337.3l-66.059,18.761q-1.548-.389-2.982-.813l65.992-18.741Q218.909,336.882,220.378,337.3Z" fill="#fbe6a1" opacity="0.2"/>
              <g id="Group_44" data-name="Group 44">
                <g id="Group_42" data-name="Group 42">
                  <g id="Group_41" data-name="Group 41">
                    <path id="Path_125" data-name="Path 125" d="M193.006,353.555v2.281H182.8v-2.178a133.689,133.689,0,0,1-18.6-1.439l5.5-3.535A108.916,108.916,0,0,0,186.421,350c4.848,0,6.585-.288,6.585-.781,0-1.809-28.007-.349-28.007-5.714,0-2.322,5.934-4.275,17.8-4.747v-2.241h10.2v2.2a117.881,117.881,0,0,1,14.692,1.192l-5.139,3.514a99.178,99.178,0,0,0-14.112-1.069c-4.994,0-6.586.411-6.586.9,0,1.726,28.008.288,28.008,5.59C209.869,351.068,204.224,353,193.006,353.555Z" fill="#f37e00"/>
                  </g>
                </g>
                <g id="Group_43" data-name="Group 43">
                  <path id="Path_126" data-name="Path 126" d="M192.709,352.8v2.281h-10.2V352.9a133.689,133.689,0,0,1-18.6-1.439l5.5-3.535a108.912,108.912,0,0,0,16.718,1.315c4.848,0,6.585-.288,6.585-.781,0-1.809-28.007-.349-28.007-5.714,0-2.322,5.934-4.275,17.8-4.747v-2.241h10.2v2.2a117.865,117.865,0,0,1,14.692,1.192l-5.139,3.514a99.177,99.177,0,0,0-14.112-1.069c-4.994,0-6.586.411-6.586.9,0,1.726,28.008.288,28.008,5.59C209.572,350.309,203.927,352.241,192.709,352.8Z" fill="#fdd462"/>
                </g>
              </g>
            </g>
          </g>
        </g>
        <g id="Group_57" data-name="Group 57">
          <g id="Group_50" data-name="Group 50">
            <path id="Path_127" data-name="Path 127" d="M237.565,337.9c0,.057,0,.113,0,.17,0,2.1-1.118,4.114-3.181,6a18.465,18.465,0,0,1-1.677,1.354,34.068,34.068,0,0,1-6.352,3.491c-.541.235-1.1.465-1.677.691-1.938.764-4.063,1.477-6.352,2.137-.549.158-1.108.315-1.677.466-2.006.538-4.129,1.034-6.355,1.487q-.829.17-1.677.328-3.06.581-6.352,1.046c-.555.08-1.113.155-1.677.23q-3.095.4-6.353.7-.834.076-1.677.145-3.113.256-6.352.407c-.557.026-1.115.051-1.677.072q-3.131.117-6.353.137c-.372,0-.748,0-1.122,0-.184,0-.37,0-.555,0q-3.221-.009-6.354-.119-.843-.028-1.677-.066-2.383-.1-4.706-.266-.828-.057-1.647-.122-.843-.064-1.677-.141-3.253-.285-6.352-.678c-.564-.072-1.122-.145-1.677-.223q-1.971-.271-3.865-.585-1.262-.209-2.488-.435-.846-.158-1.677-.322-3.333-.66-6.354-1.45c-.4-.1-.79-.209-1.179-.315-.167-.045-.332-.092-.5-.139-.908-.254-1.793-.519-2.649-.79q-1.945-.619-3.7-1.288-.864-.332-1.677-.67a38.418,38.418,0,0,1-5.635-2.868c-.246-.155-.487-.312-.718-.47q-.437-.294-.838-.6c-.294-.218-.572-.439-.839-.661-2.423-2.019-3.747-4.207-3.747-6.487,0-.16.008-.32.023-.48l.006-12.917,3.718-.005,1.677,0,6.353-.009,1.677,0,4.957-.007,1.4,0,1.677,0,6.354-.008,1.677,0,6.353-.01,1.677,0,6.352-.011,1.677,0,6.353-.008,1.677,0,6.354-.008,1.677,0,6.353-.008,1.677,0,6.352-.011,1.677,0,6.353-.01,1.677,0,6.352-.008,1.677,0,6.355-.009,1.677,0h.413l5.939-.009h1.677l6.352-.011,1.677,0,3.159-.005.022,13.406Z" fill="#f7a219"/>
            <g id="Group_49" data-name="Group 49">
              <g id="Group_48" data-name="Group 48">
                <path id="Path_128" data-name="Path 128" d="M121.967,324.665v21.148q-.437-.294-.838-.6c-.294-.218-.572-.439-.839-.661V324.668Z" fill="#f37e00"/>
                <path id="Path_129" data-name="Path 129" d="M130,324.653v25.168q-.864-.332-1.677-.67V324.656Z" fill="#f37e00"/>
                <path id="Path_130" data-name="Path 130" d="M138.026,324.64v27.713c-.4-.1-.79-.209-1.179-.315-.167-.045-.332-.092-.5-.139V324.644Z" fill="#f37e00"/>
                <path id="Path_131" data-name="Path 131" d="M146.057,324.63v29.495q-.846-.158-1.677-.322V324.632Z" fill="#f37e00"/>
                <path id="Path_132" data-name="Path 132" d="M154.087,324.618v30.75c-.564-.072-1.122-.145-1.677-.223V324.62Z" fill="#f37e00"/>
                <path id="Path_133" data-name="Path 133" d="M162.116,324.605v31.582q-.843-.064-1.677-.141V324.607Z" fill="#f37e00"/>
                <path id="Path_134" data-name="Path 134" d="M170.146,324.593v32.048q-.843-.028-1.677-.066V324.6Z" fill="#f37e00"/>
                <path id="Path_135" data-name="Path 135" d="M178.177,324.581v32.177c-.372,0-.748,0-1.122,0-.184,0-.37,0-.555,0V324.585Z" fill="#f37e00"/>
                <path id="Path_136" data-name="Path 136" d="M186.207,324.571v31.978c-.557.026-1.115.051-1.677.072V324.573Z" fill="#f37e00"/>
                <path id="Path_137" data-name="Path 137" d="M194.236,324.558V356q-.834.076-1.677.145V324.56Z" fill="#f37e00"/>
                <path id="Path_138" data-name="Path 138" d="M202.266,324.546v30.52c-.555.08-1.113.155-1.677.23V324.548Z" fill="#f37e00"/>
                <path id="Path_139" data-name="Path 139" d="M210.295,324.534v29.158q-.829.17-1.677.328V324.538Z" fill="#f37e00"/>
                <path id="Path_140" data-name="Path 140" d="M218.327,324.522v27.217c-.549.158-1.108.315-1.677.466v-27.68Z" fill="#f37e00"/>
                <path id="Path_141" data-name="Path 141" d="M226.356,324.512v24.4c-.541.235-1.1.465-1.677.691V324.513Z" fill="#f37e00"/>
                <path id="Path_142" data-name="Path 142" d="M234.385,324.5v19.567a18.465,18.465,0,0,1-1.677,1.354V324.5Z" fill="#f37e00"/>
              </g>
            </g>
          </g>
          <g id="Group_56" data-name="Group 56">
            <g id="Group_55" data-name="Group 55">
              <path id="Path_143" data-name="Path 143" d="M237.552,324.658c0,9.487-27.079,17.18-60.493,17.18-4.566,0-9.012-.144-13.288-.416-5.377-.342-10.484-.888-15.214-1.607-4.223-.642-8.146-1.422-11.694-2.319q-1.628-.411-3.146-.854a50.577,50.577,0,0,1-11.012-4.436q-.833-.481-1.556-.978c-2.955-2.024-4.584-4.244-4.584-6.57a4.024,4.024,0,0,1,.049-.638c1.172-9.193,27.787-16.542,60.445-16.542a200.17,200.17,0,0,1,22.72,1.252q2.032.235,3.99.509a122.386,122.386,0,0,1,15.4,3.085q1.491.409,2.881.849a50.174,50.174,0,0,1,8.476,3.441,18.017,18.017,0,0,1,5.439,4.12,6.5,6.5,0,0,1,1.542,3.286A4.14,4.14,0,0,1,237.552,324.658Z" fill="#fdd462"/>
              <path id="Path_144" data-name="Path 144" d="M235.964,320.734l-72.193,20.688c-5.377-.342-10.484-.888-15.214-1.607l81.968-23.2A18.017,18.017,0,0,1,235.964,320.734Z" fill="#fff" opacity="0.3"/>
              <path id="Path_145" data-name="Path 145" d="M203.769,309.239l-81.064,22.967q-.833-.481-1.556-.978l78.63-22.5Q201.812,308.965,203.769,309.239Z" fill="#fff" opacity="0.3"/>
              <path id="Path_146" data-name="Path 146" d="M222.049,313.173,136.863,337.5q-1.628-.411-3.146-.854l85.451-24.318Q220.659,312.733,222.049,313.173Z" fill="#fff" opacity="0.3"/>
              <path id="Path_147" data-name="Path 147" d="M225.41,324.658a4.936,4.936,0,0,1-.047.631c-1.167,7.28-22.384,13.1-48.3,13.1s-47.136-5.821-48.3-13.1a4.936,4.936,0,0,1-.047-.631c0-7.572,21.689-13.731,48.35-13.731S225.41,317.086,225.41,324.658Z" fill="#f37e00"/>
              <path id="Path_148" data-name="Path 148" d="M225.363,325.289c-1.167,7.28-22.384,13.1-48.3,13.1-.58,0-1.153,0-1.727-.01a157.631,157.631,0,0,1-16.406-.992,108.509,108.509,0,0,1-13.83-2.436c-1.033-.258-2.024-.528-2.982-.812a34.2,34.2,0,0,1-10.113-4.5,11.887,11.887,0,0,1-1.471-1.242,5.783,5.783,0,0,1-1.774-3.105c1.167-7.281,22.384-13.1,48.3-13.1,3.279,0,6.484.094,9.587.273,1.579.09,3.137.2,4.662.337a117.954,117.954,0,0,1,16.8,2.6c1.052.251,2.071.516,3.049.794a41.6,41.6,0,0,1,9.357,3.705c2.321,1.347,3.886,2.814,4.547,4.361A4.141,4.141,0,0,1,225.363,325.289Z" fill="#f7a219"/>
              <path id="Path_149" data-name="Path 149" d="M225.059,324.258,175.332,338.38a157.631,157.631,0,0,1-16.406-.992L220.512,319.9C222.833,321.244,224.4,322.711,225.059,324.258Z" fill="#fbe6a1" opacity="0.2"/>
              <path id="Path_150" data-name="Path 150" d="M191.308,312.8,132,329.636a11.887,11.887,0,0,1-1.471-1.242l56.116-15.936C188.225,312.548,189.783,312.661,191.308,312.8Z" fill="#fbe6a1" opacity="0.2"/>
              <path id="Path_151" data-name="Path 151" d="M211.155,316.192,145.1,334.952c-1.033-.258-2.024-.528-2.982-.812L208.106,315.4C209.158,315.649,210.177,315.914,211.155,316.192Z" fill="#fbe6a1" opacity="0.2"/>
              <g id="Group_54" data-name="Group 54">
                <g id="Group_52" data-name="Group 52">
                  <g id="Group_51" data-name="Group 51">
                    <path id="Path_152" data-name="Path 152" d="M183.783,332.449v2.281h-10.2v-2.179a133.56,133.56,0,0,1-18.6-1.438l5.5-3.536a108.782,108.782,0,0,0,16.717,1.316c4.849,0,6.586-.288,6.586-.781,0-1.809-28.007-.349-28.007-5.714,0-2.322,5.934-4.275,17.8-4.748v-2.24h10.2v2.2a118.228,118.228,0,0,1,14.691,1.192l-5.138,3.515a99.2,99.2,0,0,0-14.112-1.069c-4.994,0-6.586.411-6.586.9,0,1.727,28.007.288,28.007,5.591C200.645,329.962,195,331.894,183.783,332.449Z" fill="#f37e00"/>
                  </g>
                </g>
                <g id="Group_53" data-name="Group 53">
                  <path id="Path_153" data-name="Path 153" d="M183.486,331.69v2.281h-10.2v-2.179a133.555,133.555,0,0,1-18.6-1.438l5.5-3.536a108.782,108.782,0,0,0,16.717,1.316c4.849,0,6.586-.288,6.586-.781,0-1.809-28.007-.349-28.007-5.714,0-2.322,5.934-4.275,17.8-4.748v-2.24h10.2v2.2a118.228,118.228,0,0,1,14.691,1.192l-5.138,3.515a99.2,99.2,0,0,0-14.112-1.069c-4.994,0-6.586.411-6.586.9,0,1.727,28.008.288,28.008,5.591C200.349,329.2,194.7,331.135,183.486,331.69Z" fill="#fdd462"/>
                </g>
              </g>
            </g>
          </g>
        </g>
        <g id="Group_67" data-name="Group 67">
          <g id="Group_60" data-name="Group 60">
            <path id="Path_154" data-name="Path 154" d="M244.536,316.62c0,.058,0,.114,0,.171,0,2.1-1.119,4.114-3.181,6a18.605,18.605,0,0,1-1.677,1.354,34.079,34.079,0,0,1-6.353,3.491q-.812.352-1.677.691c-1.938.764-4.062,1.478-6.352,2.138q-.824.237-1.677.466c-2.006.538-4.129,1.034-6.355,1.486q-.828.17-1.676.329-3.06.579-6.353,1.046c-.555.08-1.113.155-1.677.23q-3.093.4-6.353.7-.834.077-1.676.144-3.114.256-6.353.408-.834.039-1.677.071-3.131.117-6.352.137c-.373,0-.749,0-1.123,0-.184,0-.37,0-.554,0q-3.221-.008-6.355-.118c-.562-.019-1.12-.042-1.677-.066q-2.382-.1-4.705-.266-.829-.059-1.647-.122-.843-.066-1.677-.141-3.255-.285-6.353-.679c-.564-.071-1.122-.144-1.677-.223q-1.971-.271-3.865-.584-1.26-.21-2.487-.436-.846-.156-1.677-.322c-2.222-.44-4.345-.925-6.355-1.449-.4-.1-.789-.209-1.178-.315l-.5-.139c-.908-.255-1.793-.519-2.648-.791q-1.947-.618-3.7-1.287-.862-.331-1.677-.67A38.4,38.4,0,0,1,129.657,325q-.37-.232-.719-.47-.437-.3-.838-.6-.44-.325-.838-.661c-2.424-2.019-3.747-4.206-3.747-6.486,0-.16.007-.32.022-.48l.006-12.917,3.719-.005,1.676,0,6.353-.008,1.677,0,4.958-.007,1.394,0,1.677,0,6.355-.009h1.677l6.352-.011,1.677,0,6.353-.01,1.677,0,6.352-.009,1.677,0,6.355-.009,1.677,0,6.352-.009,1.677,0,6.353-.01,1.676,0,6.353-.01,1.677,0,6.353-.009,1.676,0,6.355-.009,1.677,0h.413l5.939-.009,1.677,0,6.353-.01,1.677,0,3.158-.005.023,13.4Z" fill="#f7a219"/>
            <g id="Group_59" data-name="Group 59">
              <g id="Group_58" data-name="Group 58">
                <path id="Path_155" data-name="Path 155" d="M128.938,303.385v21.149q-.437-.3-.838-.6-.44-.325-.838-.661V303.389Z" fill="#f37e00"/>
                <path id="Path_156" data-name="Path 156" d="M136.968,303.373v25.169q-.862-.331-1.677-.67V303.377Z" fill="#f37e00"/>
                <path id="Path_157" data-name="Path 157" d="M145,303.361v27.713c-.4-.1-.789-.209-1.178-.315l-.5-.139V303.364Z" fill="#f37e00"/>
                <path id="Path_158" data-name="Path 158" d="M153.029,303.351v29.494q-.846-.156-1.677-.322V303.352Z" fill="#f37e00"/>
                <path id="Path_159" data-name="Path 159" d="M161.058,303.338v30.75c-.564-.071-1.122-.144-1.677-.223V303.34Z" fill="#f37e00"/>
                <path id="Path_160" data-name="Path 160" d="M169.088,303.326v31.582q-.843-.066-1.677-.141V303.328Z" fill="#f37e00"/>
                <path id="Path_161" data-name="Path 161" d="M177.117,303.314v32.048c-.562-.019-1.12-.042-1.677-.066V303.317Z" fill="#f37e00"/>
                <path id="Path_162" data-name="Path 162" d="M185.149,303.3v32.176c-.373,0-.749,0-1.123,0-.184,0-.37,0-.554,0V303.3Z" fill="#f37e00"/>
                <path id="Path_163" data-name="Path 163" d="M193.178,303.291V335.27q-.834.039-1.677.071V303.293Z" fill="#f37e00"/>
                <path id="Path_164" data-name="Path 164" d="M201.207,303.279v31.439q-.834.077-1.676.144V303.281Z" fill="#f37e00"/>
                <path id="Path_165" data-name="Path 165" d="M209.237,303.267v30.52c-.555.08-1.113.155-1.677.23V303.269Z" fill="#f37e00"/>
                <path id="Path_166" data-name="Path 166" d="M217.266,303.255v29.157q-.828.17-1.676.329V303.258Z" fill="#f37e00"/>
                <path id="Path_167" data-name="Path 167" d="M225.3,303.243V330.46q-.824.237-1.677.466v-27.68Z" fill="#f37e00"/>
                <path id="Path_168" data-name="Path 168" d="M233.327,303.232v24.4q-.812.352-1.677.691V303.234Z" fill="#f37e00"/>
                <path id="Path_169" data-name="Path 169" d="M241.357,303.22v19.566a18.605,18.605,0,0,1-1.677,1.354V303.222Z" fill="#f37e00"/>
              </g>
            </g>
          </g>
          <g id="Group_66" data-name="Group 66">
            <g id="Group_65" data-name="Group 65">
              <path id="Path_170" data-name="Path 170" d="M244.524,303.378c0,9.488-27.079,17.18-60.494,17.18-4.565,0-9.012-.143-13.288-.416-5.377-.342-10.483-.888-15.214-1.607-4.223-.641-8.146-1.422-11.694-2.318-1.084-.274-2.135-.559-3.146-.855a50.58,50.58,0,0,1-11.012-4.435c-.554-.321-1.075-.647-1.556-.979-2.954-2.024-4.584-4.243-4.584-6.57a4.042,4.042,0,0,1,.049-.638c1.173-9.192,27.788-16.542,60.445-16.542a199.967,199.967,0,0,1,22.721,1.253q2.032.234,3.99.509a122.594,122.594,0,0,1,15.4,3.084q1.491.411,2.881.849a50.218,50.218,0,0,1,8.477,3.442,18.013,18.013,0,0,1,5.439,4.119,6.5,6.5,0,0,1,1.541,3.286A4.039,4.039,0,0,1,244.524,303.378Z" fill="#fdd462"/>
              <path id="Path_171" data-name="Path 171" d="M242.936,299.454l-72.194,20.688c-5.377-.342-10.483-.888-15.214-1.607l81.969-23.2A18.013,18.013,0,0,1,242.936,299.454Z" fill="#fff" opacity="0.3"/>
              <path id="Path_172" data-name="Path 172" d="M210.741,287.96l-81.065,22.967c-.554-.321-1.075-.647-1.556-.979l78.631-22.5Q208.784,287.685,210.741,287.96Z" fill="#fff" opacity="0.3"/>
              <path id="Path_173" data-name="Path 173" d="M229.02,291.893l-85.186,24.324c-1.084-.274-2.135-.559-3.146-.855l85.451-24.318Q227.63,291.455,229.02,291.893Z" fill="#fff" opacity="0.3"/>
              <path id="Path_174" data-name="Path 174" d="M232.381,303.379a4.934,4.934,0,0,1-.047.63c-1.167,7.281-22.384,13.1-48.3,13.1s-47.136-5.82-48.3-13.1a5.121,5.121,0,0,1-.047-.63c0-7.572,21.69-13.732,48.351-13.732S232.381,295.807,232.381,303.379Z" fill="#f37e00"/>
              <path id="Path_175" data-name="Path 175" d="M232.334,304.009c-1.167,7.281-22.384,13.1-48.3,13.1-.58,0-1.154,0-1.727-.009a157.9,157.9,0,0,1-16.407-.993,108.555,108.555,0,0,1-13.83-2.435q-1.548-.389-2.982-.812a34.226,34.226,0,0,1-10.113-4.505,11.8,11.8,0,0,1-1.47-1.241,5.784,5.784,0,0,1-1.775-3.106c1.168-7.281,22.385-13.1,48.3-13.1,3.278,0,6.483.094,9.586.272,1.579.09,3.137.2,4.662.337a117.762,117.762,0,0,1,16.8,2.6q1.58.377,3.05.793a41.566,41.566,0,0,1,9.357,3.706c2.32,1.347,3.885,2.814,4.547,4.36A4.181,4.181,0,0,1,232.334,304.009Z" fill="#f7a219"/>
              <path id="Path_176" data-name="Path 176" d="M232.031,302.978,182.3,317.1a157.9,157.9,0,0,1-16.407-.993l61.587-17.49C229.8,299.965,231.369,301.432,232.031,302.978Z" fill="#fbe6a1" opacity="0.2"/>
              <path id="Path_177" data-name="Path 177" d="M198.279,291.515l-59.307,16.841a11.8,11.8,0,0,1-1.47-1.241l56.115-15.937C195.2,291.268,196.754,291.381,198.279,291.515Z" fill="#fbe6a1" opacity="0.2"/>
              <path id="Path_178" data-name="Path 178" d="M218.127,294.912l-66.06,18.761q-1.548-.389-2.982-.812l65.992-18.742Q216.657,294.5,218.127,294.912Z" fill="#fbe6a1" opacity="0.2"/>
              <g id="Group_64" data-name="Group 64">
                <g id="Group_62" data-name="Group 62">
                  <g id="Group_61" data-name="Group 61">
                    <path id="Path_179" data-name="Path 179" d="M190.754,311.169v2.282h-10.2v-2.179a133.387,133.387,0,0,1-18.6-1.439l5.5-3.535a108.789,108.789,0,0,0,16.718,1.315c4.848,0,6.585-.287,6.585-.781,0-1.808-28.007-.349-28.007-5.713,0-2.323,5.934-4.275,17.8-4.748v-2.24h10.2v2.2a118.057,118.057,0,0,1,14.692,1.192l-5.139,3.515a99.03,99.03,0,0,0-14.112-1.069c-4.993,0-6.586.411-6.586.9,0,1.727,28.008.288,28.008,5.59C207.617,308.682,201.972,310.614,190.754,311.169Z" fill="#f37e00"/>
                  </g>
                </g>
                <g id="Group_63" data-name="Group 63">
                  <path id="Path_180" data-name="Path 180" d="M190.457,310.41v2.282h-10.2v-2.179a133.382,133.382,0,0,1-18.6-1.439l5.5-3.535a108.8,108.8,0,0,0,16.718,1.315c4.848,0,6.585-.287,6.585-.781,0-1.808-28.007-.349-28.007-5.713,0-2.323,5.934-4.275,17.8-4.748v-2.24h10.2v2.2a118.052,118.052,0,0,1,14.692,1.192l-5.139,3.515a99.03,99.03,0,0,0-14.112-1.069c-4.993,0-6.586.411-6.586.9,0,1.727,28.008.288,28.008,5.59C207.32,307.923,201.675,309.855,190.457,310.41Z" fill="#fdd462"/>
                </g>
              </g>
            </g>
          </g>
        </g>
        <g id="Group_77" data-name="Group 77">
          <g id="Group_70" data-name="Group 70">
            <path id="Path_181" data-name="Path 181" d="M245.369,295.278c0,.057,0,.113,0,.17,0,2.1-1.119,4.115-3.181,6a18.605,18.605,0,0,1-1.677,1.354,34.068,34.068,0,0,1-6.352,3.491q-.813.352-1.677.691c-1.939.764-4.063,1.477-6.353,2.137-.549.158-1.107.315-1.677.466q-3.009.807-6.354,1.486-.83.171-1.677.329-3.06.58-6.353,1.046c-.554.08-1.113.155-1.677.23q-3.093.4-6.352.7-.836.076-1.677.145-3.114.255-6.353.407c-.556.026-1.115.051-1.677.071q-3.129.119-6.352.138c-.372,0-.748,0-1.123,0H184.3q-3.22-.009-6.355-.119c-.562-.019-1.12-.041-1.677-.066q-2.382-.1-4.705-.266-.829-.057-1.647-.122-.843-.064-1.677-.141-3.255-.284-6.352-.678c-.565-.072-1.123-.145-1.677-.223q-1.973-.271-3.866-.585-1.26-.208-2.487-.435-.846-.157-1.677-.322c-2.222-.44-4.345-.926-6.354-1.45-.4-.1-.79-.209-1.179-.315-.167-.045-.333-.092-.5-.139-.908-.254-1.794-.519-2.649-.79q-1.946-.619-3.7-1.288-.862-.332-1.677-.67a38.454,38.454,0,0,1-5.634-2.868c-.246-.155-.487-.312-.718-.47q-.438-.3-.839-.6c-.293-.218-.571-.439-.838-.661-2.424-2.019-3.747-4.207-3.747-6.487,0-.16.007-.32.022-.48l.006-12.917,3.719-.005,1.677,0,6.352-.009,1.677,0,4.958-.007h1.4l1.677,0,6.354-.008,1.677,0,6.353-.011h1.677l6.352-.011,1.677,0,6.352-.008,1.677,0,6.355-.008,1.677,0,6.352-.009h1.677l6.353-.011,1.677,0,6.352-.01,1.677,0,6.353-.008,1.677,0,6.354-.009,1.677,0h.414l5.939-.009,1.677,0,6.352-.01,1.677,0,3.158-.005.023,13.406Z" fill="#f7a219"/>
            <g id="Group_69" data-name="Group 69">
              <g id="Group_68" data-name="Group 68">
                <path id="Path_182" data-name="Path 182" d="M129.772,282.043v21.148q-.438-.3-.839-.6c-.293-.218-.571-.439-.838-.661V282.046Z" fill="#f37e00"/>
                <path id="Path_183" data-name="Path 183" d="M137.8,282.03V307.2q-.862-.332-1.677-.67V282.034Z" fill="#f37e00"/>
                <path id="Path_184" data-name="Path 184" d="M145.831,282.018v27.713c-.4-.1-.79-.209-1.179-.315-.167-.045-.333-.092-.5-.139V282.022Z" fill="#f37e00"/>
                <path id="Path_185" data-name="Path 185" d="M153.862,282.008V311.5q-.846-.157-1.677-.322V282.01Z" fill="#f37e00"/>
                <path id="Path_186" data-name="Path 186" d="M161.892,282v30.75c-.565-.072-1.123-.145-1.677-.223V282Z" fill="#f37e00"/>
                <path id="Path_187" data-name="Path 187" d="M169.921,281.983v31.582q-.843-.064-1.677-.141V281.985Z" fill="#f37e00"/>
                <path id="Path_188" data-name="Path 188" d="M177.95,281.971v32.048c-.562-.019-1.12-.041-1.677-.066V281.975Z" fill="#f37e00"/>
                <path id="Path_189" data-name="Path 189" d="M185.982,281.959v32.177c-.372,0-.748,0-1.123,0H184.3V281.963Z" fill="#f37e00"/>
                <path id="Path_190" data-name="Path 190" d="M194.011,281.949v31.978c-.556.026-1.115.051-1.677.071V281.95Z" fill="#f37e00"/>
                <path id="Path_191" data-name="Path 191" d="M202.041,281.936v31.439q-.836.076-1.677.145V281.938Z" fill="#f37e00"/>
                <path id="Path_192" data-name="Path 192" d="M210.07,281.924v30.52c-.554.08-1.113.155-1.677.23V281.926Z" fill="#f37e00"/>
                <path id="Path_193" data-name="Path 193" d="M218.1,281.912v29.157q-.83.171-1.677.329V281.916Z" fill="#f37e00"/>
                <path id="Path_194" data-name="Path 194" d="M226.131,281.9v27.217c-.549.158-1.107.315-1.677.466V281.9Z" fill="#f37e00"/>
                <path id="Path_195" data-name="Path 195" d="M234.161,281.889v24.4q-.813.352-1.677.691V281.891Z" fill="#f37e00"/>
                <path id="Path_196" data-name="Path 196" d="M242.19,281.877v19.567a18.605,18.605,0,0,1-1.677,1.354V281.879Z" fill="#f37e00"/>
              </g>
            </g>
          </g>
          <g id="Group_76" data-name="Group 76">
            <g id="Group_75" data-name="Group 75">
              <path id="Path_197" data-name="Path 197" d="M245.357,282.036c0,9.487-27.079,17.18-60.494,17.18-4.565,0-9.012-.144-13.288-.417-5.377-.341-10.483-.887-15.214-1.606-4.223-.642-8.145-1.422-11.694-2.319-1.084-.274-2.135-.559-3.146-.854a50.6,50.6,0,0,1-11.012-4.436c-.554-.321-1.075-.647-1.556-.978-2.954-2.024-4.584-4.244-4.584-6.57a4.023,4.023,0,0,1,.049-.638c1.173-9.193,27.788-16.543,60.445-16.543a200.166,200.166,0,0,1,22.721,1.253q2.032.236,3.99.509a122.562,122.562,0,0,1,15.4,3.084q1.491.411,2.881.85a50.222,50.222,0,0,1,8.477,3.441,18.016,18.016,0,0,1,5.439,4.119,6.5,6.5,0,0,1,1.541,3.287A4.021,4.021,0,0,1,245.357,282.036Z" fill="#fdd462"/>
              <path id="Path_198" data-name="Path 198" d="M243.769,278.111,171.575,298.8c-5.377-.341-10.483-.887-15.214-1.606l81.969-23.2A18.016,18.016,0,0,1,243.769,278.111Z" fill="#fff" opacity="0.3"/>
              <path id="Path_199" data-name="Path 199" d="M211.574,266.617l-81.065,22.967c-.554-.321-1.075-.647-1.556-.978l78.631-22.5Q209.616,266.344,211.574,266.617Z" fill="#fff" opacity="0.3"/>
              <path id="Path_200" data-name="Path 200" d="M229.853,270.551l-85.186,24.323c-1.084-.274-2.135-.559-3.146-.854L226.972,269.7Q228.463,270.112,229.853,270.551Z" fill="#fff" opacity="0.3"/>
              <path id="Path_201" data-name="Path 201" d="M233.215,282.036a4.907,4.907,0,0,1-.048.63c-1.167,7.281-22.384,13.1-48.3,13.1s-47.136-5.82-48.3-13.1a4.9,4.9,0,0,1-.047-.63c0-7.572,21.689-13.731,48.35-13.731S233.215,274.464,233.215,282.036Z" fill="#f37e00"/>
              <path id="Path_202" data-name="Path 202" d="M233.167,282.666c-1.167,7.281-22.384,13.1-48.3,13.1-.58,0-1.154,0-1.727-.009a157.625,157.625,0,0,1-16.407-.993,108.373,108.373,0,0,1-13.83-2.435q-1.548-.387-2.982-.812a34.247,34.247,0,0,1-10.112-4.5,11.814,11.814,0,0,1-1.471-1.242,5.778,5.778,0,0,1-1.774-3.106c1.167-7.28,22.384-13.1,48.3-13.1,3.279,0,6.483.094,9.587.272,1.578.09,3.137.2,4.661.338a117.77,117.77,0,0,1,16.8,2.6q1.579.377,3.05.794a41.571,41.571,0,0,1,9.357,3.7c2.32,1.347,3.886,2.815,4.547,4.361A4.187,4.187,0,0,1,233.167,282.666Z" fill="#f7a219"/>
              <path id="Path_203" data-name="Path 203" d="M232.864,281.636l-49.727,14.122a157.625,157.625,0,0,1-16.407-.993l61.587-17.49C230.637,278.622,232.2,280.09,232.864,281.636Z" fill="#fbe6a1" opacity="0.2"/>
              <path id="Path_204" data-name="Path 204" d="M199.112,270.173l-59.306,16.841a11.814,11.814,0,0,1-1.471-1.242l56.116-15.937C196.029,269.925,197.588,270.039,199.112,270.173Z" fill="#fbe6a1" opacity="0.2"/>
              <path id="Path_205" data-name="Path 205" d="M218.96,273.57,152.9,292.33q-1.548-.387-2.982-.812l65.992-18.742Q217.489,273.153,218.96,273.57Z" fill="#fbe6a1" opacity="0.2"/>
              <g id="Group_74" data-name="Group 74">
                <g id="Group_72" data-name="Group 72">
                  <g id="Group_71" data-name="Group 71">
                    <path id="Path_206" data-name="Path 206" d="M191.588,289.826v2.282H181.383v-2.179a133.555,133.555,0,0,1-18.6-1.438l5.5-3.535A108.926,108.926,0,0,0,185,286.271c4.849,0,6.586-.288,6.586-.781,0-1.809-28.008-.35-28.008-5.714,0-2.322,5.935-4.275,17.8-4.748v-2.24h10.205v2.2a118.251,118.251,0,0,1,14.691,1.192l-5.138,3.515a99.2,99.2,0,0,0-14.113-1.069c-4.993,0-6.585.411-6.585.9,0,1.727,28.007.288,28.007,5.591C208.45,287.34,202.8,289.272,191.588,289.826Z" fill="#f37e00"/>
                  </g>
                </g>
                <g id="Group_73" data-name="Group 73">
                  <path id="Path_207" data-name="Path 207" d="M191.291,289.067v2.282H181.086V289.17a133.559,133.559,0,0,1-18.6-1.438l5.5-3.535a108.926,108.926,0,0,0,16.718,1.315c4.849,0,6.586-.288,6.586-.781,0-1.809-28.008-.35-28.008-5.714,0-2.322,5.935-4.275,17.8-4.748v-2.24h10.205v2.2a118.244,118.244,0,0,1,14.691,1.192l-5.138,3.515a99.2,99.2,0,0,0-14.113-1.069c-4.993,0-6.585.411-6.585.9,0,1.727,28.007.288,28.007,5.591C208.153,286.581,202.508,288.513,191.291,289.067Z" fill="#fdd462"/>
                </g>
              </g>
            </g>
          </g>
        </g>
        <g id="Group_82" data-name="Group 82">
          <path id="Path_208" data-name="Path 208" d="M262.566,389.39a55.253,55.253,0,0,1-93.626,37.482q-1.431-1.382-2.759-2.866a55.319,55.319,0,0,1-9.465-14.673q-.7-1.578-1.292-3.2a55.078,55.078,0,0,1-3.314-21.293c.028-.683.07-1.367.129-2.048a55.3,55.3,0,0,1,77.953-46.02q1.825.83,3.575,1.785a55.376,55.376,0,0,1,13.65,10.495q1.306,1.377,2.517,2.839a55,55,0,0,1,12.674,35.451C262.611,388.022,262.594,388.707,262.566,389.39Z" fill="#fdd462"/>
          <path id="Path_209" data-name="Path 209" d="M261.637,376.716,192.985,440.5a54.8,54.8,0,0,1-13.676-5.738l77.908-71.5A54.941,54.941,0,0,1,261.637,376.716Z" fill="#fff" opacity="0.3"/>
          <path id="Path_210" data-name="Path 210" d="M233.767,338.553l-77.051,70.78q-.7-1.578-1.292-3.2l74.768-69.361Q232.017,337.6,233.767,338.553Z" fill="#fff" opacity="0.3"/>
          <path id="Path_211" data-name="Path 211" d="M249.934,351.887,168.94,426.872q-1.431-1.382-2.759-2.866l81.236-74.958Q248.723,350.425,249.934,351.887Z" fill="#fff" opacity="0.3"/>
          <path id="Path_212" data-name="Path 212" d="M251.481,388.935c-.028.677-.074,1.354-.127,2.024a44.183,44.183,0,0,1-88.2-3.636c0-.672.012-1.351.04-2.028a44.18,44.18,0,1,1,88.284,3.64Z" fill="#f37e00"/>
          <path id="Path_213" data-name="Path 213" d="M251.354,390.959a44.235,44.235,0,0,1-45.835,40.3c-.529-.021-1.052-.055-1.575-.1A43.966,43.966,0,0,1,176.793,419q-1.362-1.3-2.614-2.724a44.261,44.261,0,0,1-8.636-14.86c-.457-1.321-.852-2.676-1.178-4.047a43.806,43.806,0,0,1-1.208-10.05,44.192,44.192,0,0,1,54.551-39.068,43.263,43.263,0,0,1,4.211,1.259,44.13,44.13,0,0,1,14.991,9q1.392,1.269,2.679,2.664a44.05,44.05,0,0,1,11.625,26.453C251.3,388.73,251.351,389.842,251.354,390.959Z" fill="#f7a219"/>
          <path id="Path_214" data-name="Path 214" d="M251.214,387.634l-47.27,43.527a43.873,43.873,0,0,1-14.847-3.808l58.543-53.908A43.913,43.913,0,0,1,251.214,387.634Z" fill="#fbe6a1" opacity="0.2"/>
          <path id="Path_215" data-name="Path 215" d="M221.919,349.514,165.543,401.42c-.457-1.321-.852-2.676-1.178-4.047l53.343-49.118A43.263,43.263,0,0,1,221.919,349.514Z" fill="#fbe6a1" opacity="0.2"/>
          <path id="Path_216" data-name="Path 216" d="M239.589,361.181,176.793,419q-1.362-1.3-2.614-2.724l62.731-57.763Q238.3,359.786,239.589,361.181Z" fill="#fbe6a1" opacity="0.2"/>
          <g id="Group_81" data-name="Group 81">
            <g id="Group_79" data-name="Group 79">
              <g id="Group_78" data-name="Group 78">
                <path id="Path_217" data-name="Path 217" d="M212.445,412.411l-.3,7.334-9.316-.384.288-7c-6.59-.669-12.926-2.717-16.789-5.325l5.49-11.157a31.751,31.751,0,0,0,15.088,4.857c4.426.183,6.05-.677,6.116-2.263.239-5.814-25.523-2.177-24.812-19.421.307-7.466,5.984-13.52,16.882-14.593l.3-7.2,9.316.384-.291,7.069a34.549,34.549,0,0,1,13.254,4.385L222.509,380.2a28.56,28.56,0,0,0-12.742-3.967c-4.559-.188-6.067,1.074-6.132,2.659-.229,5.551,25.531,1.98,24.828,19.026C228.169,405.051,222.759,411.05,212.445,412.411Z" fill="#f37e00"/>
              </g>
            </g>
            <g id="Group_80" data-name="Group 80">
              <path id="Path_218" data-name="Path 218" d="M212.274,409.96l-.3,7.334-9.316-.384.289-7c-6.591-.669-12.926-2.717-16.79-5.325l5.49-11.157a31.758,31.758,0,0,0,15.088,4.857c4.427.183,6.051-.677,6.116-2.263.24-5.814-25.523-2.177-24.812-19.422.308-7.466,5.984-13.519,16.883-14.592l.3-7.2,9.316.384-.292,7.069a34.554,34.554,0,0,1,13.255,4.385l-5.157,11.105A28.551,28.551,0,0,0,209.6,373.78c-4.558-.188-6.066,1.074-6.132,2.659-.229,5.55,25.532,1.979,24.829,19.026C228,402.6,222.589,408.6,212.274,409.96Z" fill="#fdd462"/>
            </g>
          </g>
        </g>
      </g>
      <g id="Group_110" data-name="Group 110" transform="translate(108 353)">
        <g id="Group_94" data-name="Group 94">
          <g id="Group_86" data-name="Group 86">
            <g id="Group_85" data-name="Group 85">
              <g id="Group_84" data-name="Group 84">
                <path id="Path_219" data-name="Path 219" d="M103.23,424.306h9.386l5.976-72.157-6.716-66.184L86.515,283.59l15.209,75.445C97.427,376.469,101.019,398.78,103.23,424.306Z" fill="#011b2e"/>
              </g>
            </g>
            <path id="Path_220" data-name="Path 220" d="M102.959,423.741a4.38,4.38,0,0,0-.566,2.42c0,1.631.16,7.257.16,7.257h27.469a8.162,8.162,0,0,0-3.379-6.561c-3.479-2.283-8.827-.047-13.937-3.635C112.706,423.222,111.338,424.472,102.959,423.741Z" fill="#011b2e"/>
          </g>
          <g id="Group_89" data-name="Group 89">
            <g id="Group_88" data-name="Group 88">
              <g id="Group_87" data-name="Group 87">
                <path id="Path_221" data-name="Path 221" d="M51.834,423.762c1.816-19.558,10.342-58.919,15.779-67.406l.053-73.794,24.786,5.875-7.407,68.076L61.336,423.222C58.509,424.8,55.225,424.5,51.834,423.762Z" fill="#133248"/>
              </g>
            </g>
            <path id="Path_222" data-name="Path 222" d="M51.834,423.762a4.308,4.308,0,0,0-.626,2.463v7.193H78.652a8.162,8.162,0,0,0-3.379-6.561c-3.479-2.283-8.827-.047-13.937-3.635C61.336,423.222,60.213,424.493,51.834,423.762Z" fill="#011b2e"/>
          </g>
          <g id="Group_93" data-name="Group 93">
            <g id="Group_92" data-name="Group 92">
              <g id="Group_91" data-name="Group 91">
                <g id="Group_90" data-name="Group 90">
                  <path id="Path_223" data-name="Path 223" d="M113.4,286.277c-1.192,2.017-5.273,3.564-8.784,4.425-.242.06-.481.116-.715.169-.613.138-1.2.251-1.737.343a104.375,104.375,0,0,1-17.4,1.414,27.85,27.85,0,0,1-3.4-.221c-.237-.028-.476-.061-.716-.094-6.072-.88-12.824-3.51-16.212-6.894l4.893-22.1-9.505-54.924,12.6-4.343.677-.233,2.828-.975,2.246-.772,13.342,1.76,2.171.285.766.1L104,205.473Z" fill="#ff4c1f"/>
                </g>
              </g>
            </g>
          </g>
        </g>
        <g id="Group_103" data-name="Group 103">
          <path id="Path_224" data-name="Path 224" d="M102.975,172.053s10.107-6.58,7.19-10.718c-1.282-1.818-6.737.587-6.737.587s7.653-5.914,3.888-8.094c-3.28-1.9-8,2.894-8,2.894s4.378-4.764,1.068-5.729c-4.55-1.325-9.806,2.821-16.954,4.373-7.744,1.682-15.593,8.685-9.619,18.974Z" fill="#011b2e"/>
          <g id="Group_102" data-name="Group 102">
            <g id="Group_95" data-name="Group 95">
              <path id="Path_225" data-name="Path 225" d="M89.717,194.795l-.618,7.528-.283,3.45c-4.425,3.1-11.372-1.5-11.372-1.5l-.309-11.826c2.045-1.3,7.037.591,10.127,1.535C88.718,194.422,89.717,194.795,89.717,194.795Z" fill="#ad714d"/>
            </g>
            <g id="Group_96" data-name="Group 96">
              <path id="Path_226" data-name="Path 226" d="M89.717,194.795l-.618,7.528c-5.069-1.311-9.156-8.488-9.156-8.488l7.319.142C88.718,194.422,89.717,194.795,89.717,194.795Z" fill="#8b5636"/>
            </g>
            <g id="Group_97" data-name="Group 97">
              <path id="Path_227" data-name="Path 227" d="M104,175.653c-.011.257-.022.519-.035.784a118.055,118.055,0,0,1-2.138,15.136,8.953,8.953,0,0,1-10.767,7,98.821,98.821,0,0,1-11.442-3.22,8.107,8.107,0,0,1-3.042-1.975,7.968,7.968,0,0,1-1.557-2.286,27.161,27.161,0,0,1-1.843-5.9,41.7,41.7,0,0,1-.66-5.011,2.469,2.469,0,0,0-.045-.3c.025-.913.054-1.824.09-2.715v0c.219-5.483.612-10.22.612-10.22,7.372-8.711,27.227-4.754,30.1,1.822.052.121.1.248.148.381A19.045,19.045,0,0,1,104,175.653Z" fill="#ad714d"/>
            </g>
            <g id="Group_98" data-name="Group 98">
              <path id="Path_228" data-name="Path 228" d="M76.579,193.378a7.968,7.968,0,0,1-1.557-2.286,27.161,27.161,0,0,1-1.843-5.9,5.289,5.289,0,0,1,3.084.534S80.368,191.951,76.579,193.378Z" fill="#011b2e"/>
            </g>
            <g id="Group_99" data-name="Group 99">
              <path id="Path_229" data-name="Path 229" d="M103.428,169.143h0c-6.074,3.9-16.161-1.619-16.161-1.619-.664,2.728-4.657,2.571-5.728,4.871a14.711,14.711,0,0,0-.967,4.585,2.128,2.128,0,0,1-2.176,1.955h0c-2.593-3.769-5.83-1.772-5.83-1.772v0c.219-5.483.612-10.22.612-10.22,7.372-8.711,27.227-4.754,30.1,1.822C103.332,168.883,103.381,169.01,103.428,169.143Z" fill="#011b2e"/>
            </g>
            <g id="Group_101" data-name="Group 101">
              <g id="Group_100" data-name="Group 100">
                <path id="Path_230" data-name="Path 230" d="M78.393,178.935s-3.1-3.95-5.829-1.773c-3.006,2.4-.955,10.833,5.037,10.79Z" fill="#ad714d"/>
              </g>
            </g>
          </g>
        </g>
        <path id="Path_231" data-name="Path 231" d="M104,205.473s18.1,36.235,21.937,47.083c0,0,20.1.509,28.567,0l-2.271,9.939s-20.875,2.193-27.606,2.7c-6.157.464-15.836-18.5-15.836-18.5Z" fill="#e32922"/>
        <g id="Group_108" data-name="Group 108">
          <path id="Path_232" data-name="Path 232" d="M191.678,227.672a55.25,55.25,0,0,1-76.35,65.888q-1.8-.84-3.541-1.812a55.348,55.348,0,0,1-13.722-10.8q-1.172-1.266-2.263-2.61a55.082,55.082,0,0,1-10.058-19.058c-.195-.655-.378-1.315-.544-1.979a55.3,55.3,0,0,1,58.752-68.867q2,.192,3.962.526a55.354,55.354,0,0,1,16.32,5.486q1.685.878,3.3,1.866a55.015,55.015,0,0,1,23.513,29.4C191.276,226.363,191.483,227.016,191.678,227.672Z" fill="#fdd462"/>
          <path id="Path_233" data-name="Path 233" d="M186.678,215.988,142.5,298.632a54.782,54.782,0,0,1-14.8-.978l50.425-92.946A54.923,54.923,0,0,1,186.678,215.988Z" fill="#fff" opacity="0.3"/>
          <path id="Path_234" data-name="Path 234" d="M147.914,188.962,98.065,280.95q-1.172-1.266-2.263-2.61l48.15-89.9Q145.949,188.628,147.914,188.962Z" fill="#fff" opacity="0.3"/>
          <path id="Path_235" data-name="Path 235" d="M167.538,196.314l-52.21,97.246q-1.8-.84-3.541-1.812l52.447-97.3Q165.918,195.326,167.538,196.314Z" fill="#fff" opacity="0.3"/>
          <path id="Path_236" data-name="Path 236" d="M181.047,230.845c.194.65.37,1.3.539,1.956A44.183,44.183,0,0,1,97,258.041c-.215-.636-.427-1.281-.621-1.93a44.179,44.179,0,1,1,84.669-25.266Z" fill="#f37e00"/>
          <path id="Path_237" data-name="Path 237" d="M181.586,232.8a44.237,44.237,0,0,1-30.241,53.012c-.508.151-1.013.289-1.521.421a43.966,43.966,0,0,1-29.628-2.667q-1.711-.792-3.358-1.726a44.238,44.238,0,0,1-13-11.245,42.03,42.03,0,0,1-2.43-3.443A43.829,43.829,0,0,1,97,258.041a44.191,44.191,0,0,1,38.883-54.683,43.082,43.082,0,0,1,4.392-.178,44.113,44.113,0,0,1,17.1,3.638q1.729.749,3.4,1.649a44.033,44.033,0,0,1,19.6,21.236C180.814,230.709,181.219,231.746,181.586,232.8Z" fill="#f7a219"/>
          <path id="Path_238" data-name="Path 238" d="M180.372,229.7l-30.548,56.531a43.849,43.849,0,0,1-15.278,1.227l37.833-70.015A43.946,43.946,0,0,1,180.372,229.7Z" fill="#fbe6a1" opacity="0.2"/>
          <path id="Path_239" data-name="Path 239" d="M140.274,203.18,103.84,270.6a42.03,42.03,0,0,1-2.43-3.443l34.472-63.8A43.082,43.082,0,0,1,140.274,203.18Z" fill="#fbe6a1" opacity="0.2"/>
          <path id="Path_240" data-name="Path 240" d="M160.777,208.467l-40.581,75.1q-1.711-.792-3.358-1.726l40.539-75.023Q159.106,207.567,160.777,208.467Z" fill="#fbe6a1" opacity="0.2"/>
          <g id="Group_107" data-name="Group 107">
            <g id="Group_105" data-name="Group 105">
              <g id="Group_104" data-name="Group 104">
                <path id="Path_241" data-name="Path 241" d="M151.767,265.739l2.1,7.034-8.934,2.666-2-6.717c-6.45,1.511-13.108,1.634-17.609.424l1.564-12.336a31.746,31.746,0,0,0,15.847-.312c4.246-1.267,5.5-2.608,5.048-4.129-1.664-5.576-24.844,6.241-29.779-10.3-2.137-7.16,1.263-14.73,11.22-19.289l-2.061-6.907,8.935-2.666,2.023,6.78a34.552,34.552,0,0,1,13.96-.163L150.809,232a28.562,28.562,0,0,0-13.339.392c-4.373,1.305-5.389,2.988-4.935,4.509,1.589,5.323,24.788-6.43,29.666,9.918C164.243,253.667,161.078,261.1,151.767,265.739Z" fill="#f37e00"/>
              </g>
            </g>
            <g id="Group_106" data-name="Group 106">
              <path id="Path_242" data-name="Path 242" d="M150.808,263.477l2.1,7.034-8.934,2.666-2.005-6.717c-6.45,1.511-13.107,1.634-17.608.424l1.563-12.336a31.773,31.773,0,0,0,15.848-.312c4.245-1.267,5.5-2.608,5.048-4.129-1.664-5.576-24.844,6.24-29.779-10.3-2.137-7.161,1.263-14.731,11.22-19.289l-2.061-6.907,8.934-2.666,2.024,6.78a34.534,34.534,0,0,1,13.96-.163l-1.266,12.178a28.566,28.566,0,0,0-13.34.392c-4.372,1.3-5.388,2.988-4.934,4.508,1.588,5.324,24.787-6.43,29.666,9.918C163.285,251.4,160.12,258.835,150.808,263.477Z" fill="#fdd462"/>
            </g>
          </g>
        </g>
        <g id="Group_109" data-name="Group 109">
          <path id="Path_243" data-name="Path 243" d="M117.48,264.129c-20.035,7.578-41.8-1.718-41.8-1.718s-15.494-15.493-19.125-32.256,3.265-21.764,3.265-21.764C72.1,239.843,82.1,252.557,82.1,252.557s16.845,2.836,24.827,3.925c4.338.6,10.551-1.361,10.551-1.361A29.4,29.4,0,0,1,117.48,264.129Z" fill="#e32922"/>
          <path id="Path_244" data-name="Path 244" d="M117.48,255.121s3.089-3.744,4.607-3.744,2.427,1.872,2.427,1.872,4.084-1.418,5.9.51,2.522,14.482-12.933,10.37Z" fill="#ad714d"/>
        </g>
      </g>
      <g id="Group_140" data-name="Group 140" transform="translate(108 353)">
        <g id="Group_139" data-name="Group 139">
          <path id="Path_245" data-name="Path 245" d="M391.726,166.445s4.393-11.183,21.083-9.4S430.333,175.5,431,182.5s-.316,11.434,6.625,16.822c8.375,6.5,3.875,12.1,5.208,17.808s9.576,6.707,5.5,17.37-26,9.8-38.333,5.068-21.091-25.087-15.712-33.994S391.726,166.445,391.726,166.445Z" fill="#133248"/>
          <path id="Path_246" data-name="Path 246" d="M394.288,205.574s-16.142,37.69-19.718,47.81c0,0-18.75.476-26.653,0l2.118,9.274s19.477,2.046,25.757,2.519c5.745.433,20.462-33.653,20.462-33.653C397.7,218.139,396.8,211.283,394.288,205.574Z" fill="#ad714d"/>
          <g id="Group_117" data-name="Group 117">
            <g id="Group_113" data-name="Group 113">
              <g id="Group_112" data-name="Group 112">
                <g id="Group_111" data-name="Group 111">
                  <path id="Path_247" data-name="Path 247" d="M403.512,424.3h-9.389l-5.978-72.185,6.718-66.209,25.371-2.376-15.215,75.474C409.317,376.448,405.724,398.767,403.512,424.3Z" fill="#011b2e"/>
                </g>
              </g>
              <path id="Path_248" data-name="Path 248" d="M403.783,423.737a4.388,4.388,0,0,1,.566,2.422c0,1.631-.16,7.259-.16,7.259H376.71a8.165,8.165,0,0,1,3.38-6.563c3.481-2.285,8.831-.047,13.943-3.637C394.033,423.218,395.4,424.468,403.783,423.737Z" fill="#011b2e"/>
            </g>
            <g id="Group_116" data-name="Group 116">
              <g id="Group_115" data-name="Group 115">
                <g id="Group_114" data-name="Group 114">
                  <path id="Path_249" data-name="Path 249" d="M449.171,423.758c-1.816-19.565-10.346-58.941-15.785-67.431l-.053-73.822-24.8,5.877,7.41,68.1,23.718,66.734C442.493,424.8,445.778,424.5,449.171,423.758Z" fill="#133248"/>
                </g>
              </g>
              <path id="Path_250" data-name="Path 250" d="M449.171,423.758a4.316,4.316,0,0,1,.626,2.465v7.2H422.343a8.162,8.162,0,0,1,3.38-6.563c3.481-2.285,8.83-.047,13.943-3.637C439.666,423.218,440.789,424.489,449.171,423.758Z" fill="#011b2e"/>
            </g>
          </g>
          <g id="Group_122" data-name="Group 122">
            <g id="Group_119" data-name="Group 119">
              <g id="Group_118" data-name="Group 118">
                <path id="Path_251" data-name="Path 251" d="M393.445,240.9l1.144,45.739c24.166,8.66,39.428-1.744,39.428-1.744l-6.887-38.129,9.243-34.645-6.253-3.146-1.266-.64h0l-2.748-1.383-8.681-4.372-17.443,2.257-2.421.313-1.432.185-1.838.238c.844,5.686.242,12.607-.47,19.622a23.183,23.183,0,0,0-2.427,8.706,9.039,9.039,0,0,0,1.859,5.833l0,0c.071.092.142.181.213.27Z" fill="#0ec8d4"/>
              </g>
            </g>
            <g id="Group_121" data-name="Group 121">
              <g id="Group_120" data-name="Group 120">
                <path id="Path_252" data-name="Path 252" d="M393.467,240.009l-.021.893a55.223,55.223,0,0,0,14.116,1.8,52.637,52.637,0,0,0,10.284-.992.533.533,0,1,0-.206-1.045,53.987,53.987,0,0,1-24.386-.928C393.325,239.832,393.4,239.921,393.467,240.009Z" fill="#0ca1c1"/>
              </g>
            </g>
          </g>
          <g id="Group_132" data-name="Group 132">
            <g id="Group_123" data-name="Group 123">
              <path id="Path_253" data-name="Path 253" d="M417.873,195.089l-17-2.46a10.432,10.432,0,0,1-10.341-9.006q-.4-2.905-.722-6.037a30.474,30.474,0,0,1,1.039-9c1.563-5.071,6.272-9.846,16.867-10.231,12.5-.453,19.382,10.519,19.069,23.929l0,.114C426.653,188.081,423.558,195.089,417.873,195.089Z" fill="#133248"/>
            </g>
            <g id="Group_131" data-name="Group 131">
              <g id="Group_124" data-name="Group 124">
                <path id="Path_254" data-name="Path 254" d="M407.005,196.856l.551,3.091.62,3.495.534,3.02a6.729,6.729,0,0,0,5.621.1,16.515,16.515,0,0,0,4.283-2.377l-.02-.244L418.5,202.8l-.627-7.713-.128-1.617c-.965-.492-2.483-.138-4.088.475-1.577.6-3.244,1.45-4.553,1.986C407.859,196.448,407.005,196.856,407.005,196.856Z" fill="#ad714d"/>
              </g>
              <g id="Group_125" data-name="Group 125">
                <path id="Path_255" data-name="Path 255" d="M407.007,196.858l1.169,6.585c4.36-1.577,7.367-8.243,7.367-8.243l-6.44.733C407.856,196.447,407.007,196.858,407.007,196.858Z" fill="#8b5636"/>
              </g>
              <g id="Group_126" data-name="Group 126">
                <path id="Path_256" data-name="Path 256" d="M420.85,189.85s-1.45,4.2-2.98,5.24a34.516,34.516,0,0,1-3.89,2.44,24.54,24.54,0,0,1-6.43,2.42,15.01,15.01,0,0,1-7.6-.25c-6.52-2.05-8.05-13.01-8.29-20.65-.01-.22-.02-.43-.02-.63-.07-2.75.02-5.01.09-6.16.03-.52.05-.82.05-.82l19.45-.18,4.11-.03c2.51,1.16,3.9,4.56,4.65,8.33a51.471,51.471,0,0,1,.85,9.11C420.85,189.09,420.85,189.48,420.85,189.85Z" fill="#ad714d"/>
              </g>
              <g id="Group_129" data-name="Group 129">
                <g id="Group_128" data-name="Group 128">
                  <g id="Group_127" data-name="Group 127">
                    <path id="Path_257" data-name="Path 257" d="M416.734,181.946s2.388-3.95,5.107-1.777c3,2.394,1.651,10.818-4.325,10.77Z" fill="#ad714d"/>
                  </g>
                </g>
              </g>
              <g id="Group_130" data-name="Group 130">
                <path id="Path_258" data-name="Path 258" d="M391.726,172.263c.06,2.512,4.46,5.025,20.535,5.169,0,0,.005,7.408,3.171,6.733.753-.161,1.495-4.445,4.56-4.649.856-7.016-2.167-7.149-4.653-8.29l-23.559.217S391.756,171.737,391.726,172.263Z" fill="#133248"/>
              </g>
            </g>
          </g>
          <g id="Group_137" data-name="Group 137">
            <path id="Path_259" data-name="Path 259" d="M403.335,265.32a55.252,55.252,0,0,1-99.224,18.034q-1.127-1.64-2.132-3.359a55.349,55.349,0,0,1-6.345-16.267q-.366-1.686-.625-3.4a55.081,55.081,0,0,1,1-21.526q.246-1,.536-1.982a55.3,55.3,0,0,1,85.571-29.53q1.623,1.178,3.147,2.463a55.362,55.362,0,0,1,11.279,13.009q1.006,1.611,1.9,3.284a55.009,55.009,0,0,1,5.341,37.268C403.652,263.988,403.5,264.656,403.335,265.32Z" fill="#fdd462"/>
            <path id="Path_260" data-name="Path 260" d="M404.955,252.715l-80,48.8a54.8,54.8,0,0,1-12.256-8.352l90.614-54.5A54.919,54.919,0,0,1,404.955,252.715Z" fill="#fff" opacity="0.3"/>
            <path id="Path_261" data-name="Path 261" d="M385.266,209.756l-89.632,53.972q-.366-1.686-.625-3.4l87.11-53.038Q383.742,208.471,385.266,209.756Z" fill="#fff" opacity="0.3"/>
            <path id="Path_262" data-name="Path 262" d="M398.445,226.049l-94.334,57.305q-1.127-1.64-2.132-3.359l94.566-57.23Q397.551,224.376,398.445,226.049Z" fill="#fff" opacity="0.3"/>
            <path id="Path_263" data-name="Path 263" d="M392.564,262.66c-.163.658-.343,1.312-.528,1.959a44.183,44.183,0,0,1-85.7-21.172c.137-.658.282-1.321.445-1.98a44.179,44.179,0,1,1,85.779,21.193Z" fill="#f37e00"/>
            <path id="Path_264" data-name="Path 264" d="M392.036,264.619a44.236,44.236,0,0,1-52.958,30.334c-.514-.127-1.02-.264-1.525-.408a43.963,43.963,0,0,1-24.176-17.332q-1.074-1.553-2.018-3.191a44.255,44.255,0,0,1-5.495-16.286c-.185-1.385-.3-2.792-.347-4.2a43.838,43.838,0,0,1,.823-10.089,44.194,44.194,0,0,1,61.253-27.391,43.279,43.279,0,0,1,3.875,2.075,44.155,44.155,0,0,1,12.892,11.814q1.11,1.522,2.093,3.146a44.037,44.037,0,0,1,6.109,28.242C392.432,262.424,392.255,263.523,392.036,264.619Z" fill="#f7a219"/>
            <path id="Path_265" data-name="Path 265" d="M392.562,261.333l-55.009,33.212a43.867,43.867,0,0,1-13.787-6.7l68.128-41.134A43.922,43.922,0,0,1,392.562,261.333Z" fill="#fbe6a1" opacity="0.2"/>
            <path id="Path_266" data-name="Path 266" d="M371.468,218.131l-65.6,39.6c-.185-1.385-.3-2.792-.347-4.2l62.076-37.48A43.279,43.279,0,0,1,371.468,218.131Z" fill="#fbe6a1" opacity="0.2"/>
            <path id="Path_267" data-name="Path 267" d="M386.453,233.091l-73.076,44.122q-1.074-1.553-2.018-3.191l73-44.077Q385.47,231.468,386.453,233.091Z" fill="#fbe6a1" opacity="0.2"/>
            <g id="Group_136" data-name="Group 136">
              <g id="Group_134" data-name="Group 134">
                <g id="Group_133" data-name="Group 133">
                  <path id="Path_268" data-name="Path 268" d="M349.627,277.87,347.866,285l-9.051-2.236,1.681-6.805c-6.325-1.971-12.124-5.243-15.388-8.57l7.606-9.836a31.765,31.765,0,0,0,13.815,7.772c4.3,1.063,6.064.545,6.444-1,1.4-5.649-24.574-7.229-20.435-23.985,1.793-7.254,8.563-12.052,19.457-10.927l1.728-7,9.052,2.236-1.7,6.869a34.546,34.546,0,0,1,12.112,6.944l-7.27,9.851a28.571,28.571,0,0,0-11.694-6.431c-4.429-1.094-6.159-.159-6.539,1.381-1.333,5.393,24.622,7.037,20.53,23.6C366.5,273.8,360.006,278.6,349.627,277.87Z" fill="#f37e00"/>
                </g>
              </g>
              <g id="Group_135" data-name="Group 135">
                <path id="Path_269" data-name="Path 269" d="M349.949,275.435l-1.76,7.125-9.052-2.236,1.681-6.8c-6.324-1.971-12.123-5.243-15.388-8.569l7.607-9.837a31.746,31.746,0,0,0,13.814,7.772c4.3,1.063,6.064.545,6.445-1,1.4-5.649-24.575-7.229-20.435-23.984,1.792-7.255,8.563-12.053,19.456-10.928l1.729-7,9.051,2.237-1.7,6.869a34.519,34.519,0,0,1,12.112,6.943l-7.27,9.851a28.561,28.561,0,0,0-11.693-6.431c-4.43-1.094-6.159-.159-6.54,1.382-1.332,5.392,24.622,7.036,20.53,23.6C366.826,271.362,360.328,276.16,349.949,275.435Z" fill="#fdd462"/>
              </g>
            </g>
          </g>
          <g id="Group_138" data-name="Group 138">
            <path id="Path_270" data-name="Path 270" d="M382.461,264.182c18.693,7.071,39-1.6,39-1.6s14.456-14.455,17.843-30.095-3.046-20.307-3.046-20.307C424.8,241.524,416,255.236,416,255.236s-13.891,2.446-23.693,1.812c-4.077-.264-9.843-1.27-9.843-1.27A27.42,27.42,0,0,0,382.461,264.182Z" fill="#ad714d"/>
            <path id="Path_271" data-name="Path 271" d="M382.461,255.778s-2.883-3.493-4.3-3.493-2.263,1.746-2.263,1.746-3.811-1.323-5.5.477-2.353,13.511,12.067,9.674Z" fill="#ad714d"/>
          </g>
        </g>
      </g>
      <g id="Group_143" data-name="Group 143" transform="translate(108 353)">
        <g id="Group_141" data-name="Group 141">
          <path id="Path_272" data-name="Path 272" d="M200.546,157.126c-3.84.835-5.379,2.374-6.214,6.214a.9.9,0,0,1-1.762,0c-.835-3.84-2.374-5.379-6.214-6.214a.9.9,0,0,1,0-1.762c3.84-.835,5.379-2.375,6.214-6.214a.9.9,0,0,1,1.762,0c.835,3.839,2.374,5.379,6.214,6.214A.9.9,0,0,1,200.546,157.126Z" fill="#fff"/>
          <path id="Path_273" data-name="Path 273" d="M186.6,175.324a3.576,3.576,0,0,0-3.242,3.242.47.47,0,0,1-.919,0,3.577,3.577,0,0,0-3.242-3.242.47.47,0,0,1,0-.919,3.576,3.576,0,0,0,3.242-3.242.47.47,0,0,1,.919,0A3.574,3.574,0,0,0,186.6,174.4.47.47,0,0,1,186.6,175.324Z" fill="#fff"/>
        </g>
        <g id="Group_142" data-name="Group 142">
          <path id="Path_274" data-name="Path 274" d="M388.091,115.537c-3.84.835-5.379,2.374-6.214,6.214a.9.9,0,0,1-1.762,0c-.835-3.84-2.374-5.379-6.214-6.214a.9.9,0,0,1,0-1.762c3.84-.835,5.379-2.375,6.214-6.214a.9.9,0,0,1,1.762,0c.835,3.839,2.374,5.379,6.214,6.214A.9.9,0,0,1,388.091,115.537Z" fill="#fff"/>
          <path id="Path_275" data-name="Path 275" d="M395.117,131.444a3.575,3.575,0,0,0-3.242,3.241.47.47,0,0,1-.919,0,3.576,3.576,0,0,0-3.242-3.241.471.471,0,0,1,0-.92,3.576,3.576,0,0,0,3.242-3.241.47.47,0,0,1,.919,0,3.575,3.575,0,0,0,3.242,3.241A.471.471,0,0,1,395.117,131.444Z" fill="#fff"/>
        </g>
      </g>
    </g>
  </g>
</svg>
