<svg xmlns="http://www.w3.org/2000/svg" xmlns:xlink="http://www.w3.org/1999/xlink" width="552.77" height="436.04" viewBox="0 0 552.77 436.04">
  <defs>
    <clipPath id="clip-path">
      <rect id="Rectangle_367" data-name="Rectangle 367" width="353.243" height="216.294" fill="none"/>
    </clipPath>
  </defs>
  <g id="Group_10079" data-name="Group 10079" transform="translate(-64 -483.263)">
    <path id="Path_5688" data-name="Path 5688" d="M1395.578,679.176s97.845-98.87-137.211-104.167-213.456-17.41-254.514-33.068-110.293-11.161-74.767,79.232,147.475,140.968,264.1,155.468S1395.578,679.176,1395.578,679.176Z" transform="matrix(0.899, -0.438, 0.438, 0.899, -996.744, 623.077)" fill="#3c8c2e" opacity="0.096"/>
    <g id="Group_9945" data-name="Group 9945" transform="translate(183 592)" clip-path="url(#clip-path)">
      <path id="Path_5545" data-name="Path 5545" d="M446.954,52.216l-.112-.037a16.081,16.081,0,0,1-4-2.347,27.179,27.179,0,0,1-10.6-18.913l-.549-5.037,7.24-5.261h.1c.27,0,6.68.162,12.091,10.964,7.312,14.622,2.87,17.561,2.677,17.679-.04.021-6.85,2.952-6.85,2.952m-14.6-26.042.511,4.676a26.558,26.558,0,0,0,10.356,18.481,17.081,17.081,0,0,0,3.714,2.214l6.557-2.822c.261-.2,3.87-3.277-2.921-16.859-4.884-9.752-10.632-10.55-11.44-10.614Z" transform="translate(-153.405 -7.328)" fill="#382d62"/>
      <path id="Path_5546" data-name="Path 5546" d="M451.393,51.114l.185-.636c.019-.061,1.75-6.274-2.785-14.57-5.132-9.388-11.192-12.293-11.252-12.321l-.481-.224,3.787-2.749.11,0c.249.012,6.186.422,12.07,10.952,8.029,14.365,2.9,17.565,2.678,17.694-.034.017-4.312,1.849-4.312,1.849M438.262,23.263c1.539.863,6.609,4.171,11.078,12.346,3.833,7.012,3.292,12.629,2.969,14.434L455.4,48.72c.268-.184,4.572-3.44-2.919-16.844-5.28-9.447-10.651-10.513-11.455-10.621Z" transform="translate(-155.312 -7.326)" fill="#382d62"/>
      <path id="Path_5547" data-name="Path 5547" d="M443.647,26.663a2.571,2.571,0,1,1,2.57-2.571,2.573,2.573,0,0,1-2.57,2.571m0-4.517a1.947,1.947,0,1,0,1.946,1.946,1.948,1.948,0,0,0-1.946-1.946" transform="translate(-156.74 -7.648)" fill="#ffee93"/>
      <path id="Path_5548" data-name="Path 5548" d="M453.211,36.118a2.57,2.57,0,1,1,2.57-2.57,2.573,2.573,0,0,1-2.57,2.57m0-4.516a1.946,1.946,0,1,0,1.947,1.946,1.948,1.948,0,0,0-1.947-1.946" transform="translate(-160.138 -11.008)" fill="#ffee93"/>
      <path id="Path_5549" data-name="Path 5549" d="M459.483,47.871a2.571,2.571,0,1,1,2.57-2.57,2.573,2.573,0,0,1-2.57,2.57m0-4.517a1.947,1.947,0,1,0,1.946,1.947,1.948,1.948,0,0,0-1.946-1.947" transform="translate(-162.367 -15.184)" fill="#ffee93"/>
      <path id="Path_5550" data-name="Path 5550" d="M462.986,62.521a2.57,2.57,0,1,1,2.57-2.57,2.573,2.573,0,0,1-2.57,2.57m0-4.516a1.946,1.946,0,1,0,1.946,1.946,1.949,1.949,0,0,0-1.946-1.946" transform="translate(-163.612 -20.391)" fill="#ffee93"/>
      <path id="Path_5551" data-name="Path 5551" d="M466.136,115.354s-2.656,11.872-7.469,12.845l-.389.906-5.354,12.11H435.655l-5.569-12.563-.195-.453c-4.814-.972-7.469-12.845-7.469-12.845s-15.91-30.373-14.938-36.438c.949-6.088,15.716-27.7,16.211-28.6.475-.907.325-4.533-.237-6.628s.8-3.928,1.445-2.806c.627,1.122,1.275,6.217,1.836,5.245s0-1.813-.649-4.533c-.626-2.742.26-3.994,1.619-2.461s2.094,7.749,2.806,6.217c.734-1.533-1.273-4.188-.95-5.872.3-1.662,1.187-.345,3.131,1.835,1.92,2.159,1.446,7.75,2.72,6.843,1.294-.906,1.445-2.655,2.913-1.274,1.49,1.4-.172,6.023-3.174,10.621-3.021,4.62-9.023,17.42-9.735,20.982-.734,3.562,4.468,18.392,7.62,23.206,2.871,4.447,10.642,5.612,11.873,5.785,2.634-.561,8.268-2.158,10.621-5.785,3.13-4.814,8.332-19.644,7.621-23.206-.735-3.562-6.735-16.363-9.737-20.982-3.022-4.6-4.662-9.218-3.195-10.621,1.469-1.381,1.62.367,2.914,1.274s.8-4.684,2.742-6.843c1.92-2.18,2.806-3.5,3.129-1.835.324,1.684-1.684,4.339-.971,5.872.735,1.532,1.447-4.685,2.807-6.217,1.381-1.533,2.267-.281,1.619,2.461-.647,2.72-1.209,3.562-.647,4.533s1.209-4.123,1.857-5.245,2.008.712,1.447,2.806-.735,5.721-.238,6.628c.474.906,12.714,20.485,13.686,26.574.971,6.065-12.434,38.468-12.434,38.468" transform="translate(-144.787 -13.67)" fill="#b07e71"/>
      <path id="Path_5552" data-name="Path 5552" d="M472.2,192.129c-.129-.022-.259-.022-.389-.043-.388-.043-.863-.043-1.294-.065-1.511-.086-3.281-.086-5.246-.043l-.258.021-5.246.367-1.1.086-12.456.885a2.186,2.186,0,0,1-.216.237,4.25,4.25,0,0,1-.41.518,9.9,9.9,0,0,1-8.355,3.454,14.352,14.352,0,0,1-6.023-1.663,12.389,12.389,0,0,1-1.662-1.122c-.712.021-1.49.044-2.353.086h-.324c-2.7.108-5.958.281-9.434.6-.54.043-1.058.086-1.6.151-.324.043-.648.086-.993.13-.193,0-.409.043-.625.065s-.454.043-.669.086c-1.987.216-3.994.518-5.937.886-1.317.215-2.612.474-3.865.777-.409.086-.841.173-1.251.28a32.21,32.21,0,0,0-8.117,3.044c-11.139,6.476-14.377,16.9,0,28.063,6.476,5.03,18.565,11.161,29.9,16.687l1.749.841c-2.353,3.346-4.015,5.936-4.188,6.929-.647,3.778,17.7,15.284,19.86,14.2s-1.619-4.123,0-6.109c.3-.388,2.029-2.094,4.684-4.727l.195-.195c2.785,1.511,4.512,2.677,4.663,3.3.712,3.239,1.382,4.447,3.821,4.318,1.857-.086,3.411-12.65,3.778-19.86,1.037-1.058,2.094-2.136,3.152-3.237,12.284-12.585,25.861-27.33,27.481-32.769,2.957-9.973-7.556-15.111-17.27-16.19M431.85,222.221a6.357,6.357,0,0,0,1.166-.258c.021,0,.064-.023.086-.023,2.267-.734,5.2-2.352,11.247-.518.064.022.13.022.194.043.216.065.432.13.67.216,0,0-2.029,2.483-4.9,6.087-4.275-2.4-7.793-4.425-8.505-5.2-.173-.195-.173-.324.043-.346" transform="translate(-136.73 -68.211)" fill="#b07e71"/>
      <path id="Path_5553" data-name="Path 5553" d="M470.882,194.093c-6.995.712-12.494,1.41-12.494,1.41s-1.6-.025-4.166.03a13.387,13.387,0,0,0,7.684,2.776,10.07,10.07,0,0,0,8.975-4.215" transform="translate(-161.411 -68.972)" fill="#b07e71"/>
      <path id="Path_5554" data-name="Path 5554" d="M449.949,196.313c.043.021.065.021.108.043-.237-.022-.54-.022-.108-.043" transform="translate(-159.814 -69.761)" fill="#ffee93"/>
      <path id="Path_5555" data-name="Path 5555" d="M480.973,192.021a82.943,82.943,0,0,1-6.648,12.866,3.45,3.45,0,0,0-3.023,2.483c-.13.129-.259.259-.388.366a3.52,3.52,0,0,0-3.281,2.785c-1.209.842-2.5,1.619-3.649,2.569a34.919,34.919,0,0,0-5.785,6.433,3.443,3.443,0,0,0-1.791,1.338c-.476.173-.929.367-1.4.5l-.195.064c-6.044-1.834-8.98-.216-11.246.518-.044,0-.906.756-.95.756-.108-.043-.237-.086-.346-.129-14.809-5.4-24.22-17.68-28.063-25.02,1.252-.3,2.547-.561,3.864-.777,1.943-.367,3.95-.669,5.936-.885.216-.043.453-.064.669-.086s.432-.064.626-.064c.346-.044.669-.086.993-.13.54-.065,1.057-.108,1.6-.151,3.476-.324,6.735-.5,9.434-.6a.322.322,0,0,0,.151-.021.04.04,0,0,1,.065,0,.183.183,0,0,0,.13.043,21.281,21.281,0,0,0,3.994,1.014c6.066.906,12.369-.346,14.528-2.094.086-.064.172-.151.258-.216a2.184,2.184,0,0,0,.216-.237l12.456-.885,1.1-.086,5.246-.367.258-.021c1.965-.044,3.735-.044,5.246.043" transform="translate(-147.19 -68.21)" fill="#ffee93"/>
      <path id="Path_5556" data-name="Path 5556" d="M445.167,233.332c-6.624-3.9-28.9-14.548-29.124-14.655l.134-.282c.224.108,22.512,10.762,29.148,14.669Z" transform="translate(-147.844 -77.608)" fill="#382d62"/>
      <path id="Path_5557" data-name="Path 5557" d="M477.857,191.994s-9.174,22.558-31.128,20.767a34.334,34.334,0,0,1-26.53-15.974c1.942-.367,3.95-.669,5.937-.885.216-.044.453-.065.669-.086s.432-.065.625-.065c.346-.043.669-.086.993-.13.54-.065,1.058-.108,1.6-.151,3.476-.324,6.735-.5,9.434-.6a.324.324,0,0,0,.151-.021c.022,0,.043.021.065.021h.108c.216.475,1.986,3.886,9.045,4.21a9.524,9.524,0,0,0,9.347-4.965c.065-.108.108-.216.151-.3.13-.26.194-.432.194-.432l.281-.022,12.456-.885,1.1-.086,5.246-.367Z" transform="translate(-149.32 -68.226)" fill="#382d62"/>
      <path id="Path_5558" data-name="Path 5558" d="M429.408,198.006c.215-.043.453-.065.668-.086a2.865,2.865,0,0,0-.6.216Z" transform="translate(-152.593 -70.332)" fill="#ffee93"/>
      <path id="Path_5559" data-name="Path 5559" d="M476.339,192.6a4.533,4.533,0,0,1-.474,1.511,3.767,3.767,0,0,1-2.612,1.921,6.935,6.935,0,0,1-2.223-.108c-.195-.021-.389-.064-.583-.086a3.147,3.147,0,0,0-2.374.5.767.767,0,0,0-.194.756c.065.475.431.712,1.014,1.08a2.6,2.6,0,0,1,1.576,2.827,3.025,3.025,0,0,1-2.655,2.439,5.544,5.544,0,0,1-2.979-.95l-.432-.237c-.69-.389-1.252-.519-1.489-.367-.518.346-.411,2.2-.346,2.893.043.841.216,3.367-1.813,4.144a2.614,2.614,0,0,1-1.057.195c-2.03,0-4.124-1.986-5.16-3.54-.389-.626-.885-1.381-1.381-1.467a.661.661,0,0,0-.518.151,3.082,3.082,0,0,0-.885,1.4,5.845,5.845,0,0,1-.432.907,4,4,0,0,1-6.67,0,8.182,8.182,0,0,1-.755-2.029c-.367-1.339-.669-2.158-1.468-2.375s-1.663.411-2.569,1.058c-1.1.82-2.331,1.727-3.669.993-1.361-.734-1.253-2.332-1.166-3.713a10.21,10.21,0,0,0,.044-1.382,3.339,3.339,0,0,0-1.749-2.611,3.905,3.905,0,0,0-1.9-.54c.346-.044.67-.086.993-.13.54-.064,1.058-.108,1.6-.151a4.4,4.4,0,0,1,2.137,3.368c.022.5-.021,1.014-.043,1.51-.108,1.425-.108,2.31.6,2.7.691.367,1.4-.086,2.526-.906,1.015-.734,2.159-1.576,3.475-1.253,1.447.389,1.857,1.857,2.223,3.152a8.171,8.171,0,0,0,.648,1.77,2.692,2.692,0,0,0,2.4,1.253,2.8,2.8,0,0,0,2.417-1.253c.13-.237.238-.518.367-.777a3.962,3.962,0,0,1,1.252-1.878,1.751,1.751,0,0,1,1.36-.324c.928.173,1.554,1.122,2.007,1.814,1.123,1.705,3.346,3.691,4.987,3.065.884-.346,1.251-1.3,1.122-3.065-.108-1.619-.151-3.239.842-3.887.6-.388,1.468-.3,2.59.3l.453.258a4.377,4.377,0,0,0,2.354.821,1.9,1.9,0,0,0,1.662-1.533c.151-.928-.259-1.23-1.058-1.727a2.707,2.707,0,0,1-1.533-1.857,1.911,1.911,0,0,1,.518-1.662,4.181,4.181,0,0,1,3.26-.82c.216.043.431.064.625.108a6.241,6.241,0,0,0,1.878.108,2.721,2.721,0,0,0,1.835-1.382,3.839,3.839,0,0,0,.324-.906Z" transform="translate(-153.306 -68.44)" fill="#ffee93"/>
      <path id="Path_5560" data-name="Path 5560" d="M449.2,212.994c-20.054,0-30.5-16.443-30.6-16.609l.8-.494c.1.162,10.284,16.167,29.8,16.167h.193c19.6-.106,27.381-20.8,27.459-21.006l.879.322c-.078.215-8.088,21.512-28.332,21.621Z" transform="translate(-148.752 -67.892)" fill="#b07e71"/>
      <path id="Path_5561" data-name="Path 5561" d="M458.929,200.23a12.282,12.282,0,0,1-10.337-5.391l.8-.484a11.542,11.542,0,0,0,9.519,4.939c6.74,0,9.255-4.3,9.518-5.364l.91.224c-.47,1.9-3.744,6.076-10.412,6.076" transform="translate(-159.41 -68.914)" fill="#b07e71"/>
      <path id="Path_5562" data-name="Path 5562" d="M487.143,265.13c-.367,7.21-1.921,19.774-3.778,19.86-2.44.13-3.109-1.079-3.821-4.318-.151-.625-1.878-1.791-4.641-3.281-.022-.022-10.47-4.879-10.47-4.879l8.224-22.018,12.631,8.236s2.928,1.367,1.854,6.4" transform="translate(-165.04 -89.015)" fill="#ffee93"/>
      <path id="Path_5563" data-name="Path 5563" d="M489.507,252l-.582-6.227c-1.344-3.053-18.042-12.306-18.21-12.4l-.165-.092.121-.145c.167-.2,16.82-20.17,27.167-24.79l.127.286c-9.816,4.384-25.4,22.737-26.933,24.56,1.862,1.035,16.928,9.483,18.191,12.482.011.046.6,6.3.6,6.3Z" transform="translate(-167.213 -74.037)" fill="#382d62"/>
      <path id="Path_5564" data-name="Path 5564" d="M462.116,291.55c-1.619,1.986,2.159,5.03,0,6.109s-20.507-10.426-19.86-14.2c.173-.993,1.835-3.583,4.166-6.907L466.8,286.823c-2.655,2.633-4.382,4.338-4.685,4.727" transform="translate(-157.152 -98.273)" fill="#ffee93"/>
      <path id="Path_5565" data-name="Path 5565" d="M469.218,287.077l-21.1-10.512.139-.28,21.1,10.511Z" transform="translate(-159.242 -98.18)" fill="#382d62"/>
      <path id="Path_5566" data-name="Path 5566" d="M487.851,259.078l-5.345,22.031c-.085.351.456.5.542.149q2.673-11.015,5.345-22.031c.086-.351-.456-.5-.542-.15" transform="translate(-171.458 -91.994)" fill="#b07e71"/>
      <path id="Path_5567" data-name="Path 5567" d="M447.547,277.911l18.383,12c.3.2.585-.288.283-.485l-18.383-12c-.3-.2-.585.288-.283.485" transform="translate(-158.993 -98.568)" fill="#b07e71"/>
      <path id="Path_5568" data-name="Path 5568" d="M474.615,277.927l-4.339-4.328,5.449.512-4.193-4.367.226-.081,6.733-2.42-4.6-5.233,5.758-.941-4.167-4.237,5.277.824-2.452-3.38.252-.183,2.893,3.987-5.087-.8,3.929,3.994-5.8.948,4.53,5.155-.216.077-6.722,2.416,4.441,4.626-5.419-.51,3.725,3.713Z" transform="translate(-167.116 -90.294)" fill="#382d62"/>
      <path id="Path_5569" data-name="Path 5569" d="M435.156,258.079l-3.4-4.94,4.987,1.245-3.264-4.973,6.827-1.6-3.514-5.9,5.487-.183-3.259-4.836,4.781,1.535-1.793-3.751.282-.134,2.105,4.4-4.613-1.481,3.07,4.556-5.522.185,3.462,5.812-6.807,1.593,3.456,5.265-4.961-1.237,2.93,4.26Z" transform="translate(-153.428 -83.347)" fill="#382d62"/>
      <path id="Path_5570" data-name="Path 5570" d="M494.491,253.267l3.161-3.688-5.565,1,1.884-5.2-6.924.858,1-6.97-6.384,1.074,3.053-4.107-5.243,1-.059-.307,6.029-1.147-3.068,4.127,6.041-1.015-1,6.987,7.024-.871-1.873,5.173,5.9-1.065-3.271,3.814,4.322-.145.012.312Z" transform="translate(-170.363 -83.786)" fill="#382d62"/>
      <rect id="Rectangle_365" data-name="Rectangle 365" width="24.027" height="0.312" transform="translate(284.979 176.159) rotate(-65.606)" fill="#382d62"/>
      <path id="Path_5571" data-name="Path 5571" d="M493.356,259.665,475.18,241.987l.217-.224,18.176,17.677Z" transform="translate(-168.858 -85.912)" fill="#382d62"/>
      <rect id="Rectangle_366" data-name="Rectangle 366" width="24.092" height="0.313" transform="translate(275.16 171.22) rotate(-66.027)" fill="#382d62"/>
      <path id="Path_5572" data-name="Path 5572" d="M504.368,247.959l-18.845-17.232.211-.229,18.844,17.233Z" transform="translate(-172.534 -81.909)" fill="#382d62"/>
      <path id="Path_5573" data-name="Path 5573" d="M454.162,272.761a2.52,2.52,0,1,1,2.486-2.119,2.541,2.541,0,0,1-2.486,2.119m0-4.729a2.207,2.207,0,1,0,.354.028,2.367,2.367,0,0,0-.354-.028" transform="translate(-160.493 -95.136)" fill="#382d62"/>
      <path id="Path_5574" data-name="Path 5574" d="M459.527,262.558a2.539,2.539,0,0,1-.4-.033,2.516,2.516,0,1,1,.4.033m0-4.729a2.208,2.208,0,1,0,.354.028,2.361,2.361,0,0,0-.354-.028" transform="translate(-162.4 -91.51)" fill="#382d62"/>
      <path id="Path_5575" data-name="Path 5575" d="M464.9,252.333a2.52,2.52,0,1,1,2.486-2.118,2.534,2.534,0,0,1-2.486,2.118m0-4.728a2.208,2.208,0,1,0,.354.028,2.364,2.364,0,0,0-.354-.028" transform="translate(-164.307 -87.877)" fill="#382d62"/>
      <path id="Path_5576" data-name="Path 5576" d="M462.756,300.506a58.571,58.571,0,0,1-20.264-14.343l.238-.2a58.238,58.238,0,0,0,20.143,14.255Z" transform="translate(-157.242 -101.618)" fill="#382d62"/>
      <path id="Path_5577" data-name="Path 5577" d="M492.574,289.543l-.3-.078c.041-.155,3.992-15.762,2.756-26.185l.309-.037c1.243,10.481-2.722,26.144-2.762,26.3" transform="translate(-174.932 -93.545)" fill="#382d62"/>
      <path id="Path_5578" data-name="Path 5578" d="M474.394,155.748s-2.656,11.872-7.469,12.845l-.389.906s-3.6-2.159-8.289-5.548c-4.685-3.368-6.3-3.087-9.153-1.469-2.223,1.274-6.477,5.181-10.751,6.562l-.195-.453c-4.814-.972-7.469-12.845-7.469-12.845a67.962,67.962,0,0,1,43.714,0" transform="translate(-153.045 -54.064)" fill="#382d62"/>
      <path id="Path_5579" data-name="Path 5579" d="M457.487,127.464s-5.708-1.049-5.091-3.371.159-2.641-1.233-3.838-.821-4.9.206-5.495.722-3.5-.512-5.642.2-4.1,1.436-4.1,3.568.855,3.838-1.026,1.712-3.676,3.507-2.735.754,1.625,1.942,3.163,1.607.769,3.5,1.8,2.718,2.992,1.485,4.275-1.81,2.1.584,3.743,3.01,3.783,1.984,4.294-2.465.426-1.849,1.793.924,3.847-.821,4.959a13.951,13.951,0,0,0-2.492,1.71c-1,.855-4.676,2.775-6.486.479" transform="translate(-160.03 -35.889)" fill="#557ac1"/>
      <path id="Path_5580" data-name="Path 5580" d="M464.6,124.572a5.248,5.248,0,0,0-3.646-.277,4.443,4.443,0,0,0-2.856,1.919c-1.144,2.113-1.042,6.157,1.423,8.093a4.043,4.043,0,0,0,6.662-2.488c.6-2.918,1.218-5.883-1.583-7.248" transform="translate(-162.537 -44.098)" fill="#b07e71"/>
      <path id="Path_5581" data-name="Path 5581" d="M461.429,135.959v5.685a2.075,2.075,0,0,0,4.094,0v-5.685Z" transform="translate(-163.972 -48.314)" fill="#b07e71"/>
      <path id="Path_5582" data-name="Path 5582" d="M456.868,131.3s-.837-.968-.969,0,.413,2.845,1.219,2.457a1.622,1.622,0,0,0,.982-1.18,11.431,11.431,0,0,0-1.233-1.276" transform="translate(-162 -46.506)" fill="#b07e71"/>
      <path id="Path_5583" data-name="Path 5583" d="M471,131.3s.837-.968.968,0-.413,2.845-1.219,2.457a1.623,1.623,0,0,1-.982-1.18A11.431,11.431,0,0,1,471,131.3" transform="translate(-166.935 -46.506)" fill="#b07e71"/>
      <path id="Path_5584" data-name="Path 5584" d="M456.861,128.068s4.943.592,7.562-2.9c0,0,.805,3.95,1.635,2.9s1.5-1.051,1.24-2.9-4.108-3.543-6.008-3.389-2.8-.051-3.2.822-3.917,3.179-1.233,5.467" transform="translate(-161.993 -43.272)" fill="#557ac1"/>
      <path id="Path_5585" data-name="Path 5585" d="M458.922,144.15l3.429,5.147a.285.285,0,0,0,.485,0l3.792-5.147c.215-.291-.273-.572-.485-.284l-3.792,5.147h.485l-3.428-5.147c-.2-.3-.687-.019-.485.284" transform="translate(-163.064 -51.078)" fill="#ffee93"/>
      <path id="Path_5586" data-name="Path 5586" d="M466.283,157.473c-.279,5.181-8.1,5.23-8.1,0s7.816-5.186,8.1,0c.019.36.581.362.562,0a4.61,4.61,0,1,0-4.846,4.6,4.683,4.683,0,0,0,4.846-4.6c.019-.362-.542-.36-.562,0" transform="translate(-162.62 -54.321)" fill="#ffee93"/>
      <path id="Path_5587" data-name="Path 5587" d="M428.7,62.54l12.275,6.177c.322.162.607-.322.283-.485L428.98,62.055c-.322-.162-.607.322-.283.485" transform="translate(-152.29 -22.04)" fill="#ffee93"/>
      <path id="Path_5588" data-name="Path 5588" d="M420.321,75.661l13.137,6.769c.32.165.6-.32.283-.485L420.6,75.176c-.321-.166-.605.319-.284.485" transform="translate(-149.314 -26.702)" fill="#ffee93"/>
      <path id="Path_5589" data-name="Path 5589" d="M424.526,68.084a1.6,1.6,0,0,0,.735,1.416c.908.6,1.593-.241,2.367.037,1.223.44.34,1.322.928,1.993.349.4.682.24,1.127.322,1.347.246-.164-.866,1.409.228,1.974,1.374-.5.09.821,1.321.52.484.278.289.91.554,1.265.529.235-.859,2.062.647.168.139.207.5.407.634a3.832,3.832,0,0,0,2.473.638.281.281,0,0,0,0-.561c-1.379.021-1.873-1.41-2.943-1.829-.353-.138-.748-.043-1.069-.156-.7-.246-.916-.525-1.327-1.4-.087-.185.017-.592-.122-.746a1.38,1.38,0,0,0-.712-.516c-.33-.116-.555.088-.875.075q-.656.7-1.14-.144-.6-.122-.535-.5c-.075-.137.155-.463.042-.605-.682-.863-3.952-.947-4-1.407-.035-.356-.6-.36-.561,0" transform="translate(-150.858 -24.098)" fill="#ffee93"/>
      <path id="Path_5590" data-name="Path 5590" d="M482.029,71.517l12.99-5.285c1.1-.449.62-2.261-.5-1.806l-12.991,5.285c-1.1.448-.62,2.261.5,1.806" transform="translate(-170.894 -22.868)" fill="#ffee93"/>
      <path id="Path_5591" data-name="Path 5591" d="M465.679,9.949Q470.735,5.189,476.1.776c.466-.383-.2-1.042-.661-.661q-5.364,4.411-10.418,9.172c-.44.414.223,1.075.662.662" transform="translate(-165.195 0)" fill="#ff7254"/>
      <path id="Path_5592" data-name="Path 5592" d="M474.77,21.3c4.121-3.05,9.407-3.579,13.74-6.243.513-.315.043-1.126-.473-.808-4.335,2.664-9.613,3.186-13.74,6.243-.479.355-.013,1.167.473.808" transform="translate(-168.473 -5.039)" fill="#ff7254"/>
      <path id="Path_5593" data-name="Path 5593" d="M480.966,33.481c4.567-2.236,9.813-1.842,14.516-3.666.556-.215.314-1.121-.249-.9-4.783,1.854-10.091,1.484-14.74,3.76-.542.266-.068,1.073.472.808" transform="translate(-170.661 -10.262)" fill="#ff7254"/>
      <path id="Path_5594" data-name="Path 5594" d="M107.871,228.383c-3.127-3.824-8.981-6.25-14.663-7.241-9.629-1.679-38.568.222-38.568.222s-28.093-2.1-39.626,3.671q-1.114.558-2.129,1.172c15.27,2.969,25.248,15.217,38.267,22.461,2.5-.142,5.381-2.562,12.105-.16C76.535,236.7,91.4,222.227,107.871,228.383" transform="translate(-4.579 -78.338)" fill="#7babf7"/>
      <path id="Path_5595" data-name="Path 5595" d="M93.936,288.679c-.065.734-.13,1.619-.238,2.591-2.59,2.332-5.072,4.533-7.318,6.5-2.137,1.878-4.058,3.562-5.677,4.986-4.512-2.828-11.916-6.887-19.881-11.355,4.36-5.4,10.858-12.715,15.413-17.766,4.1,2.655,8.915,5.764,12.477,8.311,0,.021.064.064.194.151,2.914,2.094,4.965,3.843,5.051,4.663a11.469,11.469,0,0,1-.021,1.92" transform="translate(-21.613 -97.237)" fill="#c69d7b"/>
      <path id="Path_5596" data-name="Path 5596" d="M104.658,300.992c-.819,7.167-3.152,19.622-5.008,19.622-2.439-.021-3.043-1.273-3.561-4.554-.087-.627-1.749-1.9-4.425-3.584,1.619-1.425,3.54-3.108,5.677-4.986,2.246-1.965,4.728-4.166,7.318-6.5" transform="translate(-32.573 -106.959)" fill="#c69d7b"/>
      <path id="Path_5597" data-name="Path 5597" d="M72.483,318.808c.173,1.748,1.748,3.756.086,4.469-2.223.928-19.816-11.7-18.932-15.413a12.093,12.093,0,0,1,1.77-2.979c.777-1.058,1.749-2.31,2.85-3.691,7.965,4.468,15.369,8.527,19.881,11.355-2.914,2.568-4.857,4.253-5.181,4.62a1.99,1.99,0,0,0-.474,1.641" transform="translate(-19.049 -107.031)" fill="#c69d7b"/>
      <path id="Path_5598" data-name="Path 5598" d="M46.5,251.849c.023,0,.046-.006.07-.007-13.019-7.244-23-19.491-38.267-22.461-9.828,5.927-12.4,15.589.392,26.837,6.491,5.707,19.053,13.008,30.519,19.455,4.358-5.4,10.854-12.719,15.4-17.761-5.173-3.356-9.194-6.021-8.112-6.064" transform="translate(0 -81.512)" fill="#c69d7b"/>
      <path id="Path_5599" data-name="Path 5599" d="M88.785,252.073c.386.138.778.284,1.189.454,0,0-2.18,2.368-5.253,5.776,7.541,4.893,17.53,11.255,17.735,13.112a27.394,27.394,0,0,1-.272,4.528c13.773-12.352,30.664-28.212,32.786-34.009a9.645,9.645,0,0,0-1.572-9.986c-16.466-6.157-31.336,8.316-44.613,20.124" transform="translate(-30.106 -81.903)" fill="#c69d7b"/>
      <path id="Path_5600" data-name="Path 5600" d="M59.869,257.883c-6.369-4.3-27.943-16.308-28.161-16.428l.151-.273c.218.121,21.8,12.133,28.184,16.443Z" transform="translate(-11.268 -85.706)" fill="#557ac1"/>
      <path id="Path_5601" data-name="Path 5601" d="M101.906,280.188l-.2-6.251c-1.154-3.131-17.634-13.7-17.8-13.81l-.166-.106.141-.137c.19-.187,19.136-18.717,29.035-22.749l.119.29C103.644,241.251,86,258.263,84.243,259.97c1.847,1.188,16.7,10.815,17.771,13.886.008.046.2,6.322.2,6.322Z" transform="translate(-29.759 -84.267)" fill="#557ac1"/>
      <path id="Path_5602" data-name="Path 5602" d="M80.548,313.013l-20.409-11.8.156-.271,20.409,11.8Z" transform="translate(-21.371 -106.943)" fill="#557ac1"/>
      <path id="Path_5603" data-name="Path 5603" d="M94.037,232.908a6.339,6.339,0,1,0,5.355-7.189,6.337,6.337,0,0,0-5.355,7.189" transform="translate(-33.392 -80.187)" fill="#ffee93"/>
      <path id="Path_5604" data-name="Path 5604" d="M69.533,239.229l23.956-3.5a.94.94,0,0,0,.792-1.062l-.2-1.351a.938.938,0,0,0-1.062-.791l-23.958,3.5a.94.94,0,0,0-.79,1.062l.2,1.351a.939.939,0,0,0,1.062.792" transform="translate(-24.258 -82.625)" fill="#ffee93"/>
      <path id="Path_5605" data-name="Path 5605" d="M107.335,293.272c-.065.734-.13,1.619-.238,2.591-.82,7.167-3.152,19.622-5.008,19.622-2.439-.021-3.043-1.274-3.561-4.554l1.251-8.57,2.332-15.8.194.13c.929.713,4.6,3.627,4.814,4.792.065.3.13.95.216,1.791" transform="translate(-35.013 -101.831)" fill="#ffee93"/>
      <path id="Path_5606" data-name="Path 5606" d="M72.569,325.312c-2.223.928-19.816-11.7-18.932-15.413a12.07,12.07,0,0,1,1.77-2.979l17.075,13.923c.173,1.748,1.748,3.756.086,4.469" transform="translate(-19.049 -109.066)" fill="#ffee93"/>
      <path id="Path_5607" data-name="Path 5607" d="M79.478,271.978Q77.15,284.1,74.823,296.231c-.092.481.632.881.855.361l4.893-11.371,3.049-7.081a12.646,12.646,0,0,0,1.086-2.526c.046-.282-.229-1.759-.607-.69-1.283,3.644-.61,9.417-.859,13.248q-.4,6.1-.792,12.2c-.036.555.752.6.919.124L87.6,288.61l2.511-7.054a8.408,8.408,0,0,0,.659-1.849c.041-.543-.462-1.427-.679-.505-.932,3.973-.105,9.035-.153,13.118q-.072,6.092-.142,12.184a.468.468,0,0,0,.936,0q.149-12.8.3-25.608a.471.471,0,0,0-.92-.124Q88,284.716,85.88,290.659l-2.512,7.053c-.238.669-.486,3.774.037,2.354,1.347-3.659.6-9.237.852-13.134l.792-12.2c.029-.444-.688-.665-.873-.236q-2.446,5.686-4.893,11.371l-3.047,7.081c-.023.052-1.972,4.4-.494,3.453.471-.3.719-3.751.8-4.175q.756-3.936,1.511-7.872,1.163-6.063,2.327-12.127c.113-.589-.788-.841-.9-.249" transform="translate(-26.586 -96.529)" fill="#382d62"/>
      <path id="Path_5608" data-name="Path 5608" d="M74.126,319.486,58.1,304.176l-.568.736L75.915,316.42a.47.47,0,0,0,.567-.734l-12.24-11.119c-.445-.4-1.109.257-.662.663l12.24,11.118.568-.736L58,304.1a.47.47,0,0,0-.567.735l16.031,15.31c.435.416,1.1-.245.662-.662" transform="translate(-20.36 -108.04)" fill="#382d62"/>
      <path id="Path_5609" data-name="Path 5609" d="M61.427,87.288a6.339,6.339,0,1,1-7.211-5.326,6.339,6.339,0,0,1,7.211,5.326" transform="translate(-17.348 -29.1)" fill="#ffee93"/>
      <path id="Path_5610" data-name="Path 5610" d="M79.038,87.337,55.1,90.938a.939.939,0,0,1-1.065-.786l-.2-1.35a.938.938,0,0,1,.786-1.066l23.943-3.6a.939.939,0,0,1,1.065.786l.2,1.351a.94.94,0,0,1-.787,1.065" transform="translate(-19.124 -29.894)" fill="#ffee93"/>
      <path id="Path_5611" data-name="Path 5611" d="M82.861,128.125a4.855,4.855,0,0,0-3.37-.255,4.1,4.1,0,0,0-2.637,1.773c-1.057,1.952-.964,5.688,1.315,7.477a3.735,3.735,0,0,0,6.154-2.3c.553-2.7,1.126-5.436-1.463-6.7" transform="translate(-27.08 -45.374)" fill="#c69d7b"/>
      <path id="Path_5612" data-name="Path 5612" d="M79.934,138.646V143.9a1.917,1.917,0,0,0,3.782,0v-5.253Z" transform="translate(-28.405 -49.269)" fill="#c69d7b"/>
      <path id="Path_5613" data-name="Path 5613" d="M77.312,143.7l-.253-20.632s10.621,1.084,11.413-.275.494-19.712-.322-20.242-14.46-4.454-17.874-7.785-3.129-5.719-1.653-10.054,4.087-4.1,3.382-2.92-1.773,2.091-1.569,4.067.478,2.187.64.847c.571-4.73,4.587-7.3,4.693-6.04s-1.857,2.542-2.014,4.522,1.12,3.225.83,1.609.234-2.971,2.449-5.7,2.43-1.019,2.43-1.019c.494,2.557-6.025,8.529,1.493,8.3.37-.011,16.785,2.729,18.093,8.094,5.425,22.261-1.788,42.929-2.829,46s-18.909,1.184-18.909,1.184Z" transform="translate(-24.015 -28.269)" fill="#c69d7b"/>
      <path id="Path_5614" data-name="Path 5614" d="M92.2,165.606v.065L90.387,179.4l-3.13,23.724-1.036.432H54.682l-4.576-35.9,9.153-.454,3.281-.151,8.484-.411.216-.021,8.743-.411L82.2,166.1Z" transform="translate(-17.805 -58.849)" fill="#c69d7b"/>
      <path id="Path_5615" data-name="Path 5615" d="M70.116,146.841v20.634s-9.051.269-9.86,1.619-2.23,15.638-1.421,16.178,14.437,6.622,17.81,10,3.058,5.756,1.528,10.074-4.137,4.048-3.418,2.878,1.8-2.069,1.619-4.048-.451-2.192-.63-.854c-.629,4.722-4.677,7.24-4.767,5.981s1.889-2.519,2.069-4.5-1.079-3.238-.809-1.619-.27,2.968-2.519,5.667-2.442.989-2.442.989c-.463-2.563,6.13-8.454-1.391-8.322-.369.006-16.494-.4-18.024-5.709-1.293-4.487-1.079-43.354,0-46.412s22.254-2.519,22.254-2.519Z" transform="translate(-16.691 -52.181)" fill="#c69d7b"/>
      <path id="Path_5616" data-name="Path 5616" d="M75.428,130.872c-1.02-1.262-2.2-.926-2.484.661-.318,1.767.207,3.627.464,5.368.081.545.444,3.737-1.366,1.888a2.779,2.779,0,0,1-.46-1.273c-.09-.473-.812-.273-.722.2.245,1.3,2.163,3.81,3.244,1.642.59-1.182-.056-3.083-.246-4.278-.106-.669-.576-5.675,1.038-3.678.3.375.83-.157.531-.529" transform="translate(-25.178 -46.233)" fill="#557ac1"/>
      <path id="Path_5617" data-name="Path 5617" d="M77.575,129.124a2.416,2.416,0,0,0-1.8-1.308c-.643-.07-1.634.1-1.859.828-.142.462.581.66.723.2-.012.039.106-.109.207-.165a1.5,1.5,0,0,1,1.176-.038,1.822,1.822,0,0,1,.911.861c.221.429.868.051.647-.378" transform="translate(-26.258 -45.415)" fill="#557ac1"/>
      <path id="Path_5618" data-name="Path 5618" d="M79.663,127.646a3.757,3.757,0,0,0-2.212-2.288c-.458-.152-.654.571-.2.723a3.025,3.025,0,0,1,1.689,1.764c.171.445.9.252.722-.2" transform="translate(-27.36 -44.54)" fill="#557ac1"/>
      <path id="Path_5619" data-name="Path 5619" d="M82.125,126.984l-.253-2.177c-.055-.473-.8-.479-.749,0l.253,2.177c.055.473.805.479.749,0" transform="translate(-28.826 -44.224)" fill="#557ac1"/>
      <path id="Path_5620" data-name="Path 5620" d="M88.234,131.4c1.535-1.9,1.192,2.683,1.077,3.437-.19,1.25-.9,3.281-.285,4.519,1.081,2.167,3-.345,3.245-1.643.088-.471-.633-.672-.723-.2a2.641,2.641,0,0,1-.386,1.151q-.18.543-.832.222-.9.311-.741-.525a5.476,5.476,0,0,1,.133-1.464c.26-1.746.77-3.6.463-5.368-.275-1.594-1.468-1.917-2.483-.661-.3.371.226.9.53.529" transform="translate(-31.134 -46.233)" fill="#557ac1"/>
      <path id="Path_5621" data-name="Path 5621" d="M86.72,129.5a1.824,1.824,0,0,1,.911-.861,1.522,1.522,0,0,1,1.176.038c.1.056.22.2.208.165.141.459.864.263.722-.2-.224-.725-1.218-.9-1.859-.829a2.421,2.421,0,0,0-1.805,1.309c-.22.428.425.807.647.378" transform="translate(-30.571 -45.415)" fill="#557ac1"/>
      <path id="Path_5622" data-name="Path 5622" d="M85.275,127.846a3.021,3.021,0,0,1,1.689-1.764c.455-.151.26-.875-.2-.723a3.756,3.756,0,0,0-2.212,2.288c-.174.451.55.645.722.2" transform="translate(-30.037 -44.54)" fill="#557ac1"/>
      <path id="Path_5623" data-name="Path 5623" d="M83.77,126.984l.253-2.177c.055-.478-.694-.474-.749,0q-.126,1.089-.253,2.177c-.055.478.694.474.749,0" transform="translate(-29.501 -44.224)" fill="#557ac1"/>
      <path id="Path_5624" data-name="Path 5624" d="M75.721,134.343s-.773-.895-.895,0,.381,2.629,1.126,2.27a1.5,1.5,0,0,0,.908-1.09,10.534,10.534,0,0,0-1.139-1.18" transform="translate(-26.583 -47.598)" fill="#c69d7b"/>
      <path id="Path_5625" data-name="Path 5625" d="M88.777,134.343s.773-.895.9,0-.382,2.629-1.126,2.27a1.5,1.5,0,0,1-.908-1.09,10.534,10.534,0,0,1,1.139-1.18" transform="translate(-31.143 -47.598)" fill="#c69d7b"/>
      <path id="Path_5626" data-name="Path 5626" d="M95.218,172.8l-3.13,23.724-1.037.432-5.828,2.439a1.512,1.512,0,0,0-.216-.3,22.8,22.8,0,0,0-1.554-2.137,25.559,25.559,0,0,0-7.469-5.958c-.086-.064-.195-.108-.3-.172-3.886-2.245-9.909-5.03-10.793-5.418a.959.959,0,0,0-.108-.065l-.13-4.641c0-.021-.561-20.1-.561-20.1L63.7,147.15l2.5-.129s.648,7.253,1.166,13.427c.28,3.324.5,6.346.561,7.771a.376.376,0,0,0,.021.152c.5,3.907,11.722,4.511,14.981,1.317a4.1,4.1,0,0,0,.885-1.533c.734-1.986.971-5.224.993-8.549.022-5.936-.67-12.175-.67-12.175l.151-.022,2.073-.259h.086a94.144,94.144,0,0,0,.583,12.348,33.557,33.557,0,0,0,2.007,8.635c2.59,6.26,6.174,4.662,6.174,4.662" transform="translate(-22.637 -52.245)" fill="#382d62"/>
      <path id="Path_5627" data-name="Path 5627" d="M86.951,92.664,82.3,102.843c-.5,1.088,1.117,2.041,1.617.945l4.653-10.178c.5-1.088-1.117-2.041-1.617-.945" transform="translate(-29.212 -32.756)" fill="#ffee93"/>
      <path id="Path_5628" data-name="Path 5628" d="M91.584,106.044q2.264-5.454,4.526-10.908c.462-1.112-1.349-1.6-1.805-.5l-4.527,10.908c-.462,1.112,1.35,1.6,1.806.5" transform="translate(-31.877 -33.41)" fill="#ffee93"/>
      <path id="Path_5629" data-name="Path 5629" d="M73.96,226.665l8.173-9c.4-.445-.257-1.109-.663-.662L73.3,226c-.4.445.255,1.109.661.662" transform="translate(-26.002 -77.062)" fill="#ffee93"/>
      <path id="Path_5630" data-name="Path 5630" d="M67.038,61.912q.482-6.865,1.409-13.683c.081-.589-.822-.844-.9-.249Q66.6,54.925,66.1,61.912c-.043.6.894.6.936,0" transform="translate(-23.489 -16.93)" fill="#ff7254"/>
      <path id="Path_5631" data-name="Path 5631" d="M80.328,62.877c.955-5.037,4.48-9.013,5.853-13.911a.468.468,0,0,0-.9-.249c-1.374,4.9-4.9,8.865-5.853,13.911-.112.589.79.841.9.249" transform="translate(-28.221 -17.195)" fill="#ff7254"/>
      <path id="Path_5632" data-name="Path 5632" d="M92.2,67.259c1.8-4.752,5.988-8,8.175-12.543.26-.541-.547-1.017-.808-.473-2.225,4.623-6.435,7.921-8.269,12.768-.214.564.69.808.9.249" transform="translate(-32.433 -19.19)" fill="#ff7254"/>
      <path id="Path_5633" data-name="Path 5633" d="M210.27,226.891s15.708,6.057,17.227,28.667c0,0-1.723,18.411-11.026,20.979l37.545-6.419,37.178,5.788s-14.3-7.921-8.276-31.231c0,0,5.211-15.428,15.915-17.574l-2.544-.9L277.22,222.77l-53.231,1.845Z" transform="translate(-74.721 -79.163)" fill="#ffee93"/>
      <path id="Path_5634" data-name="Path 5634" d="M232.458,228.574l11.377,48.231,37-1.894,11.29-47.826Z" transform="translate(-82.606 -80.696)" fill="#b07e71"/>
      <path id="Path_5635" data-name="Path 5635" d="M274.926,213.173l24.656,9.615-26.378-2.4-37.322,1.286-12.625.463,19.649-8.963Z" transform="translate(-79.335 -75.753)" fill="#ff7254"/>
      <path id="Path_5636" data-name="Path 5636" d="M234.419,239.638c18.319,4.338,38.332,4.007,56.626,0,.589-.129.339-1.032-.249-.9-18.079,3.959-38.012,4.291-56.128,0-.586-.139-.836.763-.249.9" transform="translate(-83.183 -84.831)" fill="#ffee93"/>
      <path id="Path_5637" data-name="Path 5637" d="M244.566,280.528c13.772,4.841,29.735,4.209,43.5,0,.574-.175.329-1.08-.249-.9-13.614,4.162-29.387,4.786-43.005,0-.57-.2-.815.7-.249.9" transform="translate(-86.794 -99.356)" fill="#ffee93"/>
      <path id="Path_5638" data-name="Path 5638" d="M240.9,255.266l2.214-11.467c.139-.724.311-1.451.421-2.181.1-.674-.872-.761-.679-.073.382,1.367.857,2.716,1.283,4.068q3.6,11.387,7.189,22.775a.472.472,0,0,0,.9,0c.9-2.967,7.3-25.445,7.262-25.448-.411-.035,2.121,11.909,2.414,13.275q1.431,6.673,2.863,13.346c.1.483.762.406.9,0,3.047-8.768,5.356-18.336,9.291-26.735.024-.051-.843-.574-.638.364.18.824.468,1.64.7,2.45q1.182,4.139,2.363,8.275L281.3,267.6a.472.472,0,0,0,.9,0q3.016-13.313,6.029-26.626c.133-.587-.769-.837-.9-.249-1.994,8.806-3.508,17.881-6.013,26.553.331-1.146.875.829.58-1a25.743,25.743,0,0,0-.81-2.835q-1.23-4.3-2.458-8.605l-3.575-12.516a.473.473,0,0,0-.9,0c-3.08,8.864-5.558,18.242-9.324,26.83.217-.494.75.574.665-.692a19.694,19.694,0,0,0-.572-2.668l-1.978-9.22q-1.5-6.975-2.993-13.952a.472.472,0,0,0-.9,0q-1.93,6.379-3.858,12.759-1.359,4.493-2.718,8.988a19.2,19.2,0,0,0-.828,2.738c-.231,1.666.082-.115.54.873-3.879-8.379-5.768-18.274-8.552-27.094-.13-.41-.81-.479-.9,0q-1.363,7.068-2.727,14.133c-.114.589.788.841.9.249" transform="translate(-85.281 -85.425)" fill="#ffee93"/>
      <path id="Path_5639" data-name="Path 5639" d="M261.551,225.632H231.3a.474.474,0,0,0-.451.593l12.413,50.064a.475.475,0,0,0,.451.344h35.686a.475.475,0,0,0,.451-.344q6.207-25.032,12.413-50.064a.474.474,0,0,0-.451-.593H261.551a.469.469,0,0,0,0,.937h21.675c1.9,0,6.649-.935,8.324,0,.449.25-.513-1.174-.344.006.137.955-.656,2.644-.886,3.57q-3.035,12.243-6.071,24.485-1.51,6.091-3.021,12.182c-.585,2.363-.814,6.161-2.058,8.3-.69,1.188.286.325-.193.581-.794.424-2.979,0-3.854,0H256.189c-2.838,0-9.552,1.339-12.065,0-.48-.256.5.607-.193-.581a10.649,10.649,0,0,1-.635-2.563q-1.427-5.754-2.854-11.509-3.322-13.393-6.641-26.786c-.494-2-2.4-5.944-1.969-7.941.079-.366-.973.439.449.252a43.026,43.026,0,0,1,5.448,0h23.823a.469.469,0,0,0,0-.937" transform="translate(-82.027 -80.18)" fill="#ffee93"/>
      <path id="Path_5640" data-name="Path 5640" d="M269.687,117.138s-1.67,1.195-2.311,0-.641-.655-1.683-1.644-.882-2.878-.561-3.058-1.046-2.7-.242-3.868,2.134-1.8,2.27-3.867,1.308-2.969,2.285-2.7a3.907,3.907,0,0,0,3.142-.63,1.628,1.628,0,0,1,2.485,0c1.042.9,1.283,1.439,2.245.99s2.084-.63,2.565.54a3.048,3.048,0,0,0,1.2,1.709c.481.36,1.6.269,1.2,1.619s-.472,1.619.085,2.608a4.244,4.244,0,0,1,0,3.687c-.566.81.075.81-.646,3.328s-2.369,2.836-3.955,2.878-.906,1.2-2.058.921-3.593,1.186-6.027-2.515" transform="translate(-94.039 -35.818)" fill="#557ac1"/>
      <path id="Path_5641" data-name="Path 5641" d="M245.645,156.772l5.216,24.825h32.021l5.1-25.009-19.315-23.921h-3.058Z" transform="translate(-87.291 -47.144)" fill="#fcd3bf"/>
      <path id="Path_5642" data-name="Path 5642" d="M278.618,106.261a5.848,5.848,0,0,0-4.51-.383,5.51,5.51,0,0,0-3.532,2.663c-1.415,2.932-1.289,8.543,1.761,11.23s7.369,1.311,8.239-3.453c.741-4.05,1.507-8.164-1.958-10.057" transform="translate(-95.842 -37.526)" fill="#fcd3bf"/>
      <path id="Path_5643" data-name="Path 5643" d="M274.211,122.062v7.889a2.879,2.879,0,0,0,5.68,0v-7.889Z" transform="translate(-97.443 -43.376)" fill="#fcd3bf"/>
      <path id="Path_5644" data-name="Path 5644" d="M269.06,115.6s-1.034-1.343-1.2,0,.511,3.948,1.507,3.41a2.243,2.243,0,0,0,1.215-1.638,15.183,15.183,0,0,0-1.524-1.771" transform="translate(-95.178 -40.867)" fill="#fcd3bf"/>
      <path id="Path_5645" data-name="Path 5645" d="M286.539,115.6s1.034-1.343,1.2,0-.511,3.948-1.507,3.41a2.243,2.243,0,0,1-1.214-1.638,15.183,15.183,0,0,1,1.524-1.771" transform="translate(-101.282 -40.867)" fill="#fcd3bf"/>
      <path id="Path_5646" data-name="Path 5646" d="M252.38,134.249s-17.118-.508-21.795,1.111S206.3,156.989,204.86,161.847s18.169,26.222,22.126,27.481,13.492-4.137,16.371-3.237,3.33,1.4,4.587.719c1.792-.973-5.126-2.968-4.857-3.418s3.851.783,5.577,1.979c.829.574,1.619-.27-.36-2.069A16.1,16.1,0,0,0,243,180.873c-2.518-.449,1.08-.9,3.419.54s2.428.81,1.708-.54-4.137-2.788-8.725-1.978-5.306.9-7.285-1.349-9.624-11.6-9.8-13.582,7.2-9.354,8.815-6.655,21.255-23.058,21.255-23.058" transform="translate(-72.772 -47.68)" fill="#fcd3bf"/>
      <path id="Path_5647" data-name="Path 5647" d="M278.616,134.288s17.421-.148,21.2,1.111,21.766,18.348,24.286,21.587-11.333,22.846-25.186,26.264c0,0-7.2,1.8-9.893-3.058s-4.318-7.556-6.206-7.825-2.969.18-1.889-.99,3.912,0,4.52.2.877-.473-.338-1.013-2.5-.944-3.643-.337-.2-1.281,1.619-1.484,3.812,1.282,4.148,1.147-1.787-1.282-2.934-1.417.675-1.146,2.294-.741a12.777,12.777,0,0,1,7.826,4.722c2.563,3.508,10.118-5.127,11.872-7.691s1.753-1.753-.269-3.643-7.286-5.4-12.547-5.262-14.858-21.574-14.858-21.574" transform="translate(-99.008 -47.718)" fill="#fcd3bf"/>
      <path id="Path_5648" data-name="Path 5648" d="M269.734,111.961s1.389.271,1.524-.6-.857-1.543,0-1.409,1.6,0,1.678-.81.563-1.484,1.224-1.282,1.744.67,2.1-.037.9-1.245,1.383-.638.361,1.147,1.082,1.215,1.443-.135,1.263.674-.425,1.687.028,1.822,1.089,1.061,1.089,1.061.988-1.264.867-2.005.5-1.951-1.019-2.7-1.646-1.684-2.96-1.956a19.071,19.071,0,0,0-2.877-.54,14.485,14.485,0,0,0-2.465.54l-2.1,1.888-.818,1.552Z" transform="translate(-95.852 -37.227)" fill="#557ac1"/>
      <path id="Path_5649" data-name="Path 5649" d="M244.936,168.081s20.538-7.449,42.8.278L282.63,196H250.61Z" transform="translate(-87.04 -58.581)" fill="#382d62"/>
      <path id="Path_5650" data-name="Path 5650" d="M245.371,198.8c-2.518-.449,1.08-.9,3.419.54s2.428.81,1.708-.54-4.137-2.788-8.725-1.978-5.307.9-7.286-1.349a128.842,128.842,0,0,1-8.412-10.849,50.979,50.979,0,0,0-14.611,4.166c5.677,7.861,15.259,17.626,17.9,18.465,3.957,1.26,13.492-4.137,16.37-3.237s3.33,1.4,4.587.719c1.792-.973-5.126-2.969-4.857-3.418s3.85.783,5.577,1.979c.829.574,1.619-.27-.36-2.069a16.1,16.1,0,0,0-5.307-2.429" transform="translate(-75.145 -65.608)" fill="#fcd3bf"/>
      <path id="Path_5651" data-name="Path 5651" d="M308.593,178.481c-.03.344-.449.8-1.264,1.992-1.754,2.563-9.309,11.2-11.872,7.691a12.774,12.774,0,0,0-7.826-4.723c-1.618-.4-3.44.607-2.293.742s3.272,1.282,2.934,1.417-2.328-1.35-4.149-1.147-2.766,2.091-1.619,1.483,2.429-.2,3.643.338.944,1.214.337,1.012-3.44-1.372-4.52-.2,0,.719,1.889.99,3.508,2.968,6.206,7.825,9.894,3.058,9.894,3.058c8.478-2.092,16.936-10.242,21.661-17-4.367-.982-8.5-2.7-13.021-3.478" transform="translate(-100.045 -63.424)" fill="#fcd3bf"/>
      <path id="Path_5652" data-name="Path 5652" d="M268.673,132.607a2.557,2.557,0,1,1-2.557-2.557,2.557,2.557,0,0,1,2.557,2.557" transform="translate(-93.658 -46.214)" fill="#ff7254"/>
      <path id="Path_5653" data-name="Path 5653" d="M271.4,155.479a2.557,2.557,0,1,1-2.557-2.557,2.556,2.556,0,0,1,2.557,2.557" transform="translate(-94.626 -54.342)" fill="#ff7254"/>
      <path id="Path_5654" data-name="Path 5654" d="M265.453,144.065a3.992,3.992,0,1,1-3.992-3.992,3.992,3.992,0,0,1,3.992,3.992" transform="translate(-91.493 -49.776)" fill="#ff7254"/>
      <path id="Path_5655" data-name="Path 5655" d="M283.426,156.187a3.274,3.274,0,1,1-3.273-3.274,3.274,3.274,0,0,1,3.273,3.274" transform="translate(-98.39 -54.339)" fill="#ff7254"/>
      <path id="Path_5656" data-name="Path 5656" d="M293.53,132.766a4.269,4.269,0,1,1-4.269-4.269,4.269,4.269,0,0,1,4.269,4.269" transform="translate(-101.274 -45.662)" fill="#ff7254"/>
      <path id="Path_5657" data-name="Path 5657" d="M265.056,138.087a.944.944,0,1,1-.944-.944.944.944,0,0,1,.944.944" transform="translate(-93.518 -48.735)" fill="#7babf7"/>
      <path id="Path_5658" data-name="Path 5658" d="M295.04,151.518a.945.945,0,1,1-.945-.944.945.945,0,0,1,.945.944" transform="translate(-104.173 -53.507)" fill="#7babf7"/>
      <path id="Path_5659" data-name="Path 5659" d="M265.664,153.911a.944.944,0,1,1,.745-1.108.945.945,0,0,1-.745,1.108" transform="translate(-94.005 -54.028)" fill="#7babf7"/>
      <path id="Path_5660" data-name="Path 5660" d="M275.075,158.989a.944.944,0,1,1,.746-1.108.944.944,0,0,1-.746,1.108" transform="translate(-97.35 -55.833)" fill="#7babf7"/>
      <path id="Path_5661" data-name="Path 5661" d="M288.209,157.295a.944.944,0,1,1,.745-1.108.944.944,0,0,1-.745,1.108" transform="translate(-102.017 -55.231)" fill="#7babf7"/>
      <path id="Path_5662" data-name="Path 5662" d="M295.742,142.148a.944.944,0,1,1,.745-1.108.945.945,0,0,1-.745,1.108" transform="translate(-104.694 -49.848)" fill="#7babf7"/>
      <path id="Path_5663" data-name="Path 5663" d="M284.11,131.981a.944.944,0,1,1,.745-1.108.946.946,0,0,1-.745,1.108" transform="translate(-100.56 -46.236)" fill="#7babf7"/>
      <path id="Path_5664" data-name="Path 5664" d="M272.158,131.917a.944.944,0,1,1,.745-1.108.945.945,0,0,1-.745,1.108" transform="translate(-96.313 -46.212)" fill="#7babf7"/>
      <path id="Path_5665" data-name="Path 5665" d="M267.846,133.624a.712.712,0,1,1-.712-.712.712.712,0,0,1,.712.712" transform="translate(-94.675 -47.231)" fill="#382d62"/>
      <path id="Path_5666" data-name="Path 5666" d="M264.78,144.892a2.492,2.492,0,1,1-2.492-2.492,2.492,2.492,0,0,1,2.492,2.492" transform="translate(-92.32 -50.603)" fill="#382d62"/>
      <path id="Path_5667" data-name="Path 5667" d="M270.57,156.5a.712.712,0,1,1-.712-.712.712.712,0,0,1,.712.712" transform="translate(-95.643 -55.359)" fill="#382d62"/>
      <path id="Path_5668" data-name="Path 5668" d="M293.713,154.97a1.792,1.792,0,1,1-1.791-1.792,1.791,1.791,0,0,1,1.791,1.792" transform="translate(-103.099 -54.433)" fill="#ff7254"/>
      <path id="Path_5669" data-name="Path 5669" d="M293.133,155.683a.5.5,0,1,1-.5-.5.5.5,0,0,1,.5.5" transform="translate(-103.812 -55.146)" fill="#382d62"/>
      <path id="Path_5670" data-name="Path 5670" d="M297.918,145.712a2.557,2.557,0,1,1-2.557-2.557,2.557,2.557,0,0,1,2.557,2.557" transform="translate(-104.05 -50.871)" fill="#ff7254"/>
      <path id="Path_5671" data-name="Path 5671" d="M297.09,146.729a.712.712,0,1,1-.712-.712.712.712,0,0,1,.712.712" transform="translate(-105.067 -51.888)" fill="#382d62"/>
      <path id="Path_5672" data-name="Path 5672" d="M282.774,156.988a1.82,1.82,0,1,1-1.82-1.82,1.821,1.821,0,0,1,1.82,1.82" transform="translate(-99.192 -55.14)" fill="#382d62"/>
      <path id="Path_5673" data-name="Path 5673" d="M292.742,133.734a2.513,2.513,0,1,1-2.513-2.513,2.514,2.514,0,0,1,2.513,2.513" transform="translate(-102.241 -46.63)" fill="#382d62"/>
      <path id="Path_5674" data-name="Path 5674" d="M291.1,228.068H229.842a1.408,1.408,0,0,1-1.4-1.4v-4.81a1.408,1.408,0,0,1,1.4-1.4H291.1a1.409,1.409,0,0,1,1.4,1.4v4.81a1.409,1.409,0,0,1-1.4,1.4" transform="translate(-81.177 -78.338)" fill="#b07e71"/>
      <path id="Path_5675" data-name="Path 5675" d="M286.33,306.761H246.341a1.408,1.408,0,0,1-1.4-1.4v-3.378a1.409,1.409,0,0,1,1.4-1.4H286.33a1.409,1.409,0,0,1,1.4,1.4v3.378a1.408,1.408,0,0,1-1.4,1.4" transform="translate(-87.04 -106.811)" fill="#b07e71"/>
      <path id="Path_5676" data-name="Path 5676" d="M338.266,200.105c4.567-2.238,9.812-1.843,14.516-3.667.556-.215.314-1.122-.249-.9-4.783,1.855-10.091,1.485-14.739,3.761-.542.265-.068,1.073.473.809" transform="translate(-119.952 -69.473)" fill="#ff7254"/>
      <path id="Path_5677" data-name="Path 5677" d="M337.881,208.16c4.87-1.59,10.047-.513,15-1.674.586-.137.337-1.04-.249-.9-4.958,1.162-10.114.079-15,1.674-.571.186-.327,1.09.249.9" transform="translate(-119.864 -73.05)" fill="#ff7254"/>
      <path id="Path_5678" data-name="Path 5678" d="M337.805,216.915c5.115-.3,9.85,2.049,14.934,2.181a.468.468,0,0,0,0-.936c-5.089-.132-9.805-2.486-14.934-2.181-.6.035-.6.972,0,.936" transform="translate(-119.881 -76.74)" fill="#ff7254"/>
      <path id="Path_5679" data-name="Path 5679" d="M205.953,199.3c-4.647-2.276-9.958-1.907-14.74-3.761-.562-.218-.806.687-.249.9,4.7,1.824,9.949,1.43,14.516,3.667.539.264,1.014-.543.473-.809" transform="translate(-67.748 -69.473)" fill="#ff7254"/>
      <path id="Path_5680" data-name="Path 5680" d="M205.913,207.257c-4.885-1.595-10.042-.512-15-1.674-.587-.137-.836.766-.249.9,4.951,1.16,10.129.084,15,1.673.574.187.821-.716.249-.9" transform="translate(-67.635 -73.05)" fill="#ff7254"/>
      <path id="Path_5681" data-name="Path 5681" d="M205.778,215.979c-5.128-.3-9.844,2.049-14.933,2.181a.468.468,0,0,0,0,.936c5.084-.132,9.819-2.484,14.933-2.181.6.036.6-.9,0-.936" transform="translate(-67.657 -76.74)" fill="#ff7254"/>
      <path id="Path_5682" data-name="Path 5682" d="M321.238,250.043c-2.764,14.127,3.669,27.277,14.37,29.371s21.616-7.662,24.38-21.789-3.669-27.277-14.37-29.371-21.616,7.662-24.38,21.789" transform="translate(-113.926 -81.011)" fill="#ffee93"/>
      <path id="Path_5683" data-name="Path 5683" d="M320.619,249.642c-1.893,11.335,1.381,27.3,14.7,29.946,13.076,2.6,22.771-10.828,24.957-22.116s-1.586-27.344-14.7-29.947c-13.314-2.642-22.439,10.916-24.956,22.116-.132.587.77.837.9.249,2.407-10.709,10.978-23.934,23.8-21.462,12.613,2.43,16.142,18.015,14.043,28.8s-11.2,23.89-23.8,21.461c-12.829-2.472-15.851-17.966-14.044-28.795.1-.589-.8-.843-.9-.249" transform="translate(-113.759 -80.734)" fill="#ff7254"/>
      <path id="Path_5684" data-name="Path 5684" d="M214.31,250.043c2.764,14.127-3.67,27.277-14.37,29.371s-21.616-7.662-24.38-21.789,3.669-27.277,14.37-29.371,21.616,7.662,24.38,21.789" transform="translate(-62.158 -81.011)" fill="#ffee93"/>
      <path id="Path_5685" data-name="Path 5685" d="M213.637,249.891c1.807,10.829-1.216,26.323-14.044,28.795-12.6,2.429-21.706-10.686-23.8-21.461s1.43-26.365,14.044-28.8c12.827-2.472,21.4,10.753,23.805,21.462.131.588,1.033.338.9-.249-2.518-11.207-11.64-24.759-24.956-22.116-13.088,2.6-16.915,18.664-14.7,29.947s11.855,24.716,24.955,22.115c13.315-2.642,16.589-18.615,14.7-29.946-.1-.593-1-.342-.9.249" transform="translate(-61.936 -80.734)" fill="#ff7254"/>
      <path id="Path_5686" data-name="Path 5686" d="M206.145,266.048c.149,1.015-.229,2.843-1.667,2.509a2.387,2.387,0,0,1-1.53-1.956c-.169-.924.121-2.461,1.312-2.544,1.08-.075,1.677,1.126,1.886,1.991.141.585,1.044.337.9-.249-.336-1.392-1.465-2.942-3.093-2.64-1.645.3-2.209,2.245-1.909,3.691.288,1.388,1.459,2.89,3.031,2.649,1.745-.268,2.189-2.224,1.971-3.7-.087-.594-.99-.341-.9.249" transform="translate(-71.771 -93.502)" fill="#ff7254"/>
      <path id="Path_5687" data-name="Path 5687" d="M347.738,265.8c-.215,1.459.206,3.376,1.909,3.693,1.6.3,2.8-1.238,3.093-2.641s-.241-3.346-1.847-3.683c-1.651-.346-2.815,1.219-3.156,2.632-.142.585.761.835.9.249.21-.865.806-2.065,1.886-1.991,1.187.083,1.482,1.614,1.311,2.544a2.376,2.376,0,0,1-1.53,1.955c-1.438.3-1.821-1.467-1.667-2.508.087-.589-.815-.844-.9-.249" transform="translate(-123.553 -93.501)" fill="#ff7254"/>
    </g>
    <path id="Icon_awesome-music" data-name="Icon awesome-music" d="M41.2,2.576A2.573,2.573,0,0,0,37.85.121L12.1,7.725a2.574,2.574,0,0,0-1.8,2.454V31.214A11.131,11.131,0,0,0,7.725,30.9C3.458,30.9,0,33.2,0,36.049S3.458,41.2,7.725,41.2s7.725-2.305,7.725-5.15v-18.8l20.6-6.037V26.064a11.131,11.131,0,0,0-2.575-.315c-4.266,0-7.725,2.305-7.725,5.15s3.458,5.15,7.725,5.15S41.2,33.743,41.2,30.9V2.576Z" transform="translate(299.023 540.949)" fill="#52bd94"/>
    <path id="Icon_awesome-music-2" data-name="Icon awesome-music" d="M31.048,1.941A1.939,1.939,0,0,0,28.525.091L9.12,5.821a1.94,1.94,0,0,0-1.358,1.85V23.524a8.389,8.389,0,0,0-1.941-.238C2.606,23.286,0,25.023,0,27.167s2.606,3.881,5.822,3.881,5.822-1.737,5.822-3.881V13L27.167,8.447v11.2a8.389,8.389,0,0,0-1.941-.238c-3.215,0-5.822,1.737-5.822,3.881s2.606,3.881,5.822,3.881,5.822-1.737,5.822-3.881V1.941Z" transform="translate(389.023 621.099)" fill="#52bd94"/>
    <path id="Icon_ionic-md-musical-note" data-name="Icon ionic-md-musical-note" d="M19.3,4.5V22.613a6.851,6.851,0,1,0,3.428,5.922V11.364H29.6V4.5Z" transform="translate(163.401 616.599)" fill="#52bd94"/>
    <path id="Icon_ionic-md-musical-note-2" data-name="Icon ionic-md-musical-note" d="M19.3,4.5V22.613a6.851,6.851,0,1,0,3.428,5.922V11.364H29.6V4.5Z" transform="matrix(0.875, 0.485, -0.485, 0.875, 175.492, 688.743)" fill="#52bd94"/>
    <path id="Icon_ionic-md-musical-note-3" data-name="Icon ionic-md-musical-note" d="M19.3,4.5V22.613a6.851,6.851,0,1,0,3.428,5.922V11.364H29.6V4.5Z" transform="matrix(0.875, 0.485, -0.485, 0.875, 308.492, 643.743)" fill="#52bd94"/>
    <path id="Icon_ionic-md-musical-note-4" data-name="Icon ionic-md-musical-note" d="M19.3,4.5V22.613a6.851,6.851,0,1,0,3.428,5.922V11.364H29.6V4.5Z" transform="matrix(0.875, 0.485, -0.485, 0.875, 439.492, 721.743)" fill="#52bd94"/>
  </g>
</svg>
